<?xml version="1.0" encoding="utf-8"?>
<!-- Generator: Adobe Illustrator 22.0.0, SVG Export Plug-In . SVG Version: 6.00 Build 0)  -->
<svg version="1.1" id="Capa_1" xmlns="http://www.w3.org/2000/svg" xmlns:xlink="http://www.w3.org/1999/xlink" x="0px" y="0px"
	 viewBox="0 0 625.7 25.6" style="enable-background:new 0 0 625.7 25.6;" xml:space="preserve">
<style type="text/css">
	.st0{fill:#0B69AF;}
	.st1{fill:#058EC4;}
</style>
<g>
	<path class="st0" d="M596,21.6V7.8h-60.3V0h68.8l21.2,21.4L596,21.6z M536.9,6.6h60.3v13.8l25.5-0.2L604,1.3h-67.1V6.6z"/>
	<path class="st0" d="M29.7,21.6L0,21.4L21.2,0H90v7.8H29.7V21.6z M3,20.1l25.5,0.2V6.6h60.3V1.3H21.7L3,20.1z"/>
	<rect x="89.6" y="3.4" class="st0" width="446.7" height="1.3"/>
	<path class="st1" d="M591.3,16.8h-2.1v-0.7h2.1V16.8z M587.1,16.8H585v-0.7h2.1V16.8z M582.9,16.8h-2.1v-0.7h2.1V16.8z M578.7,16.8
		h-2.1v-0.7h2.1V16.8z M574.5,16.8h-2.1v-0.7h2.1V16.8z M570.3,16.8h-2.1v-0.7h2.1V16.8z M566.1,16.8H564v-0.7h2.1V16.8z
		 M561.9,16.8h-2.1v-0.7h2.1V16.8z M557.7,16.8h-2.1v-0.7h2.1V16.8z M553.5,16.8h-2.1v-0.7h2.1V16.8z M549.3,16.8h-2.1v-0.7h2.1
		V16.8z M545.1,16.8H543v-0.7h2.1V16.8z M540.9,16.8h-2.1v-0.7h2.1V16.8z M536.7,16.8h-2.1v-0.7h2.1V16.8z M532.5,16.8h-2.1v-0.7
		h2.1V16.8z M528.3,16.8h-2.1v-0.7h2.1V16.8z M524.1,16.8H522v-0.7h2.1V16.8z M519.9,16.8h-2.1v-0.7h2.1V16.8z M515.7,16.8h-2.1
		v-0.7h2.1V16.8z M511.5,16.8h-2.1v-0.7h2.1V16.8z M507.3,16.8h-2.1v-0.7h2.1V16.8z M503.1,16.8H501v-0.7h2.1V16.8z M498.9,16.8
		h-2.1v-0.7h2.1V16.8z M494.7,16.8h-2.1v-0.7h2.1V16.8z M490.5,16.8h-2.1v-0.7h2.1V16.8z M486.3,16.8h-2.1v-0.7h2.1V16.8z
		 M482.1,16.8H480v-0.7h2.1V16.8z M477.9,16.8h-2.1v-0.7h2.1V16.8z M473.7,16.8h-2.1v-0.7h2.1V16.8z M469.5,16.8h-2.1v-0.7h2.1V16.8
		z M465.3,16.8h-2.1v-0.7h2.1V16.8z M461.1,16.8H459v-0.7h2.1V16.8z M456.9,16.8h-2.1v-0.7h2.1V16.8z M452.7,16.8h-2.1v-0.7h2.1
		V16.8z M448.5,16.8h-2.1v-0.7h2.1V16.8z M444.3,16.8h-2.1v-0.7h2.1V16.8z M440.1,16.8h-1.2v-0.7h1.2V16.8z"/>
	<path class="st1" d="M591.3,12.9h-2.1v-0.7h2.1V12.9z M587.1,12.9H585v-0.7h2.1V12.9z M582.9,12.9h-2.1v-0.7h2.1V12.9z M578.7,12.9
		h-2.1v-0.7h2.1V12.9z M574.5,12.9h-2.1v-0.7h2.1V12.9z M570.3,12.9h-2.1v-0.7h2.1V12.9z M566.1,12.9H564v-0.7h2.1V12.9z
		 M561.9,12.9h-2.1v-0.7h2.1V12.9z M557.7,12.9h-2.1v-0.7h2.1V12.9z M553.5,12.9h-2.1v-0.7h2.1V12.9z M549.3,12.9h-2.1v-0.7h2.1
		V12.9z M545.1,12.9H543v-0.7h2.1V12.9z M540.9,12.9h-2.1v-0.7h2.1V12.9z M536.7,12.9h-2.1v-0.7h2.1V12.9z M532.5,12.9h-2.1v-0.7
		h2.1V12.9z M528.3,12.9h-2.1v-0.7h2.1V12.9z M524.1,12.9H522v-0.7h2.1V12.9z M519.9,12.9h-2.1v-0.7h2.1V12.9z M515.7,12.9h-2.1
		v-0.7h2.1V12.9z M511.5,12.9h-2.1v-0.7h2.1V12.9z M507.3,12.9h-2.1v-0.7h2.1V12.9z M503.1,12.9H501v-0.7h2.1V12.9z M498.9,12.9
		h-2.1v-0.7h2.1V12.9z M494.7,12.9h-2.1v-0.7h2.1V12.9z M490.5,12.9h-2.1v-0.7h2.1V12.9z M486.3,12.9h-2.1v-0.7h2.1V12.9z
		 M482.1,12.9H480v-0.7h2.1V12.9z M477.9,12.9h-2.1v-0.7h2.1V12.9z M473.7,12.9h-2.1v-0.7h2.1V12.9z M469.5,12.9h-2.1v-0.7h2.1V12.9
		z M465.3,12.9h-2.1v-0.7h2.1V12.9z M461.1,12.9H459v-0.7h2.1V12.9z M456.9,12.9h-2.1v-0.7h2.1V12.9z M452.7,12.9h-2.1v-0.7h2.1
		V12.9z M448.5,12.9h-2.1v-0.7h2.1V12.9z M444.3,12.9h-2.1v-0.7h2.1V12.9z M440.1,12.9h-1.2v-0.7h1.2V12.9z"/>
	<path class="st1" d="M591.3,12.9h-2.1v-0.7h2.1V12.9z M587.1,12.9H585v-0.7h2.1V12.9z M582.9,12.9h-2.1v-0.7h2.1V12.9z M578.7,12.9
		h-2.1v-0.7h2.1V12.9z M574.5,12.9h-2.1v-0.7h2.1V12.9z M570.3,12.9h-2.1v-0.7h2.1V12.9z M566.1,12.9H564v-0.7h2.1V12.9z
		 M561.9,12.9h-2.1v-0.7h2.1V12.9z M557.7,12.9h-2.1v-0.7h2.1V12.9z M553.5,12.9h-2.1v-0.7h2.1V12.9z M549.3,12.9h-2.1v-0.7h2.1
		V12.9z M545.1,12.9H543v-0.7h2.1V12.9z M540.9,12.9h-2.1v-0.7h2.1V12.9z M536.7,12.9h-2.1v-0.7h2.1V12.9z M532.5,12.9h-2.1v-0.7
		h2.1V12.9z M528.3,12.9h-2.1v-0.7h2.1V12.9z M524.1,12.9H522v-0.7h2.1V12.9z M519.9,12.9h-2.1v-0.7h2.1V12.9z M515.7,12.9h-2.1
		v-0.7h2.1V12.9z M511.5,12.9h-2.1v-0.7h2.1V12.9z M507.3,12.9h-2.1v-0.7h2.1V12.9z M503.1,12.9H501v-0.7h2.1V12.9z M498.9,12.9
		h-2.1v-0.7h2.1V12.9z M494.7,12.9h-2.1v-0.7h2.1V12.9z M490.5,12.9h-2.1v-0.7h2.1V12.9z M486.3,12.9h-2.1v-0.7h2.1V12.9z
		 M482.1,12.9H480v-0.7h2.1V12.9z M477.9,12.9h-2.1v-0.7h2.1V12.9z M473.7,12.9h-2.1v-0.7h2.1V12.9z M469.5,12.9h-2.1v-0.7h2.1V12.9
		z M465.3,12.9h-2.1v-0.7h2.1V12.9z M461.1,12.9H459v-0.7h2.1V12.9z M456.9,12.9h-2.1v-0.7h2.1V12.9z M452.7,12.9h-2.1v-0.7h2.1
		V12.9z M448.5,12.9h-2.1v-0.7h2.1V12.9z M444.3,12.9h-2.1v-0.7h2.1V12.9z M440.1,12.9h-1.2v-0.7h1.2V12.9z"/>
	<polygon class="st0" points="26,7 26,18 8.6,18 23.5,2.9 39.5,2.9 39.5,5.3 25.9,5.3 	"/>
	<polygon class="st0" points="599.3,7 599.3,18 616.7,18 601.9,2.9 585.8,2.9 585.8,5.3 599.4,5.3 	"/>
	<polygon class="st1" points="134.5,17.5 92.8,17.5 92.8,16.8 133.8,16.8 133.8,13.1 92.5,13.1 92.5,8.1 134.2,8.1 134.2,8.7 
		93.1,8.7 93.1,12.5 134.5,12.5 	"/>
	<rect x="37.3" y="11.8" class="st1" width="4.7" height="4.8"/>
	<rect x="47.9" y="11.8" class="st1" width="4.7" height="4.8"/>
	<rect x="58.6" y="11.8" class="st1" width="4.7" height="4.8"/>
	<rect x="69.3" y="11.8" class="st1" width="4.7" height="4.8"/>
	<rect x="80" y="11.8" class="st1" width="4.7" height="4.8"/>
	<path class="st1" d="M433.2,16.8H140.9V8.1h292.3V16.8z M141.6,16.1h291V8.7h-291V16.1z"/>
	<rect x="146" y="10.7" class="st1" width="282.2" height="3.4"/>
	<rect x="438.8" y="6.8" class="st1" width="94.7" height="2.5"/>
</g>
</svg>
