<?xml version="1.0" encoding="utf-8"?>
<!-- Generator: Adobe Illustrator 22.0.0, SVG Export Plug-In . SVG Version: 6.00 Build 0)  -->
<svg version="1.1" id="Capa_1" xmlns="http://www.w3.org/2000/svg" xmlns:xlink="http://www.w3.org/1999/xlink" x="0px" y="0px"
	 viewBox="0 0 644 52" style="enable-background:new 0 0 644 52;" xml:space="preserve">
<style type="text/css">
	.st0{fill:#0B69AF;}
	.st1{fill:#058EC4;}
</style>
<g>
	<polygon class="st0" points="9,5.1 9,36.7 20.8,36.7 33.7,48.9 116.3,48.9 116.3,37.8 41.8,37.8 37.4,41.9 28.4,33.3 17.8,33.3 
		17.8,22.1 36.1,4.7 	"/>
	<polygon class="st0" points="637,48.9 637,20.3 627.3,20.3 627.3,34.6 620.3,41.3 604.5,41.3 600.4,45.2 513.6,45.2 513.6,48.9 	
		"/>
	<rect x="633.4" y="4.4" class="st0" width="3.6" height="15.9"/>
	<path class="st1" d="M116.9,27.3H26v-6L39.9,8.1h77V27.3z M27,26.3h88.8V9.1H40.3L27,21.7V26.3z"/>
	<rect x="26.5" y="30" class="st0" width="89.8" height="1"/>
	<rect x="42.1" y="33.9" class="st0" width="74.2" height="1"/>
	<path class="st0" d="M598.1,43.1H513V19.8h111.7v11.6l-6.1,5.8h-14.4L598.1,43.1z M514.1,42.1h83.5l6.2-5.9h14.4l5.5-5.2V20.8
		H514.1V42.1z"/>
	<g>
		<line class="st1" x1="517.7" y1="23.7" x2="620.6" y2="23.7"/>
		<rect x="517.7" y="23.2" class="st0" width="102.9" height="1"/>
	</g>
	<g>
		<line class="st1" x1="517.7" y1="28.5" x2="620.6" y2="28.5"/>
		<rect x="517.7" y="28" class="st0" width="102.9" height="1"/>
	</g>
	<g>
		<polygon class="st1" points="517.7,34.6 517.7,39.8 593.7,39.8 600.1,33.6 517.7,33.6 		"/>
		<path class="st0" d="M593.9,40.3h-76.7v-7.2h84.3L593.9,40.3z M518.2,39.3h75.2l5.4-5.1h-80.6V39.3z"/>
	</g>
	<polygon class="st0" points="513.8,48.9 502.1,39 127.5,39 116.1,48.7 115.4,48 127.1,38 502.5,38 514.5,48.1 	"/>
	<rect x="621.1" y="8" class="st1" width="9.6" height="9.1"/>
	<rect x="605.6" y="8" class="st1" width="9.6" height="9.1"/>
	<rect x="590" y="8" class="st1" width="9.6" height="9.1"/>
	<rect x="574.5" y="8" class="st1" width="9.6" height="9.1"/>
	<rect x="558.9" y="8" class="st1" width="9.6" height="9.1"/>
	<rect x="543.4" y="8" class="st1" width="9.6" height="9.1"/>
	<rect x="527.8" y="8" class="st1" width="9.6" height="9.1"/>
	<rect x="512.3" y="8" class="st1" width="9.6" height="9.1"/>
	<rect x="121.6" y="12.1" class="st0" width="384.2" height="1"/>
	<path class="st1" d="M457.7,30.9h-0.3v-0.7h0.3V30.9z M455.1,30.9h-2.2v-0.7h2.2V30.9z M450.7,30.9h-2.2v-0.7h2.2V30.9z
		 M446.2,30.9h-2.2v-0.7h2.2V30.9z M441.7,30.9h-2.2v-0.7h2.2V30.9z M437.2,30.9h-2.2v-0.7h2.2V30.9z M432.7,30.9h-2.2v-0.7h2.2
		V30.9z M428.2,30.9h-2.2v-0.7h2.2V30.9z M423.7,30.9h-2.2v-0.7h2.2V30.9z M419.2,30.9h-2.2v-0.7h2.2V30.9z M414.7,30.9h-2.2v-0.7
		h2.2V30.9z M410.2,30.9h-2.2v-0.7h2.2V30.9z M405.7,30.9h-2.2v-0.7h2.2V30.9z M401.2,30.9h-2.2v-0.7h2.2V30.9z M396.7,30.9h-2.2
		v-0.7h2.2V30.9z M392.2,30.9h-2.2v-0.7h2.2V30.9z M387.7,30.9h-2.2v-0.7h2.2V30.9z M383.2,30.9h-2.2v-0.7h2.2V30.9z M378.7,30.9
		h-2.2v-0.7h2.2V30.9z M374.2,30.9H372v-0.7h2.2V30.9z M369.7,30.9h-2.2v-0.7h2.2V30.9z M365.2,30.9H363v-0.7h2.2V30.9z M360.7,30.9
		h-2.2v-0.7h2.2V30.9z M356.2,30.9H354v-0.7h2.2V30.9z M351.7,30.9h-2.2v-0.7h2.2V30.9z M347.2,30.9H345v-0.7h2.2V30.9z M342.7,30.9
		h-2.2v-0.7h2.2V30.9z M338.2,30.9H336v-0.7h2.2V30.9z M333.7,30.9h-2.2v-0.7h2.2V30.9z M329.2,30.9H327v-0.7h2.2V30.9z M324.7,30.9
		h-2.2v-0.7h2.2V30.9z M320.2,30.9H318v-0.7h2.2V30.9z M315.7,30.9h-2.2v-0.7h2.2V30.9z M311.2,30.9H309v-0.7h2.2V30.9z M306.7,30.9
		h-2.2v-0.7h2.2V30.9z M302.3,30.9H300v-0.7h2.2V30.9z M297.8,30.9h-2.2v-0.7h2.2V30.9z M293.3,30.9H291v-0.7h2.2V30.9z M288.8,30.9
		h-2.2v-0.7h2.2V30.9z M284.3,30.9H282v-0.7h2.2V30.9z M279.8,30.9h-2.2v-0.7h2.2V30.9z M275.3,30.9H273v-0.7h2.2V30.9z M270.8,30.9
		h-2.2v-0.7h2.2V30.9z M266.3,30.9H264v-0.7h2.2V30.9z M261.8,30.9h-2.2v-0.7h2.2V30.9z M257.3,30.9H255v-0.7h2.2V30.9z M252.8,30.9
		h-2.2v-0.7h2.2V30.9z M248.3,30.9H246v-0.7h2.2V30.9z M243.8,30.9h-2.2v-0.7h2.2V30.9z M239.3,30.9H237v-0.7h2.2V30.9z M234.8,30.9
		h-2.2v-0.7h2.2V30.9z M230.3,30.9H228v-0.7h2.2V30.9z M225.8,30.9h-2.2v-0.7h2.2V30.9z M221.3,30.9h-2.2v-0.7h2.2V30.9z
		 M216.8,30.9h-2.2v-0.7h2.2V30.9z M212.3,30.9h-2.2v-0.7h2.2V30.9z M207.8,30.9h-2.2v-0.7h2.2V30.9z M203.3,30.9h-2.2v-0.7h2.2
		V30.9z M198.8,30.9h-2.2v-0.7h2.2V30.9z M194.3,30.9h-2.2v-0.7h2.2V30.9z M189.8,30.9h-2.2v-0.7h2.2V30.9z M185.3,30.9h-2.2v-0.7
		h2.2V30.9z M180.8,30.9h-2.2v-0.7h2.2V30.9z M176.3,30.9h-2.2v-0.7h2.2V30.9z M171.8,30.9h-2.2v-0.7h2.2V30.9z"/>
	<path class="st1" d="M457.7,25.4h-0.3v-0.7h0.3V25.4z M455.1,25.4h-2.2v-0.7h2.2V25.4z M450.7,25.4h-2.2v-0.7h2.2V25.4z
		 M446.2,25.4h-2.2v-0.7h2.2V25.4z M441.7,25.4h-2.2v-0.7h2.2V25.4z M437.2,25.4h-2.2v-0.7h2.2V25.4z M432.7,25.4h-2.2v-0.7h2.2
		V25.4z M428.2,25.4h-2.2v-0.7h2.2V25.4z M423.7,25.4h-2.2v-0.7h2.2V25.4z M419.2,25.4h-2.2v-0.7h2.2V25.4z M414.7,25.4h-2.2v-0.7
		h2.2V25.4z M410.2,25.4h-2.2v-0.7h2.2V25.4z M405.7,25.4h-2.2v-0.7h2.2V25.4z M401.2,25.4h-2.2v-0.7h2.2V25.4z M396.7,25.4h-2.2
		v-0.7h2.2V25.4z M392.2,25.4h-2.2v-0.7h2.2V25.4z M387.7,25.4h-2.2v-0.7h2.2V25.4z M383.2,25.4h-2.2v-0.7h2.2V25.4z M378.7,25.4
		h-2.2v-0.7h2.2V25.4z M374.2,25.4H372v-0.7h2.2V25.4z M369.7,25.4h-2.2v-0.7h2.2V25.4z M365.2,25.4H363v-0.7h2.2V25.4z M360.7,25.4
		h-2.2v-0.7h2.2V25.4z M356.2,25.4H354v-0.7h2.2V25.4z M351.7,25.4h-2.2v-0.7h2.2V25.4z M347.2,25.4H345v-0.7h2.2V25.4z M342.7,25.4
		h-2.2v-0.7h2.2V25.4z M338.2,25.4H336v-0.7h2.2V25.4z M333.7,25.4h-2.2v-0.7h2.2V25.4z M329.2,25.4H327v-0.7h2.2V25.4z M324.7,25.4
		h-2.2v-0.7h2.2V25.4z M320.2,25.4H318v-0.7h2.2V25.4z M315.7,25.4h-2.2v-0.7h2.2V25.4z M311.2,25.4H309v-0.7h2.2V25.4z M306.7,25.4
		h-2.2v-0.7h2.2V25.4z M302.3,25.4H300v-0.7h2.2V25.4z M297.8,25.4h-2.2v-0.7h2.2V25.4z M293.3,25.4H291v-0.7h2.2V25.4z M288.8,25.4
		h-2.2v-0.7h2.2V25.4z M284.3,25.4H282v-0.7h2.2V25.4z M279.8,25.4h-2.2v-0.7h2.2V25.4z M275.3,25.4H273v-0.7h2.2V25.4z M270.8,25.4
		h-2.2v-0.7h2.2V25.4z M266.3,25.4H264v-0.7h2.2V25.4z M261.8,25.4h-2.2v-0.7h2.2V25.4z M257.3,25.4H255v-0.7h2.2V25.4z M252.8,25.4
		h-2.2v-0.7h2.2V25.4z M248.3,25.4H246v-0.7h2.2V25.4z M243.8,25.4h-2.2v-0.7h2.2V25.4z M239.3,25.4H237v-0.7h2.2V25.4z M234.8,25.4
		h-2.2v-0.7h2.2V25.4z M230.3,25.4H228v-0.7h2.2V25.4z M225.8,25.4h-2.2v-0.7h2.2V25.4z M221.3,25.4h-2.2v-0.7h2.2V25.4z
		 M216.8,25.4h-2.2v-0.7h2.2V25.4z M212.3,25.4h-2.2v-0.7h2.2V25.4z M207.8,25.4h-2.2v-0.7h2.2V25.4z M203.3,25.4h-2.2v-0.7h2.2
		V25.4z M198.8,25.4h-2.2v-0.7h2.2V25.4z M194.3,25.4h-2.2v-0.7h2.2V25.4z M189.8,25.4h-2.2v-0.7h2.2V25.4z M185.3,25.4h-2.2v-0.7
		h2.2V25.4z M180.8,25.4h-2.2v-0.7h2.2V25.4z M176.3,25.4h-2.2v-0.7h2.2V25.4z M171.8,25.4h-2.2v-0.7h2.2V25.4z"/>
	<path class="st1" d="M457.7,19.9h-0.3v-0.7h0.3V19.9z M455.1,19.9h-2.2v-0.7h2.2V19.9z M450.7,19.9h-2.2v-0.7h2.2V19.9z
		 M446.2,19.9h-2.2v-0.7h2.2V19.9z M441.7,19.9h-2.2v-0.7h2.2V19.9z M437.2,19.9h-2.2v-0.7h2.2V19.9z M432.7,19.9h-2.2v-0.7h2.2
		V19.9z M428.2,19.9h-2.2v-0.7h2.2V19.9z M423.7,19.9h-2.2v-0.7h2.2V19.9z M419.2,19.9h-2.2v-0.7h2.2V19.9z M414.7,19.9h-2.2v-0.7
		h2.2V19.9z M410.2,19.9h-2.2v-0.7h2.2V19.9z M405.7,19.9h-2.2v-0.7h2.2V19.9z M401.2,19.9h-2.2v-0.7h2.2V19.9z M396.7,19.9h-2.2
		v-0.7h2.2V19.9z M392.2,19.9h-2.2v-0.7h2.2V19.9z M387.7,19.9h-2.2v-0.7h2.2V19.9z M383.2,19.9h-2.2v-0.7h2.2V19.9z M378.7,19.9
		h-2.2v-0.7h2.2V19.9z M374.2,19.9H372v-0.7h2.2V19.9z M369.7,19.9h-2.2v-0.7h2.2V19.9z M365.2,19.9H363v-0.7h2.2V19.9z M360.7,19.9
		h-2.2v-0.7h2.2V19.9z M356.2,19.9H354v-0.7h2.2V19.9z M351.7,19.9h-2.2v-0.7h2.2V19.9z M347.2,19.9H345v-0.7h2.2V19.9z M342.7,19.9
		h-2.2v-0.7h2.2V19.9z M338.2,19.9H336v-0.7h2.2V19.9z M333.7,19.9h-2.2v-0.7h2.2V19.9z M329.2,19.9H327v-0.7h2.2V19.9z M324.7,19.9
		h-2.2v-0.7h2.2V19.9z M320.2,19.9H318v-0.7h2.2V19.9z M315.7,19.9h-2.2v-0.7h2.2V19.9z M311.2,19.9H309v-0.7h2.2V19.9z M306.7,19.9
		h-2.2v-0.7h2.2V19.9z M302.3,19.9H300v-0.7h2.2V19.9z M297.8,19.9h-2.2v-0.7h2.2V19.9z M293.3,19.9H291v-0.7h2.2V19.9z M288.8,19.9
		h-2.2v-0.7h2.2V19.9z M284.3,19.9H282v-0.7h2.2V19.9z M279.8,19.9h-2.2v-0.7h2.2V19.9z M275.3,19.9H273v-0.7h2.2V19.9z M270.8,19.9
		h-2.2v-0.7h2.2V19.9z M266.3,19.9H264v-0.7h2.2V19.9z M261.8,19.9h-2.2v-0.7h2.2V19.9z M257.3,19.9H255v-0.7h2.2V19.9z M252.8,19.9
		h-2.2v-0.7h2.2V19.9z M248.3,19.9H246v-0.7h2.2V19.9z M243.8,19.9h-2.2v-0.7h2.2V19.9z M239.3,19.9H237v-0.7h2.2V19.9z M234.8,19.9
		h-2.2v-0.7h2.2V19.9z M230.3,19.9H228v-0.7h2.2V19.9z M225.8,19.9h-2.2v-0.7h2.2V19.9z M221.3,19.9h-2.2v-0.7h2.2V19.9z
		 M216.8,19.9h-2.2v-0.7h2.2V19.9z M212.3,19.9h-2.2v-0.7h2.2V19.9z M207.8,19.9h-2.2v-0.7h2.2V19.9z M203.3,19.9h-2.2v-0.7h2.2
		V19.9z M198.8,19.9h-2.2v-0.7h2.2V19.9z M194.3,19.9h-2.2v-0.7h2.2V19.9z M189.8,19.9h-2.2v-0.7h2.2V19.9z M185.3,19.9h-2.2v-0.7
		h2.2V19.9z M180.8,19.9h-2.2v-0.7h2.2V19.9z M176.3,19.9h-2.2v-0.7h2.2V19.9z M171.8,19.9h-2.2v-0.7h2.2V19.9z"/>
	<path class="st0" d="M507.4,34.8h-44V15.7h44V34.8z M463.7,34.4H507V16.1h-43.3V34.4z"/>
	<path class="st1" d="M466.4,32.5h-0.7v-1.6h0.7V32.5z M466.4,28.7h-0.7v-2.1h0.7V28.7z M466.4,24.4h-0.7v-2.1h0.7V24.4z
		 M466.4,20.2h-0.7V18h0.7V20.2z"/>
	<path class="st1" d="M469.4,32.5h-0.7v-1.6h0.7V32.5z M469.4,28.7h-0.7v-2.1h0.7V28.7z M469.4,24.4h-0.7v-2.1h0.7V24.4z
		 M469.4,20.2h-0.7V18h0.7V20.2z"/>
	<path class="st1" d="M472.4,32.5h-0.7v-1.6h0.7V32.5z M472.4,28.7h-0.7v-2.1h0.7V28.7z M472.4,24.4h-0.7v-2.1h0.7V24.4z
		 M472.4,20.2h-0.7V18h0.7V20.2z"/>
	<path class="st1" d="M475.4,32.5h-0.7v-1.6h0.7V32.5z M475.4,28.7h-0.7v-2.1h0.7V28.7z M475.4,24.4h-0.7v-2.1h0.7V24.4z
		 M475.4,20.2h-0.7V18h0.7V20.2z"/>
	<path class="st1" d="M478.4,32.5h-0.7v-1.6h0.7V32.5z M478.4,28.7h-0.7v-2.1h0.7V28.7z M478.4,24.4h-0.7v-2.1h0.7V24.4z
		 M478.4,20.2h-0.7V18h0.7V20.2z"/>
	<path class="st1" d="M481.3,32.5h-0.7v-1.6h0.7V32.5z M481.3,28.7h-0.7v-2.1h0.7V28.7z M481.3,24.4h-0.7v-2.1h0.7V24.4z
		 M481.3,20.2h-0.7V18h0.7V20.2z"/>
	<path class="st1" d="M484.3,32.5h-0.7v-1.6h0.7V32.5z M484.3,28.7h-0.7v-2.1h0.7V28.7z M484.3,24.4h-0.7v-2.1h0.7V24.4z
		 M484.3,20.2h-0.7V18h0.7V20.2z"/>
	<path class="st1" d="M487.3,32.5h-0.7v-1.6h0.7V32.5z M487.3,28.7h-0.7v-2.1h0.7V28.7z M487.3,24.4h-0.7v-2.1h0.7V24.4z
		 M487.3,20.2h-0.7V18h0.7V20.2z"/>
	<path class="st1" d="M490.3,32.5h-0.7v-1.6h0.7V32.5z M490.3,28.7h-0.7v-2.1h0.7V28.7z M490.3,24.4h-0.7v-2.1h0.7V24.4z
		 M490.3,20.2h-0.7V18h0.7V20.2z"/>
	<path class="st1" d="M493.3,32.5h-0.7v-1.6h0.7V32.5z M493.3,28.7h-0.7v-2.1h0.7V28.7z M493.3,24.4h-0.7v-2.1h0.7V24.4z
		 M493.3,20.2h-0.7V18h0.7V20.2z"/>
	<path class="st1" d="M496.3,32.5h-0.7v-1.6h0.7V32.5z M496.3,28.7h-0.7v-2.1h0.7V28.7z M496.3,24.4h-0.7v-2.1h0.7V24.4z
		 M496.3,20.2h-0.7V18h0.7V20.2z"/>
	<path class="st1" d="M499.3,32.5h-0.7v-1.6h0.7V32.5z M499.3,28.7h-0.7v-2.1h0.7V28.7z M499.3,24.4h-0.7v-2.1h0.7V24.4z
		 M499.3,20.2h-0.7V18h0.7V20.2z"/>
	<path class="st1" d="M502.3,32.5h-0.7v-1.6h0.7V32.5z M502.3,28.7h-0.7v-2.1h0.7V28.7z M502.3,24.4h-0.7v-2.1h0.7V24.4z
		 M502.3,20.2h-0.7V18h0.7V20.2z"/>
	<path class="st1" d="M505.3,32.5h-0.7v-1.6h0.7V32.5z M505.3,28.7h-0.7v-2.1h0.7V28.7z M505.3,24.4h-0.7v-2.1h0.7V24.4z
		 M505.3,20.2h-0.7V18h0.7V20.2z"/>
	<polygon class="st1" points="166.3,30.9 121.6,30.9 121.6,30.2 165.5,30.2 165.5,25.4 121.2,25.4 121.2,19.2 165.9,19.2 
		165.9,19.9 122,19.9 122,24.7 166.3,24.7 	"/>
	<polygon class="st1" points="112.8,11.1 112.8,23 32.1,23 43.9,11.8 	"/>
</g>
</svg>
