<?xml version="1.0" encoding="utf-8"?>
<!-- Generator: Adobe Illustrator 22.0.0, SVG Export Plug-In . SVG Version: 6.00 Build 0)  -->
<svg version="1.1" xmlns="http://www.w3.org/2000/svg" xmlns:xlink="http://www.w3.org/1999/xlink" x="0px" y="0px"
	 viewBox="0 0 682 414" style="enable-background:new 0 0 682 414;" xml:space="preserve">
<style type="text/css">
	.st0{opacity:0.2;}
	.st1{fill:#00009B;}
	.st2{fill:url(#SVGID_1_);}
	.st3{fill:#000046;}
	.st4{fill:#0B69AF;}
	.st5{fill:#058EC4;}
	.st6{fill:#FFFF00;}
	.st7{fill:none;stroke:#FFFFFF;stroke-width:1.2838;stroke-miterlimit:10;}
	.st8{fill:#FFFFFF;}
	.st9{fill-rule:evenodd;clip-rule:evenodd;fill:#C9E9EB;}
	.st10{fill-rule:evenodd;clip-rule:evenodd;fill:#B2DBEF;}
	.st11{fill-rule:evenodd;clip-rule:evenodd;fill:#95C8E9;}
	.st12{fill-rule:evenodd;clip-rule:evenodd;fill:#9A89AC;}
	.st13{fill-rule:evenodd;clip-rule:evenodd;fill:#88779A;}
	.st14{fill-rule:evenodd;clip-rule:evenodd;fill:#A5B0D2;}
	.st15{fill-rule:evenodd;clip-rule:evenodd;fill:#B2BBD9;}
	.st16{fill-rule:evenodd;clip-rule:evenodd;fill:#C0E3EF;}
	.st17{fill-rule:evenodd;clip-rule:evenodd;fill:#C4E7E9;}
	.st18{fill-rule:evenodd;clip-rule:evenodd;fill:#B3D4ED;}
	.st19{fill-rule:evenodd;clip-rule:evenodd;fill:#AABEE0;}
	.st20{fill-rule:evenodd;clip-rule:evenodd;fill:#EDF7F8;}
	.st21{fill-rule:evenodd;clip-rule:evenodd;fill:#542F31;}
	.st22{fill-rule:evenodd;clip-rule:evenodd;fill:#775656;}
	.st23{fill-rule:evenodd;clip-rule:evenodd;fill:#F0B276;}
	.st24{fill-rule:evenodd;clip-rule:evenodd;fill:#F6EFB5;}
	.st25{fill-rule:evenodd;clip-rule:evenodd;fill:#EE9146;}
	.st26{fill-rule:evenodd;clip-rule:evenodd;fill:#2F4553;}
	.st27{fill-rule:evenodd;clip-rule:evenodd;fill:#4E626F;}
	.st28{fill-rule:evenodd;clip-rule:evenodd;fill:#002336;}
	.st29{fill-rule:evenodd;clip-rule:evenodd;fill:#A0B8DD;}
	.st30{fill-rule:evenodd;clip-rule:evenodd;fill:#7D95C3;}
	.st31{fill-rule:evenodd;clip-rule:evenodd;fill:#58595B;}
	.st32{fill-rule:evenodd;clip-rule:evenodd;fill:#E6E7E8;}
	.st33{fill-rule:evenodd;clip-rule:evenodd;fill:url(#SVGID_4_);}
	.st34{fill-rule:evenodd;clip-rule:evenodd;fill:#D1D3D4;}
	.st35{fill-rule:evenodd;clip-rule:evenodd;fill:#FFFFFF;}
	.st36{fill-rule:evenodd;clip-rule:evenodd;fill:#808285;}
	.st37{fill-rule:evenodd;clip-rule:evenodd;fill:#F17D43;}
	.st38{fill-rule:evenodd;clip-rule:evenodd;fill:#414042;}
	.st39{fill-rule:evenodd;clip-rule:evenodd;fill:#583A29;}
	.st40{fill-rule:evenodd;clip-rule:evenodd;fill:#320000;}
	.st41{fill-rule:evenodd;clip-rule:evenodd;fill:#DE8435;}
	.st42{fill-rule:evenodd;clip-rule:evenodd;fill:#BED7D7;}
	.st43{fill-rule:evenodd;clip-rule:evenodd;fill:#53BA63;}
	.st44{fill-rule:evenodd;clip-rule:evenodd;fill:#231F20;}
	.st45{fill-rule:evenodd;clip-rule:evenodd;fill:#9F4515;}
	.st46{fill-rule:evenodd;clip-rule:evenodd;fill:#8D6550;}
	.st47{fill:#007070;}
	.st48{fill:#5A8229;}
	.st49{fill:url(#SVGID_5_);}
</style>
<g id="Layer_2">
	<g class="st0">
		<rect x="-1255" y="46.4" class="st1" width="636" height="315.6"/>
		<linearGradient id="SVGID_1_" gradientUnits="userSpaceOnUse" x1="-1255.8516" y1="204.1466" x2="-618.0768" y2="204.1466">
			<stop  offset="0.1341" style="stop-color:#015489"/>
			<stop  offset="0.3156" style="stop-color:#016BFF"/>
			<stop  offset="0.5531" style="stop-color:#003EAE"/>
			<stop  offset="1" style="stop-color:#0168FF"/>
		</linearGradient>
		<path class="st2" d="M-618.1,362.8h-637.8V45.5h637.8V362.8z M-1254.1,361h634.2V47.2h-634.2V361z"/>
	</g>
	<rect x="-1312.1" y="-30" class="st3" width="766.2" height="489"/>
	<path class="st4" d="M-649,46.6V32.8h-61.4V25h70l21.6,21.4L-649,46.6z M-709.2,31.6h61.4v13.8l25.9-0.2l-19.1-18.9h-68.3V31.6z"/>
	<path class="st4" d="M-1225.5,46.6l-30.3-0.2l21.6-21.4h70v7.8h-61.4V46.6z M-1252.7,45.2l25.9,0.2V31.6h61.4v-5.3h-68.3
		L-1252.7,45.2z"/>
	<rect x="-1164.5" y="28.5" class="st4" width="454.7" height="1.3"/>
	<path class="st5" d="M-653.8,41.8h-2.1v-0.7h2.1V41.8z M-658.1,41.8h-2.1v-0.7h2.1V41.8z M-662.3,41.8h-2.1v-0.7h2.1V41.8z
		 M-666.6,41.8h-2.1v-0.7h2.1V41.8z M-670.9,41.8h-2.1v-0.7h2.1V41.8z M-675.2,41.8h-2.1v-0.7h2.1V41.8z M-679.4,41.8h-2.1v-0.7h2.1
		V41.8z M-683.7,41.8h-2.1v-0.7h2.1V41.8z M-688,41.8h-2.1v-0.7h2.1V41.8z M-692.3,41.8h-2.1v-0.7h2.1V41.8z M-696.6,41.8h-2.1v-0.7
		h2.1V41.8z M-700.8,41.8h-2.1v-0.7h2.1V41.8z M-705.1,41.8h-2.1v-0.7h2.1V41.8z M-709.4,41.8h-2.1v-0.7h2.1V41.8z M-713.7,41.8
		h-2.1v-0.7h2.1V41.8z M-717.9,41.8h-2.1v-0.7h2.1V41.8z M-722.2,41.8h-2.1v-0.7h2.1V41.8z M-726.5,41.8h-2.1v-0.7h2.1V41.8z
		 M-730.8,41.8h-2.1v-0.7h2.1V41.8z M-735,41.8h-2.1v-0.7h2.1V41.8z M-739.3,41.8h-2.1v-0.7h2.1V41.8z M-743.6,41.8h-2.1v-0.7h2.1
		V41.8z M-747.9,41.8h-2.1v-0.7h2.1V41.8z M-752.2,41.8h-2.1v-0.7h2.1V41.8z M-756.4,41.8h-2.1v-0.7h2.1V41.8z M-760.7,41.8h-2.1
		v-0.7h2.1V41.8z M-765,41.8h-2.1v-0.7h2.1V41.8z M-769.3,41.8h-2.1v-0.7h2.1V41.8z M-773.5,41.8h-2.1v-0.7h2.1V41.8z M-777.8,41.8
		h-2.1v-0.7h2.1V41.8z M-782.1,41.8h-2.1v-0.7h2.1V41.8z M-786.4,41.8h-2.1v-0.7h2.1V41.8z M-790.6,41.8h-2.1v-0.7h2.1V41.8z
		 M-794.9,41.8h-2.1v-0.7h2.1V41.8z M-799.2,41.8h-2.1v-0.7h2.1V41.8z M-803.5,41.8h-2.1v-0.7h2.1V41.8z M-807.8,41.8h-1.2v-0.7h1.2
		V41.8z"/>
	<path class="st5" d="M-653.8,37.9h-2.1v-0.7h2.1V37.9z M-658.1,37.9h-2.1v-0.7h2.1V37.9z M-662.3,37.9h-2.1v-0.7h2.1V37.9z
		 M-666.6,37.9h-2.1v-0.7h2.1V37.9z M-670.9,37.9h-2.1v-0.7h2.1V37.9z M-675.2,37.9h-2.1v-0.7h2.1V37.9z M-679.4,37.9h-2.1v-0.7h2.1
		V37.9z M-683.7,37.9h-2.1v-0.7h2.1V37.9z M-688,37.9h-2.1v-0.7h2.1V37.9z M-692.3,37.9h-2.1v-0.7h2.1V37.9z M-696.6,37.9h-2.1v-0.7
		h2.1V37.9z M-700.8,37.9h-2.1v-0.7h2.1V37.9z M-705.1,37.9h-2.1v-0.7h2.1V37.9z M-709.4,37.9h-2.1v-0.7h2.1V37.9z M-713.7,37.9
		h-2.1v-0.7h2.1V37.9z M-717.9,37.9h-2.1v-0.7h2.1V37.9z M-722.2,37.9h-2.1v-0.7h2.1V37.9z M-726.5,37.9h-2.1v-0.7h2.1V37.9z
		 M-730.8,37.9h-2.1v-0.7h2.1V37.9z M-735,37.9h-2.1v-0.7h2.1V37.9z M-739.3,37.9h-2.1v-0.7h2.1V37.9z M-743.6,37.9h-2.1v-0.7h2.1
		V37.9z M-747.9,37.9h-2.1v-0.7h2.1V37.9z M-752.2,37.9h-2.1v-0.7h2.1V37.9z M-756.4,37.9h-2.1v-0.7h2.1V37.9z M-760.7,37.9h-2.1
		v-0.7h2.1V37.9z M-765,37.9h-2.1v-0.7h2.1V37.9z M-769.3,37.9h-2.1v-0.7h2.1V37.9z M-773.5,37.9h-2.1v-0.7h2.1V37.9z M-777.8,37.9
		h-2.1v-0.7h2.1V37.9z M-782.1,37.9h-2.1v-0.7h2.1V37.9z M-786.4,37.9h-2.1v-0.7h2.1V37.9z M-790.6,37.9h-2.1v-0.7h2.1V37.9z
		 M-794.9,37.9h-2.1v-0.7h2.1V37.9z M-799.2,37.9h-2.1v-0.7h2.1V37.9z M-803.5,37.9h-2.1v-0.7h2.1V37.9z M-807.8,37.9h-1.2v-0.7h1.2
		V37.9z"/>
	<path class="st5" d="M-653.8,37.9h-2.1v-0.7h2.1V37.9z M-658.1,37.9h-2.1v-0.7h2.1V37.9z M-662.3,37.9h-2.1v-0.7h2.1V37.9z
		 M-666.6,37.9h-2.1v-0.7h2.1V37.9z M-670.9,37.9h-2.1v-0.7h2.1V37.9z M-675.2,37.9h-2.1v-0.7h2.1V37.9z M-679.4,37.9h-2.1v-0.7h2.1
		V37.9z M-683.7,37.9h-2.1v-0.7h2.1V37.9z M-688,37.9h-2.1v-0.7h2.1V37.9z M-692.3,37.9h-2.1v-0.7h2.1V37.9z M-696.6,37.9h-2.1v-0.7
		h2.1V37.9z M-700.8,37.9h-2.1v-0.7h2.1V37.9z M-705.1,37.9h-2.1v-0.7h2.1V37.9z M-709.4,37.9h-2.1v-0.7h2.1V37.9z M-713.7,37.9
		h-2.1v-0.7h2.1V37.9z M-717.9,37.9h-2.1v-0.7h2.1V37.9z M-722.2,37.9h-2.1v-0.7h2.1V37.9z M-726.5,37.9h-2.1v-0.7h2.1V37.9z
		 M-730.8,37.9h-2.1v-0.7h2.1V37.9z M-735,37.9h-2.1v-0.7h2.1V37.9z M-739.3,37.9h-2.1v-0.7h2.1V37.9z M-743.6,37.9h-2.1v-0.7h2.1
		V37.9z M-747.9,37.9h-2.1v-0.7h2.1V37.9z M-752.2,37.9h-2.1v-0.7h2.1V37.9z M-756.4,37.9h-2.1v-0.7h2.1V37.9z M-760.7,37.9h-2.1
		v-0.7h2.1V37.9z M-765,37.9h-2.1v-0.7h2.1V37.9z M-769.3,37.9h-2.1v-0.7h2.1V37.9z M-773.5,37.9h-2.1v-0.7h2.1V37.9z M-777.8,37.9
		h-2.1v-0.7h2.1V37.9z M-782.1,37.9h-2.1v-0.7h2.1V37.9z M-786.4,37.9h-2.1v-0.7h2.1V37.9z M-790.6,37.9h-2.1v-0.7h2.1V37.9z
		 M-794.9,37.9h-2.1v-0.7h2.1V37.9z M-799.2,37.9h-2.1v-0.7h2.1V37.9z M-803.5,37.9h-2.1v-0.7h2.1V37.9z M-807.8,37.9h-1.2v-0.7h1.2
		V37.9z"/>
	<polygon class="st4" points="-1229.3,32 -1229.3,43 -1246.9,43 -1231.8,27.9 -1215.5,27.9 -1215.5,30.3 -1229.3,30.3 	"/>
	<polygon class="st4" points="-645.7,32 -645.7,43 -628,43 -643.1,27.9 -659.4,27.9 -659.4,30.3 -645.6,30.3 	"/>
	<path class="st4" d="M-618.5,362.5h-637V45.8h637V362.5z M-1254.4,361.4h635V46.9h-635V361.4z"/>
	<polygon class="st4" points="-1228.5,362.7 -1228.5,394.2 -1217.3,394.2 -1205,406.5 -1126.4,406.5 -1126.4,395.3 -1197.3,395.3 
		-1201.4,399.4 -1210.1,390.8 -1220.1,390.8 -1220.1,379.7 -1202.7,362.2 	"/>
	<polygon class="st4" points="-631.2,406.5 -631.2,377.9 -640.4,377.9 -640.4,392.2 -647.1,398.8 -662.2,398.8 -666.1,402.7 
		-748.6,402.7 -748.6,406.5 	"/>
	<rect x="-634.7" y="361.9" class="st4" width="3.4" height="15.9"/>
	<path class="st5" d="M-1125.9,384.9h-86.5v-6l13.2-13.2h73.3V384.9z M-1211.3,383.8h84.4v-17.2h-71.8l-12.6,12.6V383.8z"/>
	<rect x="-1211.8" y="387.5" class="st4" width="85.4" height="1"/>
	<rect x="-1197" y="391.5" class="st4" width="70.6" height="1"/>
	<path class="st4" d="M-668.2,400.7h-80.9v-23.3h106.3V389l-5.8,5.8h-13.7L-668.2,400.7z M-748.1,399.6h79.4l5.9-5.9h13.7l5.2-5.2
		v-10.2h-104.2V399.6z"/>
	<g>
		<line class="st5" x1="-744.7" y1="381.3" x2="-646.9" y2="381.3"/>
		<rect x="-744.7" y="380.8" class="st4" width="97.8" height="1"/>
	</g>
	<g>
		<line class="st5" x1="-744.7" y1="386.1" x2="-646.9" y2="386.1"/>
		<rect x="-744.7" y="385.6" class="st4" width="97.8" height="1"/>
	</g>
	<g>
		<polygon class="st5" points="-744.7,392.2 -744.7,397.3 -672.4,397.3 -666.3,391.2 -744.7,391.2 		"/>
		<path class="st4" d="M-672.2,397.8h-73v-7.2h80.1L-672.2,397.8z M-744.2,396.8h71.5l5.1-5.1h-76.6V396.8z"/>
	</g>
	<polygon class="st4" points="-748.4,406.4 -759.5,396.5 -1115.8,396.5 -1126.6,406.3 -1127.3,405.5 -1116.2,395.5 -759.1,395.5 
		-747.7,405.7 	"/>
	<rect x="-646.3" y="365.6" class="st5" width="9.1" height="9.1"/>
	<rect x="-661.1" y="365.6" class="st5" width="9.1" height="9.1"/>
	<rect x="-675.9" y="365.6" class="st5" width="9.1" height="9.1"/>
	<rect x="-690.7" y="365.6" class="st5" width="9.1" height="9.1"/>
	<rect x="-705.5" y="365.6" class="st5" width="9.1" height="9.1"/>
	<rect x="-720.3" y="365.6" class="st5" width="9.1" height="9.1"/>
	<rect x="-735.1" y="365.6" class="st5" width="9.1" height="9.1"/>
	<rect x="-749.9" y="365.6" class="st5" width="9.1" height="9.1"/>
	<path class="st5" d="M-1237.4,64.2h-9.7v-9.7h9.7V64.2z M-1246.5,63.6h8.5v-8.5h-8.5V63.6z"/>
	<rect x="-1244.6" y="57.1" class="st5" width="4.5" height="4.5"/>
	<path class="st5" d="M-626.4,64.2h-9.7v-9.7h9.7V64.2z M-635.5,63.6h8.5v-8.5h-8.5V63.6z"/>
	<rect x="-633.5" y="57.1" class="st5" width="4.5" height="4.5"/>
	<path class="st5" d="M-1237.4,351.8h-9.7v-9.7h9.7V351.8z M-1246.5,351.2h8.5v-8.5h-8.5V351.2z"/>
	<rect x="-1244.6" y="344.7" class="st5" width="4.5" height="4.5"/>
	<path class="st5" d="M-626.4,351.8h-9.7v-9.7h9.7V351.8z M-635.5,351.2h8.5v-8.5h-8.5V351.2z"/>
	<rect x="-633.5" y="344.7" class="st5" width="4.5" height="4.5"/>
	<rect x="-1121.4" y="369.6" class="st4" width="365.4" height="1"/>
	<polygon class="st4" points="-1232.9,370.1 -1261.5,370.1 -1261.5,308.2 -1265.7,312.5 -1265.7,373.4 -1236.6,373.4 	"/>
	<path class="st5" d="M-801.7,388.5h-0.3v-0.7h0.3V388.5z M-804.2,388.5h-2.1v-0.7h2.1V388.5z M-808.5,388.5h-2.1v-0.7h2.1V388.5z
		 M-812.7,388.5h-2.1v-0.7h2.1V388.5z M-817,388.5h-2.1v-0.7h2.1V388.5z M-821.3,388.5h-2.1v-0.7h2.1V388.5z M-825.6,388.5h-2.1
		v-0.7h2.1V388.5z M-829.8,388.5h-2.1v-0.7h2.1V388.5z M-834.1,388.5h-2.1v-0.7h2.1V388.5z M-838.4,388.5h-2.1v-0.7h2.1V388.5z
		 M-842.7,388.5h-2.1v-0.7h2.1V388.5z M-846.9,388.5h-2.1v-0.7h2.1V388.5z M-851.2,388.5h-2.1v-0.7h2.1V388.5z M-855.5,388.5h-2.1
		v-0.7h2.1V388.5z M-859.8,388.5h-2.1v-0.7h2.1V388.5z M-864.1,388.5h-2.1v-0.7h2.1V388.5z M-868.3,388.5h-2.1v-0.7h2.1V388.5z
		 M-872.6,388.5h-2.1v-0.7h2.1V388.5z M-876.9,388.5h-2.1v-0.7h2.1V388.5z M-881.2,388.5h-2.1v-0.7h2.1V388.5z M-885.4,388.5h-2.1
		v-0.7h2.1V388.5z M-889.7,388.5h-2.1v-0.7h2.1V388.5z M-894,388.5h-2.1v-0.7h2.1V388.5z M-898.3,388.5h-2.1v-0.7h2.1V388.5z
		 M-902.5,388.5h-2.1v-0.7h2.1V388.5z M-906.8,388.5h-2.1v-0.7h2.1V388.5z M-911.1,388.5h-2.1v-0.7h2.1V388.5z M-915.4,388.5h-2.1
		v-0.7h2.1V388.5z M-919.6,388.5h-2.1v-0.7h2.1V388.5z M-923.9,388.5h-2.1v-0.7h2.1V388.5z M-928.2,388.5h-2.1v-0.7h2.1V388.5z
		 M-932.5,388.5h-2.1v-0.7h2.1V388.5z M-936.8,388.5h-2.1v-0.7h2.1V388.5z M-941,388.5h-2.1v-0.7h2.1V388.5z M-945.3,388.5h-2.1
		v-0.7h2.1V388.5z M-949.6,388.5h-2.1v-0.7h2.1V388.5z M-953.9,388.5h-2.1v-0.7h2.1V388.5z M-958.1,388.5h-2.1v-0.7h2.1V388.5z
		 M-962.4,388.5h-2.1v-0.7h2.1V388.5z M-966.7,388.5h-2.1v-0.7h2.1V388.5z M-971,388.5h-2.1v-0.7h2.1V388.5z M-975.2,388.5h-2.1
		v-0.7h2.1V388.5z M-979.5,388.5h-2.1v-0.7h2.1V388.5z M-983.8,388.5h-2.1v-0.7h2.1V388.5z M-988.1,388.5h-2.1v-0.7h2.1V388.5z
		 M-992.4,388.5h-2.1v-0.7h2.1V388.5z M-996.6,388.5h-2.1v-0.7h2.1V388.5z M-1000.9,388.5h-2.1v-0.7h2.1V388.5z M-1005.2,388.5h-2.1
		v-0.7h2.1V388.5z M-1009.5,388.5h-2.1v-0.7h2.1V388.5z M-1013.7,388.5h-2.1v-0.7h2.1V388.5z M-1018,388.5h-2.1v-0.7h2.1V388.5z
		 M-1022.3,388.5h-2.1v-0.7h2.1V388.5z M-1026.6,388.5h-2.1v-0.7h2.1V388.5z M-1030.8,388.5h-2.1v-0.7h2.1V388.5z M-1035.1,388.5
		h-2.1v-0.7h2.1V388.5z M-1039.4,388.5h-2.1v-0.7h2.1V388.5z M-1043.7,388.5h-2.1v-0.7h2.1V388.5z M-1048,388.5h-2.1v-0.7h2.1V388.5
		z M-1052.2,388.5h-2.1v-0.7h2.1V388.5z M-1056.5,388.5h-2.1v-0.7h2.1V388.5z M-1060.8,388.5h-2.1v-0.7h2.1V388.5z M-1065.1,388.5
		h-2.1v-0.7h2.1V388.5z M-1069.3,388.5h-2.1v-0.7h2.1V388.5z M-1073.6,388.5h-2.1v-0.7h2.1V388.5z"/>
	<path class="st5" d="M-801.7,383h-0.3v-0.7h0.3V383z M-804.2,383h-2.1v-0.7h2.1V383z M-808.5,383h-2.1v-0.7h2.1V383z M-812.7,383
		h-2.1v-0.7h2.1V383z M-817,383h-2.1v-0.7h2.1V383z M-821.3,383h-2.1v-0.7h2.1V383z M-825.6,383h-2.1v-0.7h2.1V383z M-829.8,383
		h-2.1v-0.7h2.1V383z M-834.1,383h-2.1v-0.7h2.1V383z M-838.4,383h-2.1v-0.7h2.1V383z M-842.7,383h-2.1v-0.7h2.1V383z M-846.9,383
		h-2.1v-0.7h2.1V383z M-851.2,383h-2.1v-0.7h2.1V383z M-855.5,383h-2.1v-0.7h2.1V383z M-859.8,383h-2.1v-0.7h2.1V383z M-864.1,383
		h-2.1v-0.7h2.1V383z M-868.3,383h-2.1v-0.7h2.1V383z M-872.6,383h-2.1v-0.7h2.1V383z M-876.9,383h-2.1v-0.7h2.1V383z M-881.2,383
		h-2.1v-0.7h2.1V383z M-885.4,383h-2.1v-0.7h2.1V383z M-889.7,383h-2.1v-0.7h2.1V383z M-894,383h-2.1v-0.7h2.1V383z M-898.3,383
		h-2.1v-0.7h2.1V383z M-902.5,383h-2.1v-0.7h2.1V383z M-906.8,383h-2.1v-0.7h2.1V383z M-911.1,383h-2.1v-0.7h2.1V383z M-915.4,383
		h-2.1v-0.7h2.1V383z M-919.6,383h-2.1v-0.7h2.1V383z M-923.9,383h-2.1v-0.7h2.1V383z M-928.2,383h-2.1v-0.7h2.1V383z M-932.5,383
		h-2.1v-0.7h2.1V383z M-936.8,383h-2.1v-0.7h2.1V383z M-941,383h-2.1v-0.7h2.1V383z M-945.3,383h-2.1v-0.7h2.1V383z M-949.6,383
		h-2.1v-0.7h2.1V383z M-953.9,383h-2.1v-0.7h2.1V383z M-958.1,383h-2.1v-0.7h2.1V383z M-962.4,383h-2.1v-0.7h2.1V383z M-966.7,383
		h-2.1v-0.7h2.1V383z M-971,383h-2.1v-0.7h2.1V383z M-975.2,383h-2.1v-0.7h2.1V383z M-979.5,383h-2.1v-0.7h2.1V383z M-983.8,383
		h-2.1v-0.7h2.1V383z M-988.1,383h-2.1v-0.7h2.1V383z M-992.4,383h-2.1v-0.7h2.1V383z M-996.6,383h-2.1v-0.7h2.1V383z M-1000.9,383
		h-2.1v-0.7h2.1V383z M-1005.2,383h-2.1v-0.7h2.1V383z M-1009.5,383h-2.1v-0.7h2.1V383z M-1013.7,383h-2.1v-0.7h2.1V383z M-1018,383
		h-2.1v-0.7h2.1V383z M-1022.3,383h-2.1v-0.7h2.1V383z M-1026.6,383h-2.1v-0.7h2.1V383z M-1030.8,383h-2.1v-0.7h2.1V383z
		 M-1035.1,383h-2.1v-0.7h2.1V383z M-1039.4,383h-2.1v-0.7h2.1V383z M-1043.7,383h-2.1v-0.7h2.1V383z M-1048,383h-2.1v-0.7h2.1V383z
		 M-1052.2,383h-2.1v-0.7h2.1V383z M-1056.5,383h-2.1v-0.7h2.1V383z M-1060.8,383h-2.1v-0.7h2.1V383z M-1065.1,383h-2.1v-0.7h2.1
		V383z M-1069.3,383h-2.1v-0.7h2.1V383z M-1073.6,383h-2.1v-0.7h2.1V383z"/>
	<path class="st5" d="M-801.7,377.4h-0.3v-0.7h0.3V377.4z M-804.2,377.4h-2.1v-0.7h2.1V377.4z M-808.5,377.4h-2.1v-0.7h2.1V377.4z
		 M-812.7,377.4h-2.1v-0.7h2.1V377.4z M-817,377.4h-2.1v-0.7h2.1V377.4z M-821.3,377.4h-2.1v-0.7h2.1V377.4z M-825.6,377.4h-2.1
		v-0.7h2.1V377.4z M-829.8,377.4h-2.1v-0.7h2.1V377.4z M-834.1,377.4h-2.1v-0.7h2.1V377.4z M-838.4,377.4h-2.1v-0.7h2.1V377.4z
		 M-842.7,377.4h-2.1v-0.7h2.1V377.4z M-846.9,377.4h-2.1v-0.7h2.1V377.4z M-851.2,377.4h-2.1v-0.7h2.1V377.4z M-855.5,377.4h-2.1
		v-0.7h2.1V377.4z M-859.8,377.4h-2.1v-0.7h2.1V377.4z M-864.1,377.4h-2.1v-0.7h2.1V377.4z M-868.3,377.4h-2.1v-0.7h2.1V377.4z
		 M-872.6,377.4h-2.1v-0.7h2.1V377.4z M-876.9,377.4h-2.1v-0.7h2.1V377.4z M-881.2,377.4h-2.1v-0.7h2.1V377.4z M-885.4,377.4h-2.1
		v-0.7h2.1V377.4z M-889.7,377.4h-2.1v-0.7h2.1V377.4z M-894,377.4h-2.1v-0.7h2.1V377.4z M-898.3,377.4h-2.1v-0.7h2.1V377.4z
		 M-902.5,377.4h-2.1v-0.7h2.1V377.4z M-906.8,377.4h-2.1v-0.7h2.1V377.4z M-911.1,377.4h-2.1v-0.7h2.1V377.4z M-915.4,377.4h-2.1
		v-0.7h2.1V377.4z M-919.6,377.4h-2.1v-0.7h2.1V377.4z M-923.9,377.4h-2.1v-0.7h2.1V377.4z M-928.2,377.4h-2.1v-0.7h2.1V377.4z
		 M-932.5,377.4h-2.1v-0.7h2.1V377.4z M-936.8,377.4h-2.1v-0.7h2.1V377.4z M-941,377.4h-2.1v-0.7h2.1V377.4z M-945.3,377.4h-2.1
		v-0.7h2.1V377.4z M-949.6,377.4h-2.1v-0.7h2.1V377.4z M-953.9,377.4h-2.1v-0.7h2.1V377.4z M-958.1,377.4h-2.1v-0.7h2.1V377.4z
		 M-962.4,377.4h-2.1v-0.7h2.1V377.4z M-966.7,377.4h-2.1v-0.7h2.1V377.4z M-971,377.4h-2.1v-0.7h2.1V377.4z M-975.2,377.4h-2.1
		v-0.7h2.1V377.4z M-979.5,377.4h-2.1v-0.7h2.1V377.4z M-983.8,377.4h-2.1v-0.7h2.1V377.4z M-988.1,377.4h-2.1v-0.7h2.1V377.4z
		 M-992.4,377.4h-2.1v-0.7h2.1V377.4z M-996.6,377.4h-2.1v-0.7h2.1V377.4z M-1000.9,377.4h-2.1v-0.7h2.1V377.4z M-1005.2,377.4h-2.1
		v-0.7h2.1V377.4z M-1009.5,377.4h-2.1v-0.7h2.1V377.4z M-1013.7,377.4h-2.1v-0.7h2.1V377.4z M-1018,377.4h-2.1v-0.7h2.1V377.4z
		 M-1022.3,377.4h-2.1v-0.7h2.1V377.4z M-1026.6,377.4h-2.1v-0.7h2.1V377.4z M-1030.8,377.4h-2.1v-0.7h2.1V377.4z M-1035.1,377.4
		h-2.1v-0.7h2.1V377.4z M-1039.4,377.4h-2.1v-0.7h2.1V377.4z M-1043.7,377.4h-2.1v-0.7h2.1V377.4z M-1048,377.4h-2.1v-0.7h2.1V377.4
		z M-1052.2,377.4h-2.1v-0.7h2.1V377.4z M-1056.5,377.4h-2.1v-0.7h2.1V377.4z M-1060.8,377.4h-2.1v-0.7h2.1V377.4z M-1065.1,377.4
		h-2.1v-0.7h2.1V377.4z M-1069.3,377.4h-2.1v-0.7h2.1V377.4z M-1073.6,377.4h-2.1v-0.7h2.1V377.4z"/>
	<path class="st4" d="M-754.5,392.3h-41.9v-19.1h41.9V392.3z M-796,392h41.2v-18.4H-796V392z"/>
	<path class="st5" d="M-793.5,390h-0.7v-1.6h0.7V390z M-793.5,386.3h-0.7v-2.1h0.7V386.3z M-793.5,382h-0.7v-2.1h0.7V382z
		 M-793.5,377.7h-0.7v-2.1h0.7V377.7z"/>
	<path class="st5" d="M-790.7,390h-0.7v-1.6h0.7V390z M-790.7,386.3h-0.7v-2.1h0.7V386.3z M-790.7,382h-0.7v-2.1h0.7V382z
		 M-790.7,377.7h-0.7v-2.1h0.7V377.7z"/>
	<path class="st5" d="M-787.8,390h-0.7v-1.6h0.7V390z M-787.8,386.3h-0.7v-2.1h0.7V386.3z M-787.8,382h-0.7v-2.1h0.7V382z
		 M-787.8,377.7h-0.7v-2.1h0.7V377.7z"/>
	<path class="st5" d="M-785,390h-0.7v-1.6h0.7V390z M-785,386.3h-0.7v-2.1h0.7V386.3z M-785,382h-0.7v-2.1h0.7V382z M-785,377.7
		h-0.7v-2.1h0.7V377.7z"/>
	<path class="st5" d="M-782.1,390h-0.7v-1.6h0.7V390z M-782.1,386.3h-0.7v-2.1h0.7V386.3z M-782.1,382h-0.7v-2.1h0.7V382z
		 M-782.1,377.7h-0.7v-2.1h0.7V377.7z"/>
	<path class="st5" d="M-779.3,390h-0.7v-1.6h0.7V390z M-779.3,386.3h-0.7v-2.1h0.7V386.3z M-779.3,382h-0.7v-2.1h0.7V382z
		 M-779.3,377.7h-0.7v-2.1h0.7V377.7z"/>
	<path class="st5" d="M-776.4,390h-0.7v-1.6h0.7V390z M-776.4,386.3h-0.7v-2.1h0.7V386.3z M-776.4,382h-0.7v-2.1h0.7V382z
		 M-776.4,377.7h-0.7v-2.1h0.7V377.7z"/>
	<path class="st5" d="M-773.6,390h-0.7v-1.6h0.7V390z M-773.6,386.3h-0.7v-2.1h0.7V386.3z M-773.6,382h-0.7v-2.1h0.7V382z
		 M-773.6,377.7h-0.7v-2.1h0.7V377.7z"/>
	<path class="st5" d="M-770.7,390h-0.7v-1.6h0.7V390z M-770.7,386.3h-0.7v-2.1h0.7V386.3z M-770.7,382h-0.7v-2.1h0.7V382z
		 M-770.7,377.7h-0.7v-2.1h0.7V377.7z"/>
	<path class="st5" d="M-767.9,390h-0.7v-1.6h0.7V390z M-767.9,386.3h-0.7v-2.1h0.7V386.3z M-767.9,382h-0.7v-2.1h0.7V382z
		 M-767.9,377.7h-0.7v-2.1h0.7V377.7z"/>
	<path class="st5" d="M-765,390h-0.7v-1.6h0.7V390z M-765,386.3h-0.7v-2.1h0.7V386.3z M-765,382h-0.7v-2.1h0.7V382z M-765,377.7
		h-0.7v-2.1h0.7V377.7z"/>
	<path class="st5" d="M-762.2,390h-0.7v-1.6h0.7V390z M-762.2,386.3h-0.7v-2.1h0.7V386.3z M-762.2,382h-0.7v-2.1h0.7V382z
		 M-762.2,377.7h-0.7v-2.1h0.7V377.7z"/>
	<path class="st5" d="M-759.3,390h-0.7v-1.6h0.7V390z M-759.3,386.3h-0.7v-2.1h0.7V386.3z M-759.3,382h-0.7v-2.1h0.7V382z
		 M-759.3,377.7h-0.7v-2.1h0.7V377.7z"/>
	<path class="st5" d="M-756.4,390h-0.7v-1.6h0.7V390z M-756.4,386.3h-0.7v-2.1h0.7V386.3z M-756.4,382h-0.7v-2.1h0.7V382z
		 M-756.4,377.7h-0.7v-2.1h0.7V377.7z"/>
	<polygon class="st5" points="-1078.9,388.5 -1121.4,388.5 -1121.4,387.8 -1079.6,387.8 -1079.6,383 -1121.7,383 -1121.7,376.7 
		-1079.3,376.7 -1079.3,377.4 -1121,377.4 -1121,382.2 -1078.9,382.2 	"/>
	<polygon class="st5" points="-1118.9,42.5 -1161.3,42.5 -1161.3,41.8 -1119.5,41.8 -1119.5,38.1 -1161.6,38.1 -1161.6,33.1 
		-1119.2,33.1 -1119.2,33.7 -1161,33.7 -1161,37.5 -1118.9,37.5 	"/>
	<polygon class="st4" points="-614.6,227.7 -615.7,227.7 -615.7,46.9 -620.3,46.9 -620.3,45.8 -614.6,45.8 	"/>
	<polygon class="st4" points="-628.2,365.3 -615.6,365.3 -615.6,225.6 -612.3,228.9 -612.3,370 -628.3,370 	"/>
	<polygon class="st4" points="-1261.3,308.2 -1262.3,308.2 -1262.3,45.8 -1246.9,45.8 -1246.9,46.9 -1261.3,46.9 	"/>
	<rect x="-1217.8" y="36.8" class="st5" width="4.8" height="4.8"/>
	<rect x="-1206.9" y="36.8" class="st5" width="4.8" height="4.8"/>
	<rect x="-1196.1" y="36.8" class="st5" width="4.8" height="4.8"/>
	<rect x="-1185.2" y="36.8" class="st5" width="4.8" height="4.8"/>
	<rect x="-1174.3" y="36.8" class="st5" width="4.8" height="4.8"/>
	<path class="st5" d="M-814.8,41.8h-297.5v-8.7h297.5V41.8z M-1111.6,41.1h296.2v-7.4h-296.2V41.1z"/>
	<rect x="-1107.1" y="35.7" class="st5" width="287.3" height="3.4"/>
	<rect x="-809" y="31.8" class="st5" width="96.4" height="2.5"/>
	<polygon class="st5" points="-1129.8,368.6 -1129.8,380.6 -1206.5,380.6 -1195.3,369.4 	"/>
	<path class="st5" d="M-1161.7,317.8"/>
	<rect x="-1242.7" y="68.4" class="st5" width="0.7" height="267.2"/>
	<rect x="-631.6" y="68.4" class="st5" width="0.7" height="267.2"/>
	<rect x="-1232.1" y="58.6" class="st5" width="590.2" height="0.7"/>
	<rect x="-1232.1" y="346.4" class="st5" width="590.2" height="0.7"/>
	<g>
		<defs>
			<rect id="SVGID_2_" x="-1312.1" y="-30" width="766.2" height="489"/>
		</defs>
		<clipPath id="SVGID_3_">
			<use xlink:href="#SVGID_2_"  style="overflow:visible;"/>
		</clipPath>
	</g>
	<g>
		<path class="st4" d="M625,34.6V20.8h-61.4V13h70l21.6,21.4L625,34.6z M564.8,19.6h61.4v13.8l25.9-0.2l-19.1-18.9h-68.3V19.6z"/>
		<path class="st4" d="M48.5,34.6l-30.3-0.2L39.9,13h70v7.8H48.5V34.6z M21.3,33.2l25.9,0.2V19.6h61.4v-5.3H40.4L21.3,33.2z"/>
		<rect x="109.5" y="16.5" class="st4" width="454.7" height="1.3"/>
		<path class="st5" d="M620.2,29.8h-2.1v-0.7h2.1V29.8z M615.9,29.8h-2.1v-0.7h2.1V29.8z M611.7,29.8h-2.1v-0.7h2.1V29.8z
			 M607.4,29.8h-2.1v-0.7h2.1V29.8z M603.1,29.8H601v-0.7h2.1V29.8z M598.8,29.8h-2.1v-0.7h2.1V29.8z M594.6,29.8h-2.1v-0.7h2.1
			V29.8z M590.3,29.8h-2.1v-0.7h2.1V29.8z M586,29.8h-2.1v-0.7h2.1V29.8z M581.7,29.8h-2.1v-0.7h2.1V29.8z M577.4,29.8h-2.1v-0.7
			h2.1V29.8z M573.2,29.8H571v-0.7h2.1V29.8z M568.9,29.8h-2.1v-0.7h2.1V29.8z M564.6,29.8h-2.1v-0.7h2.1V29.8z M560.3,29.8h-2.1
			v-0.7h2.1V29.8z M556.1,29.8h-2.1v-0.7h2.1V29.8z M551.8,29.8h-2.1v-0.7h2.1V29.8z M547.5,29.8h-2.1v-0.7h2.1V29.8z M543.2,29.8
			h-2.1v-0.7h2.1V29.8z M539,29.8h-2.1v-0.7h2.1V29.8z M534.7,29.8h-2.1v-0.7h2.1V29.8z M530.4,29.8h-2.1v-0.7h2.1V29.8z
			 M526.1,29.8H524v-0.7h2.1V29.8z M521.8,29.8h-2.1v-0.7h2.1V29.8z M517.6,29.8h-2.1v-0.7h2.1V29.8z M513.3,29.8h-2.1v-0.7h2.1
			V29.8z M509,29.8h-2.1v-0.7h2.1V29.8z M504.7,29.8h-2.1v-0.7h2.1V29.8z M500.5,29.8h-2.1v-0.7h2.1V29.8z M496.2,29.8H494v-0.7h2.1
			V29.8z M491.9,29.8h-2.1v-0.7h2.1V29.8z M487.6,29.8h-2.1v-0.7h2.1V29.8z M483.4,29.8h-2.1v-0.7h2.1V29.8z M479.1,29.8h-2.1v-0.7
			h2.1V29.8z M474.8,29.8h-2.1v-0.7h2.1V29.8z M470.5,29.8h-2.1v-0.7h2.1V29.8z M466.2,29.8H465v-0.7h1.2V29.8z"/>
		<path class="st5" d="M620.2,25.9h-2.1v-0.7h2.1V25.9z M615.9,25.9h-2.1v-0.7h2.1V25.9z M611.7,25.9h-2.1v-0.7h2.1V25.9z
			 M607.4,25.9h-2.1v-0.7h2.1V25.9z M603.1,25.9H601v-0.7h2.1V25.9z M598.8,25.9h-2.1v-0.7h2.1V25.9z M594.6,25.9h-2.1v-0.7h2.1
			V25.9z M590.3,25.9h-2.1v-0.7h2.1V25.9z M586,25.9h-2.1v-0.7h2.1V25.9z M581.7,25.9h-2.1v-0.7h2.1V25.9z M577.4,25.9h-2.1v-0.7
			h2.1V25.9z M573.2,25.9H571v-0.7h2.1V25.9z M568.9,25.9h-2.1v-0.7h2.1V25.9z M564.6,25.9h-2.1v-0.7h2.1V25.9z M560.3,25.9h-2.1
			v-0.7h2.1V25.9z M556.1,25.9h-2.1v-0.7h2.1V25.9z M551.8,25.9h-2.1v-0.7h2.1V25.9z M547.5,25.9h-2.1v-0.7h2.1V25.9z M543.2,25.9
			h-2.1v-0.7h2.1V25.9z M539,25.9h-2.1v-0.7h2.1V25.9z M534.7,25.9h-2.1v-0.7h2.1V25.9z M530.4,25.9h-2.1v-0.7h2.1V25.9z
			 M526.1,25.9H524v-0.7h2.1V25.9z M521.8,25.9h-2.1v-0.7h2.1V25.9z M517.6,25.9h-2.1v-0.7h2.1V25.9z M513.3,25.9h-2.1v-0.7h2.1
			V25.9z M509,25.9h-2.1v-0.7h2.1V25.9z M504.7,25.9h-2.1v-0.7h2.1V25.9z M500.5,25.9h-2.1v-0.7h2.1V25.9z M496.2,25.9H494v-0.7h2.1
			V25.9z M491.9,25.9h-2.1v-0.7h2.1V25.9z M487.6,25.9h-2.1v-0.7h2.1V25.9z M483.4,25.9h-2.1v-0.7h2.1V25.9z M479.1,25.9h-2.1v-0.7
			h2.1V25.9z M474.8,25.9h-2.1v-0.7h2.1V25.9z M470.5,25.9h-2.1v-0.7h2.1V25.9z M466.2,25.9H465v-0.7h1.2V25.9z"/>
		<path class="st5" d="M620.2,25.9h-2.1v-0.7h2.1V25.9z M615.9,25.9h-2.1v-0.7h2.1V25.9z M611.7,25.9h-2.1v-0.7h2.1V25.9z
			 M607.4,25.9h-2.1v-0.7h2.1V25.9z M603.1,25.9H601v-0.7h2.1V25.9z M598.8,25.9h-2.1v-0.7h2.1V25.9z M594.6,25.9h-2.1v-0.7h2.1
			V25.9z M590.3,25.9h-2.1v-0.7h2.1V25.9z M586,25.9h-2.1v-0.7h2.1V25.9z M581.7,25.9h-2.1v-0.7h2.1V25.9z M577.4,25.9h-2.1v-0.7
			h2.1V25.9z M573.2,25.9H571v-0.7h2.1V25.9z M568.9,25.9h-2.1v-0.7h2.1V25.9z M564.6,25.9h-2.1v-0.7h2.1V25.9z M560.3,25.9h-2.1
			v-0.7h2.1V25.9z M556.1,25.9h-2.1v-0.7h2.1V25.9z M551.8,25.9h-2.1v-0.7h2.1V25.9z M547.5,25.9h-2.1v-0.7h2.1V25.9z M543.2,25.9
			h-2.1v-0.7h2.1V25.9z M539,25.9h-2.1v-0.7h2.1V25.9z M534.7,25.9h-2.1v-0.7h2.1V25.9z M530.4,25.9h-2.1v-0.7h2.1V25.9z
			 M526.1,25.9H524v-0.7h2.1V25.9z M521.8,25.9h-2.1v-0.7h2.1V25.9z M517.6,25.9h-2.1v-0.7h2.1V25.9z M513.3,25.9h-2.1v-0.7h2.1
			V25.9z M509,25.9h-2.1v-0.7h2.1V25.9z M504.7,25.9h-2.1v-0.7h2.1V25.9z M500.5,25.9h-2.1v-0.7h2.1V25.9z M496.2,25.9H494v-0.7h2.1
			V25.9z M491.9,25.9h-2.1v-0.7h2.1V25.9z M487.6,25.9h-2.1v-0.7h2.1V25.9z M483.4,25.9h-2.1v-0.7h2.1V25.9z M479.1,25.9h-2.1v-0.7
			h2.1V25.9z M474.8,25.9h-2.1v-0.7h2.1V25.9z M470.5,25.9h-2.1v-0.7h2.1V25.9z M466.2,25.9H465v-0.7h1.2V25.9z"/>
		<polygon class="st4" points="44.7,20 44.7,31 27.1,31 42.2,15.9 58.5,15.9 58.5,18.3 44.7,18.3 		"/>
		<polygon class="st4" points="628.3,20 628.3,31 646,31 630.9,15.9 614.6,15.9 614.6,18.3 628.4,18.3 		"/>
		<path class="st4" d="M655.5,350.5h-637V33.8h637V350.5z M19.6,349.4h635V34.9h-635V349.4z"/>
		<polygon class="st4" points="45.5,350.7 45.5,382.2 56.7,382.2 69,394.5 147.6,394.5 147.6,383.3 76.7,383.3 72.6,387.4 
			63.9,378.8 53.9,378.8 53.9,367.7 71.3,350.2 		"/>
		<polygon class="st4" points="642.8,394.5 642.8,365.9 633.6,365.9 633.6,380.2 626.9,386.8 611.8,386.8 607.9,390.7 525.4,390.7 
			525.4,394.5 		"/>
		<rect x="639.3" y="349.9" class="st4" width="3.4" height="15.9"/>
		<path class="st5" d="M148.1,372.9H61.7v-6l13.2-13.2h73.3V372.9z M62.7,371.8h84.4v-17.2H75.3l-12.6,12.6V371.8z"/>
		<rect x="62.2" y="375.5" class="st4" width="85.4" height="1"/>
		<rect x="77" y="379.5" class="st4" width="70.6" height="1"/>
		<path class="st4" d="M605.8,388.7h-80.9v-23.3h106.3V377l-5.8,5.8h-13.7L605.8,388.7z M525.9,387.6h79.4l5.9-5.9h13.7l5.2-5.2
			v-10.2H525.9V387.6z"/>
		<g>
			<line class="st5" x1="529.3" y1="369.3" x2="627.1" y2="369.3"/>
			<rect x="529.3" y="368.8" class="st4" width="97.8" height="1"/>
		</g>
		<g>
			<line class="st5" x1="529.3" y1="374.1" x2="627.1" y2="374.1"/>
			<rect x="529.3" y="373.6" class="st4" width="97.8" height="1"/>
		</g>
		<g>
			<polygon class="st5" points="529.3,380.2 529.3,385.3 601.6,385.3 607.7,379.2 529.3,379.2 			"/>
			<path class="st4" d="M601.8,385.8h-73v-7.2h80.1L601.8,385.8z M529.8,384.8h71.5l5.1-5.1h-76.6V384.8z"/>
		</g>
		<polygon class="st4" points="525.6,394.4 514.5,384.5 158.2,384.5 147.4,394.3 146.7,393.5 157.8,383.5 514.9,383.5 526.3,393.7 
					"/>
		<rect x="627.7" y="353.6" class="st5" width="9.1" height="9.1"/>
		<rect x="612.9" y="353.6" class="st5" width="9.1" height="9.1"/>
		<rect x="598.1" y="353.6" class="st5" width="9.1" height="9.1"/>
		<rect x="583.3" y="353.6" class="st5" width="9.1" height="9.1"/>
		<rect x="568.5" y="353.6" class="st5" width="9.1" height="9.1"/>
		<rect x="553.7" y="353.6" class="st5" width="9.1" height="9.1"/>
		<rect x="538.9" y="353.6" class="st5" width="9.1" height="9.1"/>
		<rect x="524.1" y="353.6" class="st5" width="9.1" height="9.1"/>
		<path class="st5" d="M36.6,52.2h-9.7v-9.7h9.7V52.2z M27.5,51.6h8.5v-8.5h-8.5V51.6z"/>
		<rect x="29.4" y="45.1" class="st5" width="4.5" height="4.5"/>
		<path class="st5" d="M647.6,52.2h-9.7v-9.7h9.7V52.2z M638.5,51.6h8.5v-8.5h-8.5V51.6z"/>
		<rect x="640.5" y="45.1" class="st5" width="4.5" height="4.5"/>
		<path class="st5" d="M36.6,339.8h-9.7v-9.7h9.7V339.8z M27.5,339.2h8.5v-8.5h-8.5V339.2z"/>
		<rect x="29.4" y="332.7" class="st5" width="4.5" height="4.5"/>
		<path class="st5" d="M647.6,339.8h-9.7v-9.7h9.7V339.8z M638.5,339.2h8.5v-8.5h-8.5V339.2z"/>
		<rect x="640.5" y="332.7" class="st5" width="4.5" height="4.5"/>
		<rect x="152.6" y="357.6" class="st4" width="365.4" height="1"/>
		<polygon class="st4" points="41.1,358.1 12.5,358.1 12.5,296.2 8.3,300.5 8.3,361.4 37.4,361.4 		"/>
		<path class="st5" d="M472.3,376.5H472v-0.7h0.3V376.5z M469.8,376.5h-2.1v-0.7h2.1V376.5z M465.5,376.5h-2.1v-0.7h2.1V376.5z
			 M461.3,376.5h-2.1v-0.7h2.1V376.5z M457,376.5h-2.1v-0.7h2.1V376.5z M452.7,376.5h-2.1v-0.7h2.1V376.5z M448.4,376.5h-2.1v-0.7
			h2.1V376.5z M444.2,376.5H442v-0.7h2.1V376.5z M439.9,376.5h-2.1v-0.7h2.1V376.5z M435.6,376.5h-2.1v-0.7h2.1V376.5z M431.3,376.5
			h-2.1v-0.7h2.1V376.5z M427.1,376.5h-2.1v-0.7h2.1V376.5z M422.8,376.5h-2.1v-0.7h2.1V376.5z M418.5,376.5h-2.1v-0.7h2.1V376.5z
			 M414.2,376.5h-2.1v-0.7h2.1V376.5z M409.9,376.5h-2.1v-0.7h2.1V376.5z M405.7,376.5h-2.1v-0.7h2.1V376.5z M401.4,376.5h-2.1v-0.7
			h2.1V376.5z M397.1,376.5H395v-0.7h2.1V376.5z M392.8,376.5h-2.1v-0.7h2.1V376.5z M388.6,376.5h-2.1v-0.7h2.1V376.5z M384.3,376.5
			h-2.1v-0.7h2.1V376.5z M380,376.5h-2.1v-0.7h2.1V376.5z M375.7,376.5h-2.1v-0.7h2.1V376.5z M371.5,376.5h-2.1v-0.7h2.1V376.5z
			 M367.2,376.5H365v-0.7h2.1V376.5z M362.9,376.5h-2.1v-0.7h2.1V376.5z M358.6,376.5h-2.1v-0.7h2.1V376.5z M354.4,376.5h-2.1v-0.7
			h2.1V376.5z M350.1,376.5h-2.1v-0.7h2.1V376.5z M345.8,376.5h-2.1v-0.7h2.1V376.5z M341.5,376.5h-2.1v-0.7h2.1V376.5z
			 M337.2,376.5h-2.1v-0.7h2.1V376.5z M333,376.5h-2.1v-0.7h2.1V376.5z M328.7,376.5h-2.1v-0.7h2.1V376.5z M324.4,376.5h-2.1v-0.7
			h2.1V376.5z M320.1,376.5H318v-0.7h2.1V376.5z M315.9,376.5h-2.1v-0.7h2.1V376.5z M311.6,376.5h-2.1v-0.7h2.1V376.5z M307.3,376.5
			h-2.1v-0.7h2.1V376.5z M303,376.5h-2.1v-0.7h2.1V376.5z M298.8,376.5h-2.1v-0.7h2.1V376.5z M294.5,376.5h-2.1v-0.7h2.1V376.5z
			 M290.2,376.5h-2.1v-0.7h2.1V376.5z M285.9,376.5h-2.1v-0.7h2.1V376.5z M281.6,376.5h-2.1v-0.7h2.1V376.5z M277.4,376.5h-2.1v-0.7
			h2.1V376.5z M273.1,376.5H271v-0.7h2.1V376.5z M268.8,376.5h-2.1v-0.7h2.1V376.5z M264.5,376.5h-2.1v-0.7h2.1V376.5z M260.3,376.5
			h-2.1v-0.7h2.1V376.5z M256,376.5h-2.1v-0.7h2.1V376.5z M251.7,376.5h-2.1v-0.7h2.1V376.5z M247.4,376.5h-2.1v-0.7h2.1V376.5z
			 M243.2,376.5H241v-0.7h2.1V376.5z M238.9,376.5h-2.1v-0.7h2.1V376.5z M234.6,376.5h-2.1v-0.7h2.1V376.5z M230.3,376.5h-2.1v-0.7
			h2.1V376.5z M226,376.5h-2.1v-0.7h2.1V376.5z M221.8,376.5h-2.1v-0.7h2.1V376.5z M217.5,376.5h-2.1v-0.7h2.1V376.5z M213.2,376.5
			h-2.1v-0.7h2.1V376.5z M208.9,376.5h-2.1v-0.7h2.1V376.5z M204.7,376.5h-2.1v-0.7h2.1V376.5z M200.4,376.5h-2.1v-0.7h2.1V376.5z"
			/>
		<path class="st5" d="M472.3,371H472v-0.7h0.3V371z M469.8,371h-2.1v-0.7h2.1V371z M465.5,371h-2.1v-0.7h2.1V371z M461.3,371h-2.1
			v-0.7h2.1V371z M457,371h-2.1v-0.7h2.1V371z M452.7,371h-2.1v-0.7h2.1V371z M448.4,371h-2.1v-0.7h2.1V371z M444.2,371H442v-0.7
			h2.1V371z M439.9,371h-2.1v-0.7h2.1V371z M435.6,371h-2.1v-0.7h2.1V371z M431.3,371h-2.1v-0.7h2.1V371z M427.1,371h-2.1v-0.7h2.1
			V371z M422.8,371h-2.1v-0.7h2.1V371z M418.5,371h-2.1v-0.7h2.1V371z M414.2,371h-2.1v-0.7h2.1V371z M409.9,371h-2.1v-0.7h2.1V371z
			 M405.7,371h-2.1v-0.7h2.1V371z M401.4,371h-2.1v-0.7h2.1V371z M397.1,371H395v-0.7h2.1V371z M392.8,371h-2.1v-0.7h2.1V371z
			 M388.6,371h-2.1v-0.7h2.1V371z M384.3,371h-2.1v-0.7h2.1V371z M380,371h-2.1v-0.7h2.1V371z M375.7,371h-2.1v-0.7h2.1V371z
			 M371.5,371h-2.1v-0.7h2.1V371z M367.2,371H365v-0.7h2.1V371z M362.9,371h-2.1v-0.7h2.1V371z M358.6,371h-2.1v-0.7h2.1V371z
			 M354.4,371h-2.1v-0.7h2.1V371z M350.1,371h-2.1v-0.7h2.1V371z M345.8,371h-2.1v-0.7h2.1V371z M341.5,371h-2.1v-0.7h2.1V371z
			 M337.2,371h-2.1v-0.7h2.1V371z M333,371h-2.1v-0.7h2.1V371z M328.7,371h-2.1v-0.7h2.1V371z M324.4,371h-2.1v-0.7h2.1V371z
			 M320.1,371H318v-0.7h2.1V371z M315.9,371h-2.1v-0.7h2.1V371z M311.6,371h-2.1v-0.7h2.1V371z M307.3,371h-2.1v-0.7h2.1V371z
			 M303,371h-2.1v-0.7h2.1V371z M298.8,371h-2.1v-0.7h2.1V371z M294.5,371h-2.1v-0.7h2.1V371z M290.2,371h-2.1v-0.7h2.1V371z
			 M285.9,371h-2.1v-0.7h2.1V371z M281.6,371h-2.1v-0.7h2.1V371z M277.4,371h-2.1v-0.7h2.1V371z M273.1,371H271v-0.7h2.1V371z
			 M268.8,371h-2.1v-0.7h2.1V371z M264.5,371h-2.1v-0.7h2.1V371z M260.3,371h-2.1v-0.7h2.1V371z M256,371h-2.1v-0.7h2.1V371z
			 M251.7,371h-2.1v-0.7h2.1V371z M247.4,371h-2.1v-0.7h2.1V371z M243.2,371H241v-0.7h2.1V371z M238.9,371h-2.1v-0.7h2.1V371z
			 M234.6,371h-2.1v-0.7h2.1V371z M230.3,371h-2.1v-0.7h2.1V371z M226,371h-2.1v-0.7h2.1V371z M221.8,371h-2.1v-0.7h2.1V371z
			 M217.5,371h-2.1v-0.7h2.1V371z M213.2,371h-2.1v-0.7h2.1V371z M208.9,371h-2.1v-0.7h2.1V371z M204.7,371h-2.1v-0.7h2.1V371z
			 M200.4,371h-2.1v-0.7h2.1V371z"/>
		<path class="st5" d="M472.3,365.4H472v-0.7h0.3V365.4z M469.8,365.4h-2.1v-0.7h2.1V365.4z M465.5,365.4h-2.1v-0.7h2.1V365.4z
			 M461.3,365.4h-2.1v-0.7h2.1V365.4z M457,365.4h-2.1v-0.7h2.1V365.4z M452.7,365.4h-2.1v-0.7h2.1V365.4z M448.4,365.4h-2.1v-0.7
			h2.1V365.4z M444.2,365.4H442v-0.7h2.1V365.4z M439.9,365.4h-2.1v-0.7h2.1V365.4z M435.6,365.4h-2.1v-0.7h2.1V365.4z M431.3,365.4
			h-2.1v-0.7h2.1V365.4z M427.1,365.4h-2.1v-0.7h2.1V365.4z M422.8,365.4h-2.1v-0.7h2.1V365.4z M418.5,365.4h-2.1v-0.7h2.1V365.4z
			 M414.2,365.4h-2.1v-0.7h2.1V365.4z M409.9,365.4h-2.1v-0.7h2.1V365.4z M405.7,365.4h-2.1v-0.7h2.1V365.4z M401.4,365.4h-2.1v-0.7
			h2.1V365.4z M397.1,365.4H395v-0.7h2.1V365.4z M392.8,365.4h-2.1v-0.7h2.1V365.4z M388.6,365.4h-2.1v-0.7h2.1V365.4z M384.3,365.4
			h-2.1v-0.7h2.1V365.4z M380,365.4h-2.1v-0.7h2.1V365.4z M375.7,365.4h-2.1v-0.7h2.1V365.4z M371.5,365.4h-2.1v-0.7h2.1V365.4z
			 M367.2,365.4H365v-0.7h2.1V365.4z M362.9,365.4h-2.1v-0.7h2.1V365.4z M358.6,365.4h-2.1v-0.7h2.1V365.4z M354.4,365.4h-2.1v-0.7
			h2.1V365.4z M350.1,365.4h-2.1v-0.7h2.1V365.4z M345.8,365.4h-2.1v-0.7h2.1V365.4z M341.5,365.4h-2.1v-0.7h2.1V365.4z
			 M337.2,365.4h-2.1v-0.7h2.1V365.4z M333,365.4h-2.1v-0.7h2.1V365.4z M328.7,365.4h-2.1v-0.7h2.1V365.4z M324.4,365.4h-2.1v-0.7
			h2.1V365.4z M320.1,365.4H318v-0.7h2.1V365.4z M315.9,365.4h-2.1v-0.7h2.1V365.4z M311.6,365.4h-2.1v-0.7h2.1V365.4z M307.3,365.4
			h-2.1v-0.7h2.1V365.4z M303,365.4h-2.1v-0.7h2.1V365.4z M298.8,365.4h-2.1v-0.7h2.1V365.4z M294.5,365.4h-2.1v-0.7h2.1V365.4z
			 M290.2,365.4h-2.1v-0.7h2.1V365.4z M285.9,365.4h-2.1v-0.7h2.1V365.4z M281.6,365.4h-2.1v-0.7h2.1V365.4z M277.4,365.4h-2.1v-0.7
			h2.1V365.4z M273.1,365.4H271v-0.7h2.1V365.4z M268.8,365.4h-2.1v-0.7h2.1V365.4z M264.5,365.4h-2.1v-0.7h2.1V365.4z M260.3,365.4
			h-2.1v-0.7h2.1V365.4z M256,365.4h-2.1v-0.7h2.1V365.4z M251.7,365.4h-2.1v-0.7h2.1V365.4z M247.4,365.4h-2.1v-0.7h2.1V365.4z
			 M243.2,365.4H241v-0.7h2.1V365.4z M238.9,365.4h-2.1v-0.7h2.1V365.4z M234.6,365.4h-2.1v-0.7h2.1V365.4z M230.3,365.4h-2.1v-0.7
			h2.1V365.4z M226,365.4h-2.1v-0.7h2.1V365.4z M221.8,365.4h-2.1v-0.7h2.1V365.4z M217.5,365.4h-2.1v-0.7h2.1V365.4z M213.2,365.4
			h-2.1v-0.7h2.1V365.4z M208.9,365.4h-2.1v-0.7h2.1V365.4z M204.7,365.4h-2.1v-0.7h2.1V365.4z M200.4,365.4h-2.1v-0.7h2.1V365.4z"
			/>
		<path class="st4" d="M519.5,380.3h-41.9v-19.1h41.9V380.3z M478,380h41.2v-18.4H478V380z"/>
		<path class="st5" d="M480.5,378h-0.7v-1.6h0.7V378z M480.5,374.3h-0.7v-2.1h0.7V374.3z M480.5,370h-0.7v-2.1h0.7V370z
			 M480.5,365.7h-0.7v-2.1h0.7V365.7z"/>
		<path class="st5" d="M483.3,378h-0.7v-1.6h0.7V378z M483.3,374.3h-0.7v-2.1h0.7V374.3z M483.3,370h-0.7v-2.1h0.7V370z
			 M483.3,365.7h-0.7v-2.1h0.7V365.7z"/>
		<path class="st5" d="M486.2,378h-0.7v-1.6h0.7V378z M486.2,374.3h-0.7v-2.1h0.7V374.3z M486.2,370h-0.7v-2.1h0.7V370z
			 M486.2,365.7h-0.7v-2.1h0.7V365.7z"/>
		<path class="st5" d="M489,378h-0.7v-1.6h0.7V378z M489,374.3h-0.7v-2.1h0.7V374.3z M489,370h-0.7v-2.1h0.7V370z M489,365.7h-0.7
			v-2.1h0.7V365.7z"/>
		<path class="st5" d="M491.9,378h-0.7v-1.6h0.7V378z M491.9,374.3h-0.7v-2.1h0.7V374.3z M491.9,370h-0.7v-2.1h0.7V370z
			 M491.9,365.7h-0.7v-2.1h0.7V365.7z"/>
		<path class="st5" d="M494.7,378H494v-1.6h0.7V378z M494.7,374.3H494v-2.1h0.7V374.3z M494.7,370H494v-2.1h0.7V370z M494.7,365.7
			H494v-2.1h0.7V365.7z"/>
		<path class="st5" d="M497.6,378h-0.7v-1.6h0.7V378z M497.6,374.3h-0.7v-2.1h0.7V374.3z M497.6,370h-0.7v-2.1h0.7V370z
			 M497.6,365.7h-0.7v-2.1h0.7V365.7z"/>
		<path class="st5" d="M500.4,378h-0.7v-1.6h0.7V378z M500.4,374.3h-0.7v-2.1h0.7V374.3z M500.4,370h-0.7v-2.1h0.7V370z
			 M500.4,365.7h-0.7v-2.1h0.7V365.7z"/>
		<path class="st5" d="M503.3,378h-0.7v-1.6h0.7V378z M503.3,374.3h-0.7v-2.1h0.7V374.3z M503.3,370h-0.7v-2.1h0.7V370z
			 M503.3,365.7h-0.7v-2.1h0.7V365.7z"/>
		<path class="st5" d="M506.1,378h-0.7v-1.6h0.7V378z M506.1,374.3h-0.7v-2.1h0.7V374.3z M506.1,370h-0.7v-2.1h0.7V370z
			 M506.1,365.7h-0.7v-2.1h0.7V365.7z"/>
		<path class="st5" d="M509,378h-0.7v-1.6h0.7V378z M509,374.3h-0.7v-2.1h0.7V374.3z M509,370h-0.7v-2.1h0.7V370z M509,365.7h-0.7
			v-2.1h0.7V365.7z"/>
		<path class="st5" d="M511.8,378h-0.7v-1.6h0.7V378z M511.8,374.3h-0.7v-2.1h0.7V374.3z M511.8,370h-0.7v-2.1h0.7V370z
			 M511.8,365.7h-0.7v-2.1h0.7V365.7z"/>
		<path class="st5" d="M514.7,378H514v-1.6h0.7V378z M514.7,374.3H514v-2.1h0.7V374.3z M514.7,370H514v-2.1h0.7V370z M514.7,365.7
			H514v-2.1h0.7V365.7z"/>
		<path class="st5" d="M517.6,378h-0.7v-1.6h0.7V378z M517.6,374.3h-0.7v-2.1h0.7V374.3z M517.6,370h-0.7v-2.1h0.7V370z
			 M517.6,365.7h-0.7v-2.1h0.7V365.7z"/>
		<polygon class="st5" points="195.1,376.5 152.6,376.5 152.6,375.8 194.4,375.8 194.4,371 152.3,371 152.3,364.7 194.7,364.7 
			194.7,365.4 153,365.4 153,370.2 195.1,370.2 		"/>
		<polygon class="st5" points="155.1,30.5 112.7,30.5 112.7,29.8 154.5,29.8 154.5,26.1 112.4,26.1 112.4,21.1 154.8,21.1 
			154.8,21.7 113,21.7 113,25.5 155.1,25.5 		"/>
		<polygon class="st4" points="659.4,215.7 658.3,215.7 658.3,34.9 653.7,34.9 653.7,33.8 659.4,33.8 		"/>
		<polygon class="st4" points="645.8,353.3 658.4,353.3 658.4,213.6 661.7,216.9 661.7,358 645.7,358 		"/>
		<polygon class="st4" points="12.7,296.2 11.7,296.2 11.7,33.8 27.1,33.8 27.1,34.9 12.7,34.9 		"/>
		<rect x="56.2" y="24.8" class="st5" width="4.8" height="4.8"/>
		<rect x="67.1" y="24.8" class="st5" width="4.8" height="4.8"/>
		<rect x="77.9" y="24.8" class="st5" width="4.8" height="4.8"/>
		<rect x="88.8" y="24.8" class="st5" width="4.8" height="4.8"/>
		<rect x="99.7" y="24.8" class="st5" width="4.8" height="4.8"/>
		<path class="st5" d="M459.2,29.8H161.7v-8.7h297.5V29.8z M162.4,29.1h296.2v-7.4H162.4V29.1z"/>
		<rect x="166.9" y="23.7" class="st5" width="287.3" height="3.4"/>
		<rect x="465" y="19.8" class="st5" width="96.4" height="2.5"/>
		<polygon class="st5" points="144.2,356.6 144.2,368.6 67.5,368.6 78.7,357.4 		"/>
		<path class="st5" d="M112.3,305.8"/>
		<rect x="31.3" y="56.4" class="st5" width="0.7" height="267.2"/>
		<rect x="642.4" y="56.4" class="st5" width="0.7" height="267.2"/>
		<rect x="41.9" y="46.6" class="st5" width="590.2" height="0.7"/>
		<rect x="41.9" y="334.4" class="st5" width="590.2" height="0.7"/>
	</g>
	<rect x="-1218.7" y="75.4" style="fill:none;" width="526.3" height="26"/>
	<text transform="matrix(1 0 0 1 -1218.7451 88.9609)" class="st6" style="font-family:'MyriadPro-Semibold'; font-size:19.114px;">¿Qué es el Arjé o Arché?</text>
	<path class="st6" d="M-957.3,19.4h-300.2c-2.4,0-4.4-2-4.4-4.4V-8.1c0-2.4,2-4.4,4.4-4.4h300.2c2.4,0,4.4,2,4.4,4.4V15
		C-952.9,17.4-954.9,19.4-957.3,19.4z"/>
	<g>
		<rect x="-1256.1" y="-1.3" style="fill:none;" width="300" height="25.5"/>
		
			<text transform="matrix(1 0 0 1 -1256.1143 9.9795)" class="st1" style="font-family:'MyriadPro-Semibold'; font-size:15.9283px;">Tema 2 La filosofía antigua y clásicas</text>
	</g>
	<ellipse class="st7" cx="-839" cy="7.2" rx="24.6" ry="15.4"/>
	<text transform="matrix(1 0 0 1 -858.0762 11.7466)" class="st8" style="font-family:'MyriadPro-Semibold'; font-size:15.4062px;">50/50</text>
	<text transform="matrix(1 0 0 1 -928.1611 11.7466)" class="st8" style="font-family:'MyriadPro-Semibold'; font-size:15.4062px;">Comodín</text>
	<path class="st8" d="M-651.4,17.8h-56.7c-3.3,0-5.9-2.6-5.9-5.9V-6.6c0-3.3,2.6-5.9,5.9-5.9h56.7c3.3,0,5.9,2.6,5.9,5.9v18.5
		C-645.5,15.1-648.1,17.8-651.4,17.8z"/>
	<path class="st8" d="M-724.6,17.8h-56.7c-3.3,0-5.9-2.6-5.9-5.9V-6.6c0-3.3,2.6-5.9,5.9-5.9h56.7c3.3,0,5.9,2.6,5.9,5.9v18.5
		C-718.7,15.1-721.4,17.8-724.6,17.8z"/>
	<text transform="matrix(1 0 0 1 -719.5 424.291)" style="fill:#8AFF00; font-family:'MyriadPro-Semibold'; font-size:15.4062px;">Siguiente</text>
	<path class="st8" d="M-877.7,172.3h-336.7c-2.5,0-4.5-2-4.5-4.5v-18.1c0-2.5,2-4.5,4.5-4.5h336.7c2.5,0,4.5,2,4.5,4.5v18.1
		C-873.3,170.3-875.3,172.3-877.7,172.3z"/>
	<rect x="-484.2" y="120" style="fill:none;" width="373.2" height="155"/>
	<text transform="matrix(1 0 0 1 -484.1699 133.5781)"><tspan x="0" y="0" class="st1" style="font-family:'MyriadPro-Semibold'; font-size:19.114px;">A) El razonamiento lógico</tspan><tspan x="0" y="36.6" class="st1" style="font-family:'MyriadPro-Semibold'; font-size:19.114px;">B)  El principio de todas las cosas</tspan><tspan x="0" y="73.3" class="st1" style="font-family:'MyriadPro-Semibold'; font-size:19.114px;">C ) La curiosidad por conocer la realidad</tspan><tspan x="0" y="109.9" class="st1" style="font-family:'MyriadPro-Semibold'; font-size:19.114px;">D) La observación de la naturaleza   </tspan></text>
	<g>
		<g>
			<g>
				<g>
					<path class="st9" d="M-745.9,272.9c-54.2,0-84.2-17.1-95.1-48.9c-8.2-24-6.3-58.1,9.4-80.3c30.7-43.6,71.5-13.6,103.8-11.9
						c32.8,1.7,53.9,6.6,68.2,20.8C-618.3,193.4-649.4,272.9-745.9,272.9z"/>
					<path class="st10" d="M-745.9,272.9c-4.6,0-9.1-0.1-13.4-0.4l-29.2-4.6l-2.5-129.7l76.9-5.5c25.1,2.4,42.3,7.7,54.5,19.8
						C-618.3,193.4-649.4,272.9-745.9,272.9z"/>
					<g>
						<path class="st11" d="M-789.1,268.2c-27.6-7.1-44.3-22.1-51.9-44.1c-8.2-24-6.3-58.1,9.4-80.3c5.6-8,11.6-13.5,17.8-17.2
							l22.8,11.7l2.5,129.7L-789.1,268.2z"/>
						<path class="st12" d="M-804.1,263c-18.8-8.2-30.8-21.3-36.8-39c-8.2-24-6.3-58.1,9.4-80.3c3.2-4.5,6.5-8.2,9.8-11.2
							c5.4,2.5,10.8,4.9,16.1,7.4c1,0.7,1.4,1.6,1.5,2.6V263z"/>
						<path class="st13" d="M-836.1,235c-1.9-3.4-3.5-7.1-4.9-11c-8.2-24-6.3-58.1,9.4-80.3c0.7-1.1,1.5-2.1,2.3-3
							c0.1-0.1,0.2-0.1,0.3-0.2l13.9,6.3v96.6C-820.5,241-828.3,238.2-836.1,235z"/>
					</g>
				</g>
				<g>
					<g>
						<polygon class="st14" points="-686.8,195.5 -687.5,160.1 -654.3,158.9 -654.3,195.5 						"/>
						<polygon class="st15" points="-685.5,194 -686.1,161.5 -655.6,160.3 -655.6,194 						"/>
					</g>
					<g>
						<polygon class="st16" points="-682.2,190.2 -682.7,165 -659.1,164.1 -659.1,190.2 						"/>
						<path class="st17" d="M-666.5,176.4c3.1,0,5.6,2.5,5.6,5.6c0,3.1-2.5,5.6-5.6,5.6c-3.1,0-5.6-2.5-5.6-5.6
							C-672.1,178.9-669.6,176.4-666.5,176.4z"/>
						<path class="st18" d="M-682.3,188l-0.1-7.8c3.7,0.4,9.7,0.1,12,0.6c5,1.2,5.8,1.3,10.1,3.9c0.1,0,0.3,0.2,0.4,0.2l-20.3,3.7
							L-682.3,188z"/>
						<path class="st19" d="M-659.1,183.7v6.6h-19.1l-3.1-4c1.1-0.1,5-2.2,7.6-2.7c6.4-1.1,7.9-0.4,14,0.1
							C-659.4,183.6-659.3,183.7-659.1,183.7z"/>
						<path class="st18" d="M-682.2,190.2l-0.1-5.2c1,0.1,2,0.2,3.1,0.1c5.4-0.5,5.2-0.3,10.5,0.6c2.6,0.5,4.9,1.5,7.8,1.7
							c0.8,0,1.4,0.1,1.9,0.1v2.7H-682.2z"/>
					</g>
				</g>
			</g>
			<g>
				<g>
					<path class="st10" d="M-739.4,102.6c-0.6,4,0.3,8.6,4.3,8.7c5.1,0.1,2.5-9,8.9-5.3c3.6,2.1-0.4,5-2.2,6c-9.2,5-0.2,16,1.7,6.1
						c0.5-2.7,11.6-4.3,8.3-16C-721.4,91.5-737.3,89.7-739.4,102.6z"/>
					<path class="st11" d="M-739.5,105.9c0.3,2.9,1.5,5.3,4.4,5.4c5.1,0.1,2.5-9,8.9-5.3c3.6,2.1-0.4,5-2.2,6
						c-3.7,2.1-4.5,5.1-3.9,7.3c0.4-3.5,3.4-4.9,7-6.5c5.6-2.5,6.4-8.6,1.6-10.5c-3.8-1.5-6.2-0.3-8.4,2.8
						C-734.4,108.4-737.7,108.1-739.5,105.9z"/>
					<path class="st20" d="M-733.3,95.4c-1.6,1.2-2,3.4,2.7,2.5c4.6-0.8,7.8,1,10.4,4.8c1.5,2.2,0.7,5,0,7.2
						c0.6,0.2,3.8-5.9-0.2-11.1C-722.3,96.3-730.2,92.9-733.3,95.4z"/>
				</g>
				<g>
					<path class="st10" d="M-728.3,130.4c4.9-0.9,0-8.7-1.9-3.5C-730.8,128.5-731.4,131-728.3,130.4z"/>
					<path class="st11" d="M-728.3,130.4c1.1-0.2,1.8-0.8,2-1.5c-0.3-0.4-0.8-0.6-1.5-0.6c-2.3,0-2.5-1-2.1-2.1
						c-0.1,0.2-0.2,0.4-0.3,0.7C-730.8,128.5-731.4,131-728.3,130.4z"/>
					<path class="st20" d="M-728.5,126.3c-0.5,2.4,2.2,0.9,0.5-0.3C-728.3,125.7-728.4,126-728.5,126.3z"/>
				</g>
			</g>
		</g>
		<g>
			<g>
				<path class="st21" d="M-705.9,213c2.2,2.7,3.2,4.1,3.4,6.2c0.1,1.4-0.3,3.1-0.6,5.6c-0.9,6.4-1.7,13.4-2.2,19.8
					c-0.1,1.4-0.2,2.8-0.3,4.2h-5.1c0.7-8.9,2.2-17.6,4.2-28.7C-706,217.3-704.8,214.8-705.9,213z"/>
				<path class="st22" d="M-752,248.7c0-2.7,0-5.3,0.2-7.8c0.4-5.1,1.9-10.3,3.2-16.7c0.8-3.6,2.1-9.2,4.4-11.7
					c2.9-3.1,10.1-4.1,16-4.3c6.8-0.2,12.5-0.1,18.4,1.9c4.4,1.5,5.5,5.1,4.7,9.8c-2,11.5-3.2,19.8-4.1,28.8H-752z"/>
			</g>
			<g>
				<g>
					<g>
						<path class="st23" d="M-751.6,226.4c-1.8-1.9-3.6-3.8-5.4-5.7c-5.8,5.7-7.4,7.5-11.6,14.5c0.3,2,2.4,2.5,4,3.5
							c2.5-2.7,5.8-5.8,8.3-8.4C-755,228.9-753.1,227.6-751.6,226.4z"/>
						<path class="st24" d="M-761.1,225c-2.5,2.7-4.2,4.9-6.7,9c0.3,0.1,0.7,0.2,1-0.3c1.7-3.1,3.7-5.3,5.5-7.4
							C-760.8,225.6-760.8,225.2-761.1,225z"/>
						<path class="st25" d="M-751.6,226.4c-1.8-1.9-3.6-3.8-5.4-5.7c-2,2-3.5,3.5-4.8,4.9c1.1,0.9,1.9,1.9,1.7,2.7
							c-0.1,0.5-2.3,5.1-3.5,6.9c-1.3,1.8-4.1,0-4.6-0.7c-0.1,0.2-0.3,0.4-0.4,0.7c0.3,2,2.4,2.5,4,3.5c2.5-2.7,5.8-5.8,8.3-8.4
							C-755,228.9-753.1,227.6-751.6,226.4z"/>
					</g>
					<g>
						<path class="st26" d="M-743.7,222.7c-1.3-4.1-2.8-7.9-4-12c-0.1,0-0.4,0-0.7,0.3c-1.3,1-4.1,3.8-5.9,5.4
							c-2,1.8-4.1,3.7-6.1,5.5c-0.9,2.4,4.7,9.9,6.5,9.6C-750.4,227.1-748.4,226-743.7,222.7z"/>
						<path class="st27" d="M-750.2,212.6c-1.4,1.2-3,2.8-4.2,3.9c-2,1.8-4.1,3.7-6.1,5.5c-0.1,0.3-0.1,0.8,0,1.3
							c0.4-0.1,0.9-0.5,1.8-1.4C-757.1,219.9-751.3,215.5-750.2,212.6z"/>
						<path class="st28" d="M-743.7,222.7c-1.3-4.1-2.8-7.9-4-12c-0.1,0-0.4,0-0.7,0.3c-0.4,0.3-1,0.9-1.7,1.5c-0.1,1.9,0,4,0.3,5.5
							c0.2,1.1,1,2.4,0.8,3.7c-0.8,4.6-7.1,8.5-9.7,5.2c1.6,2.4,3.8,4.7,4.8,4.5C-750.4,227.1-748.4,226-743.7,222.7z"/>
					</g>
				</g>
				<g>
					<g>
						<path class="st26" d="M-730,206.9c-2.8,0.4-6.3,0.3-9.1,0.6c-3.8,0.9-5.4,1.6-8.9,3.3c0,4,1.8,7.8,3,11.7
							c1.1,8.9,1.5,15.5,1.5,24.5c7.8,2.8,13.9,4.6,25.8-1.8c-0.6-9.5-1.2-15-1.9-20c-0.1-6.4,0.1-7.4,1.9-13.5
							C-722.2,209-724.6,208.1-730,206.9z"/>
						<path class="st27" d="M-746.9,210.3c0,0-0.1,0-0.1,0.1c-0.3,0.1-0.7,0.3-1,0.5c0,4,1.8,7.8,3,11.7c1.1,8.9,1.5,15.5,1.5,24.5
							l0.3,0.1c0.8-4.5,0.3-9.9,0.3-13.5c0-2.3-0.6-6.9-1.4-12.1C-744.5,220.3-747,216.8-746.9,210.3z"/>
						<path class="st28" d="M-730,206.9c-2.8,0.4-6.3,0.3-9.1,0.6c-1.1,0.3-2.1,0.5-2.9,0.8c-1.2,5.5,5.6,13.2,14.5,5.7
							c0.6-0.5,1.2,0.8,1.6,1.6c2.1,4.4,3.1,18.9,1.7,24.4c-0.4,1.6-13.8,3.2-16,3.8c-1.4,0.4-2.7,1-3.3,1.9c0,0.3,0,0.7,0,1.1
							c7.8,2.8,13.9,4.6,25.8-1.8c-0.6-9.5-1.2-15-1.9-20c-0.1-6.4,0.1-7.4,1.9-13.5C-722.2,209-724.6,208.1-730,206.9z"/>
					</g>
					<g>
						<path class="st23" d="M-739.2,207.6c-1.5,7.5,9.3,9.3,9.3-0.6C-732.9,206.7-736.1,206.9-739.2,207.6z"/>
						<path class="st25" d="M-735,213.8c2.5,0.1,5.1-1.9,5.1-6.9c-1.6-0.1-3.3-0.1-5,0c0.9,2.5,4.8,2.3,1.9,5.8
							C-733.6,213.4-734.3,213.7-735,213.8z"/>
					</g>
				</g>
			</g>
			<g>
				<path class="st29" d="M-745.9,272.9c-48.9,0-78.1-13.9-91.4-40l172.4,12.2C-682.2,261.5-709.3,272.9-745.9,272.9z"/>
				<path class="st30" d="M-714.5,249.9c-16.2-2-35.4,0.5-51.6-1.5c-2,1.3-11.5,6.2-12,7c-0.3,0.5-0.9,1.5-0.9,1.5
					c11.8,0.6,19.4,1,31.1,1.7c0.5,0,1.5-0.5,2.1-1.1c0.1-0.1,0.2,0,0.3,0c7.4,1,14.5,0.9,21.9,1.9
					C-721.9,258.5-715.4,251.5-714.5,249.9z"/>
			</g>
			<g>
				<path class="st31" d="M-749.9,252.7c0,1,0,2,0,3c1.1-0.7,1.8-1.7,2.6-2.6C-748.2,252.9-749.1,252.8-749.9,252.7z"/>
				<g>
					<polygon class="st32" points="-777.4,254.9 -777.5,251.5 -750.6,251.7 -750.9,255.5 					"/>
					<linearGradient id="SVGID_4_" gradientUnits="userSpaceOnUse" x1="-757.0175" y1="248.8823" x2="-739.4252" y2="249.8043">
						<stop  offset="0" style="stop-color:#FFFFFF"/>
						<stop  offset="1" style="stop-color:#E6E7E8"/>
					</linearGradient>
					<polygon class="st33" points="-750.8,251.7 -777.4,251.5 -764.3,244.8 -744.6,246.2 					"/>
				</g>
				<g>
					<path class="st34" d="M-723.7,256.1l7.9-8.2c-3.9,0.2-34.8,0-35,3.6c0,0.2,0,0.3,0,0.5L-723.7,256.1z"/>
					<path class="st35" d="M-750.8,251.7c0.7-1.1,2.1-1.5,3.5-1.4c8,0.8,16,1.7,24.1,2.5c2.4-1.6,5-3.3,7.4-4.8
						c-9.4-1.1-18.4-1.6-28.7-2.6C-745.8,245.2-750.8,250-750.8,251.7z"/>
					<path class="st32" d="M-750.3,250.4c2.2-3.2,6.4-2,10.3-1.4c5.6,0.8,11.7,2.3,17.3,3.5c-7-0.8-14.1-2.7-21-3.5
						C-747.6,248.6-747.8,248.2-750.3,250.4z"/>
				</g>
				<path class="st36" d="M-778.2,254.5v0.9c9.3,0.3,18.1,0.6,27.4,0.9c0.3-0.2,0.6-0.4,0.8-0.7v-3l26.4,4.1l7.8-7.7V248l-7.9,7.5
					c-8.9-1.3-17.7-2.5-26.6-3.8c-0.1,0-0.2-0.1-0.3,0c0,0-0.1,0-0.1,0.2c-0.1,0.9-0.1,3.3-0.2,3.6L-778.2,254.5z"/>
			</g>
			<g>
				<g>
					<g>
						<path class="st23" d="M-708.8,229.5c-2.4,0.3-4.7,0.6-7.1,0.9c0.1,0.7,0.1,1.5,0.2,2.2c0.1,2.8,0.1,5.6,0.2,8.3
							c-6.1,2.5-7.6,2.9-12.6,3.7c0.2,1.2-0.4,2.2-0.2,3.4c2.9-0.2,13.5,0.2,17.6-1.9c0.9-0.5,1.5-0.9,1.6-1.7
							C-708.6,239.4-708.8,234.5-708.8,229.5z"/>
						<path class="st25" d="M-708.8,229.5c-2.4,0.3-4.7,0.6-7.1,0.9c0.1,0.7,0.1,1.5,0.2,2.2l0,2.2c2.3-0.2,4.5-0.5,4.7,4.6
							c0.2,4.1,0.7,4.4-4.1,6.1c-2.3,0.8-9.9,2.1-13.3,2.3c0,0.1,0,0.2,0,0.2c2.9-0.2,13.5,0.2,17.6-1.9c0.9-0.5,1.5-0.9,1.6-1.7
							C-708.6,239.4-708.8,234.5-708.8,229.5z"/>
						<path class="st24" d="M-715.6,234.8l0.1,6.2c-6.1,2.5-7.6,2.9-12.6,3.7c0,0.1,0,0.1,0,0.2c0.4,0.1,0.7,0.2,1.1,0.2
							c1.1,0.2,1.4,0.2,2,0c2.8-0.9,10-3.2,10-3.9c0-2-0.1-4.4-0.4-6.4L-715.6,234.8z"/>
					</g>
					<g>
						<path class="st25" d="M-740.2,243.4c1-0.8,2.2-1.4,3.1-2.2c-0.8-0.4-3.5,1.4-4.4,2.2c-0.5,0.4-1.5,1-1.8,1.5
							c-1.1,1.4,0.7,1.3,1.6,0.8C-740.8,245-740.7,244-740.2,243.4z"/>
						<path class="st23" d="M-726.6,244.4c-1-0.3-8.5-2.5-8.8-2.5c-0.8-0.9-1.1-1.4-2.2-0.8c-1.2,0.7-2.6,1.6-3.7,2.4
							c-0.2,0.2-0.4,0.4-0.6,0.8c-0.4,0.9-0.7,1.9-1.1,2.8c-0.2,0.4-0.2,0.4,0,0.6c0,0,0,0.3,0.1,0.3c0.2,0.2,0.4,0.1,0.5,0.2
							c0.3,0.3,0.5,0.3,1.3,0.3c0.3,0,0.7,0,1.1-0.1c0.4,0.7,1.2,0.6,2.1,0.3c0.7-0.2,1.4-0.7,1.7-0.9c0.6-0.4,1.3-0.9,1.8-1.4
							c2.2,1.9,3.4,1.9,7.3,1.6C-726.7,246.9-726.5,245.4-726.6,244.4z"/>
						<path class="st24" d="M-726.6,244.4c-1-0.3-8.5-2.5-8.8-2.5c-0.8-0.9-1.1-1.4-2.2-0.8c-1.2,0.7-2.6,1.6-3.7,2.4
							c-0.2,0.2-0.4,0.4-0.6,0.8c-0.4,0.9-0.7,1.9-1.1,2.8c-0.2,0.4-0.2,0.4,0,0.6c0,0,0,0.2,0.1,0.2c0,0,0,0.1,0,0.1
							c0.4-1.2,0.9-3.8,1.9-4.4c1.2-0.8,3.6-2.5,4.2-2.1c0.7,0.5,1.1,0.8,1.9,1.2c2.3,1.1,5.1,1.9,7.8,2.4c0.2,0,0.3,0.1,0.4,0.1
							C-726.5,244.8-726.6,244.6-726.6,244.4z"/>
						<path class="st37" d="M-737.1,241.6c-1.1,1.4-1.4,1.5-3.1,2.9c0,0-1.9,2.3-2.8,3.1C-740.6,244.1-740.6,244.2-737.1,241.6
							L-737.1,241.6z M-735.7,242.6c-4.8,3.1-2.6,1.3-6.7,5.5l0,0c2.2-1.7,2.8-2.3,3.3-2.7C-738.4,245-737.9,244.7-735.7,242.6
							L-735.7,242.6z M-734.2,244c-0.8,0.4-2.5,1.5-2.5,1.5c-1,0.6-1.4,0.9-1.7,1.1c-0.4,0.3-0.5,0.5-1.6,1.8
							c0.8-0.6,1.3-1.1,1.8-1.4C-736.8,246.1-735.9,245.8-734.2,244z"/>
					</g>
				</g>
				<g>
					<path class="st26" d="M-720.8,222.5c2.6,4.1,2.7,5.2,4,10.1c1.9,1.1,9.6-1.4,9.6-2.3c-2.7-7.2-4.7-13.4-10.5-18.7
						C-720.3,213.4-722.1,220.3-720.8,222.5z"/>
					<path class="st27" d="M-720.8,222.5c2.6,4.1,2.7,5.2,4,10.1c0.1,0.1,0.2,0.1,0.3,0.1c0.2-3.6-1.8-9.3-4-10.4
						c-0.1-0.1-0.3-0.1-0.4-0.1C-720.9,222.4-720.8,222.4-720.8,222.5z"/>
					<path class="st28" d="M-716,232.9c2.7,0.3,8.8-1.8,8.8-2.6c-2.7-7.2-4.7-13.4-10.5-18.7c-2.5,1.8-4.3,8.4-3.1,10.7
						c0.2-0.1,0.4-0.3,0.5-0.8c5.9-15.2,10.9,7.8,9.7,8.8C-712.2,231.7-714.2,232.1-716,232.9z"/>
				</g>
			</g>
			<g>
				<path class="st23" d="M-763.4,240.4c-1-0.4-2.4-1.8-1.4-2.5c1,0.1,5.3,0.3,5.7,0.8c0.6,0.8,1.8,2.2,1.8,2.6
					c0,0.5,0.4,1.4,0.4,1.9c0,0.6-0.4,0.8-0.9,0.7c-0.8-0.2-2-1.1-2.2-3.1C-760.7,240.6-762.7,240.6-763.4,240.4z"/>
				<path class="st25" d="M-763.4,240.4c-1-0.4-2.4-1.8-1.4-2.5c0.6,0.1,2.1,0.1,3.4,0.3c0.3,0.3,0.5,0.7,0.7,0.8c1,0.8,1,0.6,2,1.2
					c0.3,0.2-0.2,2.2,1.3,3.3c0.1,0.1,0.2,0.1,0.3,0.1c-0.2,0.2-0.4,0.2-0.7,0.2c-0.8-0.2-2-1.1-2.2-3.1
					C-760.7,240.6-762.7,240.6-763.4,240.4z"/>
			</g>
			<path class="st38" d="M-757.9,246.5c-3.6-4.6-8.1-10.2-11.7-14.9c-1-1.2,0.7-1.6,1.3-0.6l11.9,14.6l0.3,1.6L-757.9,246.5z"/>
			<g>
				<path class="st23" d="M-768.6,235.2c-1.2,1.1-2.1,2.3-2.2,5.3c0,2,0.7,3.8,1.8,5.5c0.5,0.7,0.4,0.9,1.2,1
					c0.5,0.1,1.1,0.1,1.6,0.2c0.2,0,0.4-0.2,0.5-0.5c1.6,0.4,2.3,0.9,3.7-0.2c0.1,0,0.1,0,0.2,0c1.7,0,2.5-0.8,2.5-1.8
					c0.1-0.1,0-0.1,0.1-0.1c0.8-0.3,0.8-1.5,0.1-2c-1-0.5-2.2-0.8-3.2-1.3c-0.4-0.6-0.7-1.3-1.1-1.9c-0.4-0.6-1.1-1.3-1.9-1.9
					C-766.6,236.2-768.4,235.3-768.6,235.2z"/>
				<path class="st24" d="M-768.6,235.2c-1.2,1.1-2.1,2.3-2.2,5.3c0,2,0.7,3.8,1.8,5.5c0.5,0.7,0.4,0.9,1.2,1
					c0.5,0.1,1.1,0.1,1.6,0.2c0.2,0,0.4-0.2,0.5-0.4c-0.6,0-1.5-0.2-2.1-0.4c-0.9-0.3-1.7-3-2-3.9c-1.1-3.6-0.1-5.6,1.3-7.1
					C-768.5,235.3-768.5,235.2-768.6,235.2L-768.6,235.2z M-765.4,246.7l0.1,0C-765.3,246.7-765.3,246.7-765.4,246.7L-765.4,246.7z"
					/>
				<path class="st37" d="M-766.2,241c1.5,1.1,0.8,0.6,2.2,1.7c1.5,0.5,0.7,0.2,2.2,0.8l0,0c-1.9-0.7,0.8,0.2,2.7,1
					C-763.2,243.7-763.5,243.9-766.2,241z"/>
				<path class="st37" d="M-767.1,242c1.3,1.4,0.7,0.7,1.9,2.2c1.4,1,0.7,0.5,2.1,1.6c0.9,0.4,0.5,0.2,1.4,0.6
					C-764.7,246-765.6,244.6-767.1,242z"/>
				<path class="st37" d="M-768.2,243.6c0.9,1,0.5,0.5,1.3,1.6c1,0.9,0.5,0.4,1.5,1.5C-767.6,245.6-767.3,245.9-768.2,243.6z"/>
			</g>
			<g>
				<g>
					<path class="st23" d="M-757.1,189.5l-0.4-4.7c0-2.7-0.5-4.4-3.3-5.5c-1.8-0.7-4.6,0-5.2,2.2
						C-767.9,188.5-759.4,193.1-757.1,189.5L-757.1,189.5z"/>
					<path class="st25" d="M-757.5,184.7c0-2.7-0.5-4.4-3.3-5.5c-0.9-0.3-2-0.4-2.9-0.1c1.7,0.3,4.6,2.7,4.2,4.8
						c-0.2,0.9-2.3-3.5-4.1-1.2c-0.7,0.9,0.1,6.3,6.4,6.7L-757.5,184.7z"/>
					<path class="st37" d="M-764,182.9c1.9-2.7,4.8,0.5,5.6,2.8l0.5,2.9l-1.5-2.5C-761.2,183.4-761.3,182.4-764,182.9z"/>
					<path class="st24" d="M-763.3,179.1c-1.2,0.3-2.4,1.1-2.7,2.4c-1.2,4.2,1.5,7.6,4.3,8.8c-1.6-0.9-2.5-2.8-3.1-4.4
						c-1.1-3.1,0.2-6,2.2-6.2C-761.4,179.5-762.2,179.2-763.3,179.1z"/>
				</g>
				<path class="st39" d="M-753.9,160.6l-3.2-3.8c-8.3,13.4-2.1,22.1,0,24.9L-753.9,160.6z"/>
				<g>
					<path class="st39" d="M-715,153.9c-3.4,1.6-6.8,3.3-10.3,4.9c5.1,8.3,6.5,16.8,5.8,26.2c9.3-2.1,16-9.5,13.9-19.5
						C-706.6,160.6-710,156.3-715,153.9z"/>
					<path class="st40" d="M-721.5,188.7l-2-26.6l2.1-3.1c1.7,1.3,7.5,9.3,4.9,18c-1.1,3.5-0.6,4.2-2.7,7.8
						C-719.6,185.7-720.5,188.5-721.5,188.7z"/>
					<path class="st40" d="M-711.9,171.6c1.6-4.7,1-14-3.6-16.7C-710.9,154.3-707.6,167.5-711.9,171.6z"/>
					<path class="st40" d="M-709.7,174.3c1.7-5.7,0.9-14.7-4.1-18.4l-1.3-0.9C-706.9,157.2-706.2,170.7-709.7,174.3z"/>
				</g>
				<g>
					<path class="st23" d="M-733.5,203.1c-1.4,0.2-2.9,0.4-4.3,0.7c1.2,2,1.2,5.1,0.6,6.8c-0.1,0.2,0,0.3,0.3,0.3
						c0.9,0.2,3.3-0.8,4-2C-733.5,207-733.7,204.8-733.5,203.1z"/>
					<path class="st24" d="M-737,205.8c0.4,1.7,0.2,3.5-0.2,4.8c-0.1,0.2,0,0.3,0.3,0.3c0,0,0.1,0,0.1,0c1.1-2.5,0.6-4.1,0.6-4.7
						C-736.2,206-736.6,205.9-737,205.8z"/>
					<path class="st41" d="M-733.5,203.1c-1.4,0.2-2.9,0.4-4.3,0.7c0.4,0.7,0.7,1.5,0.9,2.3c1.2-0.1,2.3-0.2,3.4-0.4
						C-733.6,204.8-733.6,203.9-733.5,203.1z"/>
				</g>
				<g>
					<path class="st23" d="M-725.9,156.9c11,0,6.5,24.5,6.5,32.8c0,8.3-8.9,14.9-20,14.9s-20-6.7-20-14.9c0-1.6,0.3-3.2,1-4.7
						c2.1-4.8-2.2-14.1,1.1-21.9c0.8-1.8,2-3.2,3.8-3.9C-750.2,158.2-729.6,156.9-725.9,156.9z"/>
					<path class="st25" d="M-748.3,168.3c3.6,0,6.5,4.3,6.5,9.6c0,5.3-2.9,9.6-6.5,9.6c-3.6,0-6.5-4.3-6.5-9.6
						C-754.8,172.6-751.9,168.3-748.3,168.3z"/>
					<ellipse class="st25" cx="-732.1" cy="177.5" rx="6.5" ry="9.6"/>
					<path class="st25" d="M-725.9,156.9c11,0,6.5,24.5,6.5,32.8c0,8.3-8.9,14.9-20,14.9c-2.6,0-5.2-0.4-7.5-1.1
						c-0.4-0.4-0.3-0.7,0.2-0.5c6.2,2.7,18.4-0.2,22.6-7.9c2.7-4.9,1.7-14,1.8-16c0.1-2.9,0.4-13.4-1.9-15.3
						c-0.4-0.3-1.1-0.3-2.5,0.2c-7.6,2.4-22.5,3.9-26.8-4.8C-750.2,158.2-729.6,156.9-725.9,156.9L-725.9,156.9z M-753.4,159.3
						L-753.4,159.3l-0.5,1.4c0.5-0.5,0.3-0.3,0.3-0.9C-753.6,159.6-753.5,159.4-753.4,159.3z"/>
					<path class="st24" d="M-742.8,204.4c-9.4-1.2-16.5-7.4-16.5-14.7c0-1.6,0.3-3.2,1-4.7c2.1-4.8-2.2-14.1,1.1-21.9
						c0.6-1.4,1.4-2.5,2.6-3.3c-5.5,8.5-0.8,19.7-2.8,26.4c-1,3.3-0.5,5.3,0.6,7.7C-754,199.7-748.5,202.4-742.8,204.4z"/>
					<g>
						<ellipse class="st35" cx="-748.3" cy="179.5" rx="5" ry="8"/>
						<g>
							<path class="st42" d="M-748.3,171.5c2.8,0,5,3.6,5,8c0,4.4-2.3,8-5,8c-0.2,0-0.4,0-0.6-0.1c4.1-3.3,3.5-13.4-0.7-15.7
								C-749.2,171.5-748.8,171.5-748.3,171.5z"/>
							<path class="st35" d="M-745.8,184.5c1.1,1.6,1.7-2,1.3-2.6c-0.2-0.2-0.4-0.2-0.6,0.2C-745.5,182.9-745.8,184.4-745.8,184.5z"
								/>
						</g>
						<g>
							<path class="st43" d="M-747,172.6c0.7,0,1.3,0.4,1.8,1.1c0.4,0.6,0.6,1.3,0.6,2.1c0,0.8-0.2,1.6-0.6,2.1
								c-0.4,0.7-1,1.1-1.8,1.1c-0.7,0-1.3-0.4-1.8-1.1c-0.4-0.6-0.6-1.3-0.6-2.1c0-0.8,0.2-1.6,0.6-2.1
								C-748.3,173-747.7,172.6-747,172.6L-747,172.6z M-746.6,174.6c-0.1-0.2-0.2-0.3-0.3-0.3c-0.1,0-0.2,0.1-0.3,0.3
								c-0.2,0.3-0.3,0.7-0.3,1.2c0,0.5,0.1,0.9,0.3,1.2c0.1,0.2,0.2,0.3,0.3,0.3c0.1,0,0.2-0.1,0.3-0.3c0.2-0.3,0.3-0.7,0.3-1.2
								C-746.3,175.4-746.5,174.9-746.6,174.6z"/>
							<path class="st44" d="M-747,173.5c0.5,0,1,0.3,1.3,0.8c0.3,0.4,0.4,0.9,0.4,1.5c0,0.6-0.2,1.1-0.4,1.5
								c-0.3,0.5-0.7,0.8-1.3,0.8c-0.5,0-1-0.3-1.3-0.8c-0.3-0.4-0.4-0.9-0.4-1.5c0-0.6,0.2-1.1,0.4-1.5
								C-748,173.8-747.5,173.5-747,173.5L-747,173.5z M-746.7,175c-0.1-0.1-0.2-0.2-0.2-0.2c-0.1,0-0.2,0.1-0.2,0.2
								c-0.1,0.2-0.2,0.5-0.2,0.9c0,0.4,0.1,0.7,0.2,0.9c0.1,0.1,0.2,0.2,0.2,0.2c0.1,0,0.2-0.1,0.2-0.2c0.1-0.2,0.2-0.5,0.2-0.9
								C-746.5,175.5-746.6,175.2-746.7,175z"/>
						</g>
					</g>
					<path class="st45" d="M-739.4,193.6c0.6-0.2,1.8,1.1,1.9,2.1c0.1,0.8-2,1.2-1.4-0.1C-738.4,194.6-739.5,193.7-739.4,193.6z"/>
					<g>
						<path class="st37" d="M-740.3,189.9c-2.6,0.6-4.1-2.2-3.1-4.4c1.8-2.6,6-0.3,5.3,2.1C-739.8,181.9-746.6,187.5-740.3,189.9z"
							/>
						<path class="st24" d="M-740.3,186.3c0.2,0.7-2.1,2.2-2.2,0.3c0-0.1,0.4-0.9,1.1-0.9C-741.1,185.6-740.3,185.9-740.3,186.3z"/>
					</g>
					<path class="st37" d="M-737,196.6c0.1,0.1,0.1,0.5-0.1,0.7c-1.2,1.1-1.7-0.4-1.6-0.3C-737.9,197.3-737,196.4-737,196.6z"/>
					<g>
						<path class="st35" d="M-732.3,170.9c2.8,0,5,3.6,5,8c0,4.4-2.3,8-5,8c-2.8,0-5-3.6-5-8C-737.4,174.5-735.1,170.9-732.3,170.9z
							"/>
						<path class="st42" d="M-732.3,170.9c2.8,0,5,3.6,5,8c0,4.4-2.3,8-5,8c-0.2,0-0.3,0-0.5,0c0.6-0.4,1.2-1.1,1.7-2.3
							c1.9-4.7,1.8-9.6-1.6-13.4c0-0.1-0.2-0.2-0.3-0.3C-732.8,171-732.6,170.9-732.3,170.9z"/>
						<g>
							<path class="st43" d="M-730.9,172.8c0.7,0,1.3,0.4,1.8,1.1c0.3,0.6,0.6,1.3,0.6,2.1c0,0.8-0.2,1.6-0.6,2.1
								c-0.4,0.7-1,1.1-1.8,1.1c-0.7,0-1.3-0.4-1.8-1.1c-0.3-0.6-0.6-1.3-0.6-2.1c0-0.8,0.2-1.6,0.6-2.1
								C-732.2,173.2-731.6,172.8-730.9,172.8L-730.9,172.8z M-730.5,174.7c-0.1-0.2-0.2-0.3-0.3-0.3c-0.1,0-0.2,0.1-0.3,0.3
								c-0.2,0.3-0.3,0.7-0.3,1.2c0,0.5,0.1,0.9,0.3,1.2c0.1,0.2,0.2,0.3,0.3,0.3c0.1,0,0.2-0.1,0.3-0.3c0.2-0.3,0.3-0.7,0.3-1.2
								C-730.2,175.5-730.3,175-730.5,174.7z"/>
							<path class="st44" d="M-730.9,173.6c0.5,0,1,0.3,1.3,0.8c0.3,0.4,0.4,0.9,0.4,1.5c0,0.6-0.2,1.1-0.4,1.5
								c-0.3,0.5-0.7,0.8-1.3,0.8s-1-0.3-1.3-0.8c-0.3-0.4-0.4-0.9-0.4-1.5c0-0.6,0.2-1.1,0.4-1.5
								C-731.8,173.9-731.4,173.6-730.9,173.6L-730.9,173.6z M-730.6,175.1c-0.1-0.1-0.2-0.2-0.2-0.2c-0.1,0-0.2,0.1-0.2,0.2
								c-0.1,0.2-0.2,0.5-0.2,0.9c0,0.4,0.1,0.7,0.2,0.9c0.1,0.1,0.2,0.2,0.2,0.2c0.1,0,0.2-0.1,0.2-0.2c0.1-0.2,0.2-0.5,0.2-0.9
								C-730.4,175.6-730.5,175.3-730.6,175.1z"/>
						</g>
						<path class="st35" d="M-729.7,183.5c1.1,1.6,1.7-2,1.3-2.6c-0.2-0.2-0.4-0.2-0.6,0.2C-729.4,181.9-729.8,183.4-729.7,183.5z"
							/>
					</g>
					<path class="st39" d="M-725.9,170.7c-0.3-2.9-3.3-5.5-6-5.2c-0.7,0.1-2.3,1.2-0.7,1.3C-729.6,167-727.2,168.3-725.9,170.7z"/>
					<path class="st39" d="M-748.3,165.6c-2.1,0.1-4.7,2.2-5.8,5c1.3-1.7,5.2-4.1,7.7-3.4C-745.3,167.6-746.3,165.5-748.3,165.6z"/>
				</g>
				<g>
					<path class="st23" d="M-720.5,193.2V188c0.6-6.7,11.5-12,12.3-3.3C-707.5,192.6-719.3,197.3-720.5,193.2z"/>
					<path class="st25" d="M-720.5,188c0.4-4.2,4.8-7.9,8.2-7.9c-3.3,1.9-5.3,5.9-4.6,5.9c1.1-2,7.5-3.1,5.8,1.4
						c-2.1,5.7-7.3,6.5-9.4,4.6C-721.6,191.2-720.4,188.3-720.5,188z"/>
					<path class="st37" d="M-719,189.9c0.6-3.1,3.3-6.8,6.6-5.8c1.2,0.4,1.6,1.3,1.7,2.4l-0.6-0.6
						C-713.9,183.1-717.5,187.9-719,189.9z"/>
				</g>
				<path class="st39" d="M-701.8,153.7c-3.7-2.2-8.2-0.4-12.2,1c-0.2,0.1-0.5-0.3-0.4-0.6c0.7-3.7,1.2-6.4,0.9-10.2
					c1.4,1.9,1.6,4.7,1,7.2c0.5-0.7,1-1.5,2-2.4c1-1,4.1-3,5.4-1.2c-3.4-0.1-4.1,1.9-6.8,4.7l-1.5,1.5l1.1-0.8
					C-709.8,151.5-703.6,150-701.8,153.7z"/>
				<g>
					<path class="st39" d="M-714.3,154.5c-8.5,5.8-16,10.7-31,9c-15.6-1.7-17.2-11.1-15.6-18.3c0.8-3.4,4.4-9.6,4.2-8.8
						c-3.1,8.3,13.7,3.8,16.6,3.4C-732.2,138.9-715.9,141.9-714.3,154.5z"/>
					<g>
						<path class="st40" d="M-745.1,155.5c-11.7,2.2-17-8.9-12.2-17.6C-759,151.7-754,153.9-745.1,155.5z"/>
						<path class="st40" d="M-744.4,146.6c-6.6,1.8-15.7,0.4-12.9-8.4l0.1,1.6C-756.6,146.7-749.9,146.3-744.4,146.6z"/>
					</g>
					<g>
						<path class="st40" d="M-732.6,151.4c5.2-2.6,13.9-1.9,17.7,3.4c0.1,0.1,0.1,0.6,0.2,0.7h0
							C-720.6,151.1-725.8,150.4-732.6,151.4z"/>
						<path class="st40" d="M-725.8,145.6c5,0.1,10.3,2.2,11,7.9v1.9c-0.1-0.5-0.5-0.4-0.7-0.8C-717.4,149-719.8,147.9-725.8,145.6z
							"/>
					</g>
					<path class="st46" d="M-743.3,145.4c0,0,1.8,0.1,2.2,0.1c0.9-0.1,11-2.2,9.9-1.3c-1,0.9-12,5.1-3.4,3.8c2-0.3-2.5,1.8-1.1,1.8
						c3.5,0.1-1.3,2.8,0.9,4.7c1.7,1.5,6.9-1.9,9.1-1.9c1,0-3.7,2.6-4.1,2.7c-1,0.4-7.8,3.5-8.1,3.5c-0.5,0-0.8,0.9-0.6-0.1
						c0.5-3,3.9-5,0.4-3.2c-3.7,1.9-5.2,1.3-2.1-2.4c5-5.7,1.2-2-2.1-2.6c-1.1-0.2,3-2.4,2.7-2.4c-3.2,0,3-1.8,1.1-1.6
						C-739.6,146.7-742.5,146.4-743.3,145.4z"/>
				</g>
			</g>
		</g>
	</g>
	<g>
		<path class="st6" d="M-525,533.5h-16.5c-1.4,0-2.5-1.1-2.5-2.5v-1.1c0-1.4,1.1-2.5,2.5-2.5h16.5c1.4,0,2.5,1.1,2.5,2.5v1.1
			C-522.4,532.4-523.6,533.5-525,533.5z"/>
		<path class="st6" d="M-515,529.5l-12-6.9c-0.7-0.4-1.6,0.1-1.6,0.9v13.9c0,0.8,0.9,1.3,1.6,0.9l12-6.9
			C-514.3,530.9-514.3,529.9-515,529.5z"/>
	</g>
	<text transform="matrix(1 0 0 1 -710.7861 7.5283)" class="st1" style="font-family:'MyriadPro-Semibold'; font-size:11.8903px;">Calificación</text>
	<text transform="matrix(1 0 0 1 -778.4346 6.9683)" class="st1" style="font-family:'MyriadPro-Semibold'; font-size:11.8903px;">Preguntas</text>
	<g>
		<g>
			<path class="st47" d="M-462,383.3c0,7.6-6.1,13.7-13.7,13.7c-7.6,0-13.7-6.1-13.7-13.7c0-7.6,6.1-13.7,13.7-13.7
				C-468.1,369.6-462,375.7-462,383.3z"/>
			<polygon class="st8" points="-469.1,383.2 -479.6,375.9 -476.1,383.2 -479.6,390.5 			"/>
		</g>
	</g>
	<g>
		<g>
			<path class="st48" d="M-605.7,411.3c0,12.3-9.9,22.2-22.2,22.2c-12.3,0-22.2-9.9-22.2-22.2s9.9-22.2,22.2-22.2
				C-615.6,389.1-605.7,399.1-605.7,411.3z"/>
			<linearGradient id="SVGID_5_" gradientUnits="userSpaceOnUse" x1="-644.9541" y1="395.1399" x2="-615.7715" y2="422.7702">
				<stop  offset="0" style="stop-color:#8BC53F"/>
				<stop  offset="0.2031" style="stop-color:#88C33A"/>
				<stop  offset="0.4307" style="stop-color:#7FBE2D"/>
				<stop  offset="0.6692" style="stop-color:#71B617"/>
				<stop  offset="0.8539" style="stop-color:#62AD00"/>
			</linearGradient>
			<path class="st49" d="M-605.9,411.1c0,12.3-9.9,22.2-22.2,22.2c-12.3,0-22.2-9.9-22.2-22.2s9.9-22.2,22.2-22.2
				C-615.8,388.9-605.9,398.9-605.9,411.1z"/>
			<path class="st8" d="M-613.5,409.1l-11.4-11.4c-1.1-1.1-3-1.1-4.1,0c-1.1,1.1-1.1,3,0,4.1l6.4,6.4h-18.2c-1.6,0-2.9,1.3-2.9,2.9
				c0,1.6,1.3,2.9,2.9,2.9h18.2l-6.4,6.4c-1.1,1.1-1.1,3,0,4.1c1.1,1.1,3,1.1,4.1,0l11.4-11.4c0.5-0.5,0.9-1.3,0.9-2.1
				C-612.6,410.3-612.9,409.6-613.5,409.1z"/>
		</g>
	</g>
</g>
<g id="Capa_2">
</g>
</svg>
