<?xml version="1.0" encoding="utf-8"?>
<!-- Generator: Adobe Illustrator 22.0.0, SVG Export Plug-In . SVG Version: 6.00 Build 0)  -->
<svg version="1.1" xmlns="http://www.w3.org/2000/svg" xmlns:xlink="http://www.w3.org/1999/xlink" x="0px" y="0px"
	 viewBox="0 0 235 195" style="enable-background:new 0 0 235 195;" xml:space="preserve">
<style type="text/css">
	.st0{opacity:0.2;}
	.st1{fill:#00009B;}
	.st2{fill:url(#SVGID_1_);}
	.st3{fill:#000046;}
	.st4{fill:#0B69AF;}
	.st5{fill:#058EC4;}
	.st6{fill:#FFFF00;}
	.st7{fill:none;stroke:#FFFFFF;stroke-width:1.2838;stroke-miterlimit:10;}
	.st8{fill:#FFFFFF;}
	.st9{fill-rule:evenodd;clip-rule:evenodd;fill:#C9E9EB;}
	.st10{fill-rule:evenodd;clip-rule:evenodd;fill:#B2DBEF;}
	.st11{fill-rule:evenodd;clip-rule:evenodd;fill:#95C8E9;}
	.st12{fill-rule:evenodd;clip-rule:evenodd;fill:#9A89AC;}
	.st13{fill-rule:evenodd;clip-rule:evenodd;fill:#88779A;}
	.st14{fill-rule:evenodd;clip-rule:evenodd;fill:#A5B0D2;}
	.st15{fill-rule:evenodd;clip-rule:evenodd;fill:#B2BBD9;}
	.st16{fill-rule:evenodd;clip-rule:evenodd;fill:#C0E3EF;}
	.st17{fill-rule:evenodd;clip-rule:evenodd;fill:#C4E7E9;}
	.st18{fill-rule:evenodd;clip-rule:evenodd;fill:#B3D4ED;}
	.st19{fill-rule:evenodd;clip-rule:evenodd;fill:#AABEE0;}
	.st20{fill-rule:evenodd;clip-rule:evenodd;fill:#EDF7F8;}
	.st21{fill-rule:evenodd;clip-rule:evenodd;fill:#542F31;}
	.st22{fill-rule:evenodd;clip-rule:evenodd;fill:#775656;}
	.st23{fill-rule:evenodd;clip-rule:evenodd;fill:#F0B276;}
	.st24{fill-rule:evenodd;clip-rule:evenodd;fill:#F6EFB5;}
	.st25{fill-rule:evenodd;clip-rule:evenodd;fill:#EE9146;}
	.st26{fill-rule:evenodd;clip-rule:evenodd;fill:#2F4553;}
	.st27{fill-rule:evenodd;clip-rule:evenodd;fill:#4E626F;}
	.st28{fill-rule:evenodd;clip-rule:evenodd;fill:#002336;}
	.st29{fill-rule:evenodd;clip-rule:evenodd;fill:#A0B8DD;}
	.st30{fill-rule:evenodd;clip-rule:evenodd;fill:#7D95C3;}
	.st31{fill-rule:evenodd;clip-rule:evenodd;fill:#58595B;}
	.st32{fill-rule:evenodd;clip-rule:evenodd;fill:#E6E7E8;}
	.st33{fill-rule:evenodd;clip-rule:evenodd;fill:url(#SVGID_4_);}
	.st34{fill-rule:evenodd;clip-rule:evenodd;fill:#D1D3D4;}
	.st35{fill-rule:evenodd;clip-rule:evenodd;fill:#FFFFFF;}
	.st36{fill-rule:evenodd;clip-rule:evenodd;fill:#808285;}
	.st37{fill-rule:evenodd;clip-rule:evenodd;fill:#F17D43;}
	.st38{fill-rule:evenodd;clip-rule:evenodd;fill:#414042;}
	.st39{fill-rule:evenodd;clip-rule:evenodd;fill:#583A29;}
	.st40{fill-rule:evenodd;clip-rule:evenodd;fill:#320000;}
	.st41{fill-rule:evenodd;clip-rule:evenodd;fill:#DE8435;}
	.st42{fill-rule:evenodd;clip-rule:evenodd;fill:#BED7D7;}
	.st43{fill-rule:evenodd;clip-rule:evenodd;fill:#53BA63;}
	.st44{fill-rule:evenodd;clip-rule:evenodd;fill:#231F20;}
	.st45{fill-rule:evenodd;clip-rule:evenodd;fill:#9F4515;}
	.st46{fill-rule:evenodd;clip-rule:evenodd;fill:#8D6550;}
	.st47{fill:#007070;}
	.st48{fill:#5A8229;}
	.st49{fill:url(#SVGID_5_);}
</style>
<g id="Layer_2">
	<g class="st0">
		<rect x="-879" y="-386.6" class="st1" width="636" height="315.6"/>
		<linearGradient id="SVGID_1_" gradientUnits="userSpaceOnUse" x1="-879.8516" y1="-228.8534" x2="-242.0768" y2="-228.8534">
			<stop  offset="0.1341" style="stop-color:#015489"/>
			<stop  offset="0.3156" style="stop-color:#016BFF"/>
			<stop  offset="0.5531" style="stop-color:#003EAE"/>
			<stop  offset="1" style="stop-color:#0168FF"/>
		</linearGradient>
		<path class="st2" d="M-242.1-70.2h-637.8v-317.4h637.8V-70.2z M-878.1-72h634.2v-313.8h-634.2V-72z"/>
	</g>
	<rect x="-936.1" y="-463" class="st3" width="766.2" height="489"/>
	<path class="st4" d="M-273-386.4v-13.8h-61.4v-7.8h70l21.6,21.4L-273-386.4z M-333.2-401.4h61.4v13.8l25.9-0.2l-19.1-18.9h-68.3
		V-401.4z"/>
	<path class="st4" d="M-849.5-386.4l-30.3-0.2l21.6-21.4h70v7.8h-61.4V-386.4z M-876.7-387.8l25.9,0.2v-13.8h61.4v-5.3h-68.3
		L-876.7-387.8z"/>
	<rect x="-788.5" y="-404.5" class="st4" width="454.7" height="1.3"/>
	<path class="st5" d="M-277.8-391.2h-2.1v-0.7h2.1V-391.2z M-282.1-391.2h-2.1v-0.7h2.1V-391.2z M-286.3-391.2h-2.1v-0.7h2.1V-391.2
		z M-290.6-391.2h-2.1v-0.7h2.1V-391.2z M-294.9-391.2h-2.1v-0.7h2.1V-391.2z M-299.2-391.2h-2.1v-0.7h2.1V-391.2z M-303.4-391.2
		h-2.1v-0.7h2.1V-391.2z M-307.7-391.2h-2.1v-0.7h2.1V-391.2z M-312-391.2h-2.1v-0.7h2.1V-391.2z M-316.3-391.2h-2.1v-0.7h2.1
		V-391.2z M-320.6-391.2h-2.1v-0.7h2.1V-391.2z M-324.8-391.2h-2.1v-0.7h2.1V-391.2z M-329.1-391.2h-2.1v-0.7h2.1V-391.2z
		 M-333.4-391.2h-2.1v-0.7h2.1V-391.2z M-337.7-391.2h-2.1v-0.7h2.1V-391.2z M-341.9-391.2h-2.1v-0.7h2.1V-391.2z M-346.2-391.2
		h-2.1v-0.7h2.1V-391.2z M-350.5-391.2h-2.1v-0.7h2.1V-391.2z M-354.8-391.2h-2.1v-0.7h2.1V-391.2z M-359-391.2h-2.1v-0.7h2.1
		V-391.2z M-363.3-391.2h-2.1v-0.7h2.1V-391.2z M-367.6-391.2h-2.1v-0.7h2.1V-391.2z M-371.9-391.2h-2.1v-0.7h2.1V-391.2z
		 M-376.2-391.2h-2.1v-0.7h2.1V-391.2z M-380.4-391.2h-2.1v-0.7h2.1V-391.2z M-384.7-391.2h-2.1v-0.7h2.1V-391.2z M-389-391.2h-2.1
		v-0.7h2.1V-391.2z M-393.3-391.2h-2.1v-0.7h2.1V-391.2z M-397.5-391.2h-2.1v-0.7h2.1V-391.2z M-401.8-391.2h-2.1v-0.7h2.1V-391.2z
		 M-406.1-391.2h-2.1v-0.7h2.1V-391.2z M-410.4-391.2h-2.1v-0.7h2.1V-391.2z M-414.6-391.2h-2.1v-0.7h2.1V-391.2z M-418.9-391.2
		h-2.1v-0.7h2.1V-391.2z M-423.2-391.2h-2.1v-0.7h2.1V-391.2z M-427.5-391.2h-2.1v-0.7h2.1V-391.2z M-431.8-391.2h-1.2v-0.7h1.2
		V-391.2z"/>
	<path class="st5" d="M-277.8-395.1h-2.1v-0.7h2.1V-395.1z M-282.1-395.1h-2.1v-0.7h2.1V-395.1z M-286.3-395.1h-2.1v-0.7h2.1V-395.1
		z M-290.6-395.1h-2.1v-0.7h2.1V-395.1z M-294.9-395.1h-2.1v-0.7h2.1V-395.1z M-299.2-395.1h-2.1v-0.7h2.1V-395.1z M-303.4-395.1
		h-2.1v-0.7h2.1V-395.1z M-307.7-395.1h-2.1v-0.7h2.1V-395.1z M-312-395.1h-2.1v-0.7h2.1V-395.1z M-316.3-395.1h-2.1v-0.7h2.1
		V-395.1z M-320.6-395.1h-2.1v-0.7h2.1V-395.1z M-324.8-395.1h-2.1v-0.7h2.1V-395.1z M-329.1-395.1h-2.1v-0.7h2.1V-395.1z
		 M-333.4-395.1h-2.1v-0.7h2.1V-395.1z M-337.7-395.1h-2.1v-0.7h2.1V-395.1z M-341.9-395.1h-2.1v-0.7h2.1V-395.1z M-346.2-395.1
		h-2.1v-0.7h2.1V-395.1z M-350.5-395.1h-2.1v-0.7h2.1V-395.1z M-354.8-395.1h-2.1v-0.7h2.1V-395.1z M-359-395.1h-2.1v-0.7h2.1
		V-395.1z M-363.3-395.1h-2.1v-0.7h2.1V-395.1z M-367.6-395.1h-2.1v-0.7h2.1V-395.1z M-371.9-395.1h-2.1v-0.7h2.1V-395.1z
		 M-376.2-395.1h-2.1v-0.7h2.1V-395.1z M-380.4-395.1h-2.1v-0.7h2.1V-395.1z M-384.7-395.1h-2.1v-0.7h2.1V-395.1z M-389-395.1h-2.1
		v-0.7h2.1V-395.1z M-393.3-395.1h-2.1v-0.7h2.1V-395.1z M-397.5-395.1h-2.1v-0.7h2.1V-395.1z M-401.8-395.1h-2.1v-0.7h2.1V-395.1z
		 M-406.1-395.1h-2.1v-0.7h2.1V-395.1z M-410.4-395.1h-2.1v-0.7h2.1V-395.1z M-414.6-395.1h-2.1v-0.7h2.1V-395.1z M-418.9-395.1
		h-2.1v-0.7h2.1V-395.1z M-423.2-395.1h-2.1v-0.7h2.1V-395.1z M-427.5-395.1h-2.1v-0.7h2.1V-395.1z M-431.8-395.1h-1.2v-0.7h1.2
		V-395.1z"/>
	<path class="st5" d="M-277.8-395.1h-2.1v-0.7h2.1V-395.1z M-282.1-395.1h-2.1v-0.7h2.1V-395.1z M-286.3-395.1h-2.1v-0.7h2.1V-395.1
		z M-290.6-395.1h-2.1v-0.7h2.1V-395.1z M-294.9-395.1h-2.1v-0.7h2.1V-395.1z M-299.2-395.1h-2.1v-0.7h2.1V-395.1z M-303.4-395.1
		h-2.1v-0.7h2.1V-395.1z M-307.7-395.1h-2.1v-0.7h2.1V-395.1z M-312-395.1h-2.1v-0.7h2.1V-395.1z M-316.3-395.1h-2.1v-0.7h2.1
		V-395.1z M-320.6-395.1h-2.1v-0.7h2.1V-395.1z M-324.8-395.1h-2.1v-0.7h2.1V-395.1z M-329.1-395.1h-2.1v-0.7h2.1V-395.1z
		 M-333.4-395.1h-2.1v-0.7h2.1V-395.1z M-337.7-395.1h-2.1v-0.7h2.1V-395.1z M-341.9-395.1h-2.1v-0.7h2.1V-395.1z M-346.2-395.1
		h-2.1v-0.7h2.1V-395.1z M-350.5-395.1h-2.1v-0.7h2.1V-395.1z M-354.8-395.1h-2.1v-0.7h2.1V-395.1z M-359-395.1h-2.1v-0.7h2.1
		V-395.1z M-363.3-395.1h-2.1v-0.7h2.1V-395.1z M-367.6-395.1h-2.1v-0.7h2.1V-395.1z M-371.9-395.1h-2.1v-0.7h2.1V-395.1z
		 M-376.2-395.1h-2.1v-0.7h2.1V-395.1z M-380.4-395.1h-2.1v-0.7h2.1V-395.1z M-384.7-395.1h-2.1v-0.7h2.1V-395.1z M-389-395.1h-2.1
		v-0.7h2.1V-395.1z M-393.3-395.1h-2.1v-0.7h2.1V-395.1z M-397.5-395.1h-2.1v-0.7h2.1V-395.1z M-401.8-395.1h-2.1v-0.7h2.1V-395.1z
		 M-406.1-395.1h-2.1v-0.7h2.1V-395.1z M-410.4-395.1h-2.1v-0.7h2.1V-395.1z M-414.6-395.1h-2.1v-0.7h2.1V-395.1z M-418.9-395.1
		h-2.1v-0.7h2.1V-395.1z M-423.2-395.1h-2.1v-0.7h2.1V-395.1z M-427.5-395.1h-2.1v-0.7h2.1V-395.1z M-431.8-395.1h-1.2v-0.7h1.2
		V-395.1z"/>
	<polygon class="st4" points="-853.3,-401 -853.3,-390 -870.9,-390 -855.8,-405.1 -839.5,-405.1 -839.5,-402.7 -853.3,-402.7 	"/>
	<polygon class="st4" points="-269.7,-401 -269.7,-390 -252,-390 -267.1,-405.1 -283.4,-405.1 -283.4,-402.7 -269.6,-402.7 	"/>
	<path class="st4" d="M-242.5-70.5h-637v-316.6h637V-70.5z M-878.4-71.6h635v-314.6h-635V-71.6z"/>
	<polygon class="st4" points="-852.5,-70.3 -852.5,-38.8 -841.3,-38.8 -829,-26.5 -750.4,-26.5 -750.4,-37.7 -821.3,-37.7 
		-825.4,-33.6 -834.1,-42.2 -844.1,-42.2 -844.1,-53.3 -826.7,-70.8 	"/>
	<polygon class="st4" points="-255.2,-26.5 -255.2,-55.1 -264.4,-55.1 -264.4,-40.8 -271.1,-34.2 -286.2,-34.2 -290.1,-30.3 
		-372.6,-30.3 -372.6,-26.5 	"/>
	<rect x="-258.7" y="-71.1" class="st4" width="3.4" height="15.9"/>
	<path class="st5" d="M-749.9-48.1h-86.5v-6l13.2-13.2h73.3V-48.1z M-835.3-49.2h84.4v-17.2h-71.8l-12.6,12.6V-49.2z"/>
	<rect x="-835.8" y="-45.5" class="st4" width="85.4" height="1"/>
	<rect x="-821" y="-41.5" class="st4" width="70.6" height="1"/>
	<path class="st4" d="M-292.2-32.3h-80.9v-23.3h106.3V-44l-5.8,5.8h-13.7L-292.2-32.3z M-372.1-33.4h79.4l5.9-5.9h13.7l5.2-5.2
		v-10.2h-104.2V-33.4z"/>
	<g>
		<line class="st5" x1="-368.7" y1="-51.7" x2="-270.9" y2="-51.7"/>
		<rect x="-368.7" y="-52.2" class="st4" width="97.8" height="1"/>
	</g>
	<g>
		<line class="st5" x1="-368.7" y1="-46.9" x2="-270.9" y2="-46.9"/>
		<rect x="-368.7" y="-47.4" class="st4" width="97.8" height="1"/>
	</g>
	<g>
		<polygon class="st5" points="-368.7,-40.8 -368.7,-35.7 -296.4,-35.7 -290.3,-41.8 -368.7,-41.8 		"/>
		<path class="st4" d="M-296.2-35.2h-73v-7.2h80.1L-296.2-35.2z M-368.2-36.2h71.5l5.1-5.1h-76.6V-36.2z"/>
	</g>
	<polygon class="st4" points="-372.4,-26.6 -383.5,-36.5 -739.8,-36.5 -750.6,-26.7 -751.3,-27.5 -740.2,-37.5 -383.1,-37.5 
		-371.7,-27.3 	"/>
	<rect x="-270.3" y="-67.4" class="st5" width="9.1" height="9.1"/>
	<rect x="-285.1" y="-67.4" class="st5" width="9.1" height="9.1"/>
	<rect x="-299.9" y="-67.4" class="st5" width="9.1" height="9.1"/>
	<rect x="-314.7" y="-67.4" class="st5" width="9.1" height="9.1"/>
	<rect x="-329.5" y="-67.4" class="st5" width="9.1" height="9.1"/>
	<rect x="-344.3" y="-67.4" class="st5" width="9.1" height="9.1"/>
	<rect x="-359.1" y="-67.4" class="st5" width="9.1" height="9.1"/>
	<rect x="-373.9" y="-67.4" class="st5" width="9.1" height="9.1"/>
	<path class="st5" d="M-861.4-368.8h-9.7v-9.7h9.7V-368.8z M-870.5-369.4h8.5v-8.5h-8.5V-369.4z"/>
	<rect x="-868.6" y="-375.9" class="st5" width="4.5" height="4.5"/>
	<path class="st5" d="M-250.4-368.8h-9.7v-9.7h9.7V-368.8z M-259.5-369.4h8.5v-8.5h-8.5V-369.4z"/>
	<rect x="-257.5" y="-375.9" class="st5" width="4.5" height="4.5"/>
	<path class="st5" d="M-861.4-81.2h-9.7v-9.7h9.7V-81.2z M-870.5-81.8h8.5v-8.5h-8.5V-81.8z"/>
	<rect x="-868.6" y="-88.3" class="st5" width="4.5" height="4.5"/>
	<path class="st5" d="M-250.4-81.2h-9.7v-9.7h9.7V-81.2z M-259.5-81.8h8.5v-8.5h-8.5V-81.8z"/>
	<rect x="-257.5" y="-88.3" class="st5" width="4.5" height="4.5"/>
	<rect x="-745.4" y="-63.4" class="st4" width="365.4" height="1"/>
	<polygon class="st4" points="-856.9,-62.9 -885.5,-62.9 -885.5,-124.8 -889.7,-120.5 -889.7,-59.6 -860.6,-59.6 	"/>
	<path class="st5" d="M-425.7-44.5h-0.3v-0.7h0.3V-44.5z M-428.2-44.5h-2.1v-0.7h2.1V-44.5z M-432.5-44.5h-2.1v-0.7h2.1V-44.5z
		 M-436.7-44.5h-2.1v-0.7h2.1V-44.5z M-441-44.5h-2.1v-0.7h2.1V-44.5z M-445.3-44.5h-2.1v-0.7h2.1V-44.5z M-449.6-44.5h-2.1v-0.7
		h2.1V-44.5z M-453.8-44.5h-2.1v-0.7h2.1V-44.5z M-458.1-44.5h-2.1v-0.7h2.1V-44.5z M-462.4-44.5h-2.1v-0.7h2.1V-44.5z M-466.7-44.5
		h-2.1v-0.7h2.1V-44.5z M-470.9-44.5h-2.1v-0.7h2.1V-44.5z M-475.2-44.5h-2.1v-0.7h2.1V-44.5z M-479.5-44.5h-2.1v-0.7h2.1V-44.5z
		 M-483.8-44.5h-2.1v-0.7h2.1V-44.5z M-488.1-44.5h-2.1v-0.7h2.1V-44.5z M-492.3-44.5h-2.1v-0.7h2.1V-44.5z M-496.6-44.5h-2.1v-0.7
		h2.1V-44.5z M-500.9-44.5h-2.1v-0.7h2.1V-44.5z M-505.2-44.5h-2.1v-0.7h2.1V-44.5z M-509.4-44.5h-2.1v-0.7h2.1V-44.5z M-513.7-44.5
		h-2.1v-0.7h2.1V-44.5z M-518-44.5h-2.1v-0.7h2.1V-44.5z M-522.3-44.5h-2.1v-0.7h2.1V-44.5z M-526.5-44.5h-2.1v-0.7h2.1V-44.5z
		 M-530.8-44.5h-2.1v-0.7h2.1V-44.5z M-535.1-44.5h-2.1v-0.7h2.1V-44.5z M-539.4-44.5h-2.1v-0.7h2.1V-44.5z M-543.6-44.5h-2.1v-0.7
		h2.1V-44.5z M-547.9-44.5h-2.1v-0.7h2.1V-44.5z M-552.2-44.5h-2.1v-0.7h2.1V-44.5z M-556.5-44.5h-2.1v-0.7h2.1V-44.5z M-560.8-44.5
		h-2.1v-0.7h2.1V-44.5z M-565-44.5h-2.1v-0.7h2.1V-44.5z M-569.3-44.5h-2.1v-0.7h2.1V-44.5z M-573.6-44.5h-2.1v-0.7h2.1V-44.5z
		 M-577.9-44.5h-2.1v-0.7h2.1V-44.5z M-582.1-44.5h-2.1v-0.7h2.1V-44.5z M-586.4-44.5h-2.1v-0.7h2.1V-44.5z M-590.7-44.5h-2.1v-0.7
		h2.1V-44.5z M-595-44.5h-2.1v-0.7h2.1V-44.5z M-599.2-44.5h-2.1v-0.7h2.1V-44.5z M-603.5-44.5h-2.1v-0.7h2.1V-44.5z M-607.8-44.5
		h-2.1v-0.7h2.1V-44.5z M-612.1-44.5h-2.1v-0.7h2.1V-44.5z M-616.4-44.5h-2.1v-0.7h2.1V-44.5z M-620.6-44.5h-2.1v-0.7h2.1V-44.5z
		 M-624.9-44.5h-2.1v-0.7h2.1V-44.5z M-629.2-44.5h-2.1v-0.7h2.1V-44.5z M-633.5-44.5h-2.1v-0.7h2.1V-44.5z M-637.7-44.5h-2.1v-0.7
		h2.1V-44.5z M-642-44.5h-2.1v-0.7h2.1V-44.5z M-646.3-44.5h-2.1v-0.7h2.1V-44.5z M-650.6-44.5h-2.1v-0.7h2.1V-44.5z M-654.8-44.5
		h-2.1v-0.7h2.1V-44.5z M-659.1-44.5h-2.1v-0.7h2.1V-44.5z M-663.4-44.5h-2.1v-0.7h2.1V-44.5z M-667.7-44.5h-2.1v-0.7h2.1V-44.5z
		 M-672-44.5h-2.1v-0.7h2.1V-44.5z M-676.2-44.5h-2.1v-0.7h2.1V-44.5z M-680.5-44.5h-2.1v-0.7h2.1V-44.5z M-684.8-44.5h-2.1v-0.7
		h2.1V-44.5z M-689.1-44.5h-2.1v-0.7h2.1V-44.5z M-693.3-44.5h-2.1v-0.7h2.1V-44.5z M-697.6-44.5h-2.1v-0.7h2.1V-44.5z"/>
	<path class="st5" d="M-425.7-50h-0.3v-0.7h0.3V-50z M-428.2-50h-2.1v-0.7h2.1V-50z M-432.5-50h-2.1v-0.7h2.1V-50z M-436.7-50h-2.1
		v-0.7h2.1V-50z M-441-50h-2.1v-0.7h2.1V-50z M-445.3-50h-2.1v-0.7h2.1V-50z M-449.6-50h-2.1v-0.7h2.1V-50z M-453.8-50h-2.1v-0.7
		h2.1V-50z M-458.1-50h-2.1v-0.7h2.1V-50z M-462.4-50h-2.1v-0.7h2.1V-50z M-466.7-50h-2.1v-0.7h2.1V-50z M-470.9-50h-2.1v-0.7h2.1
		V-50z M-475.2-50h-2.1v-0.7h2.1V-50z M-479.5-50h-2.1v-0.7h2.1V-50z M-483.8-50h-2.1v-0.7h2.1V-50z M-488.1-50h-2.1v-0.7h2.1V-50z
		 M-492.3-50h-2.1v-0.7h2.1V-50z M-496.6-50h-2.1v-0.7h2.1V-50z M-500.9-50h-2.1v-0.7h2.1V-50z M-505.2-50h-2.1v-0.7h2.1V-50z
		 M-509.4-50h-2.1v-0.7h2.1V-50z M-513.7-50h-2.1v-0.7h2.1V-50z M-518-50h-2.1v-0.7h2.1V-50z M-522.3-50h-2.1v-0.7h2.1V-50z
		 M-526.5-50h-2.1v-0.7h2.1V-50z M-530.8-50h-2.1v-0.7h2.1V-50z M-535.1-50h-2.1v-0.7h2.1V-50z M-539.4-50h-2.1v-0.7h2.1V-50z
		 M-543.6-50h-2.1v-0.7h2.1V-50z M-547.9-50h-2.1v-0.7h2.1V-50z M-552.2-50h-2.1v-0.7h2.1V-50z M-556.5-50h-2.1v-0.7h2.1V-50z
		 M-560.8-50h-2.1v-0.7h2.1V-50z M-565-50h-2.1v-0.7h2.1V-50z M-569.3-50h-2.1v-0.7h2.1V-50z M-573.6-50h-2.1v-0.7h2.1V-50z
		 M-577.9-50h-2.1v-0.7h2.1V-50z M-582.1-50h-2.1v-0.7h2.1V-50z M-586.4-50h-2.1v-0.7h2.1V-50z M-590.7-50h-2.1v-0.7h2.1V-50z
		 M-595-50h-2.1v-0.7h2.1V-50z M-599.2-50h-2.1v-0.7h2.1V-50z M-603.5-50h-2.1v-0.7h2.1V-50z M-607.8-50h-2.1v-0.7h2.1V-50z
		 M-612.1-50h-2.1v-0.7h2.1V-50z M-616.4-50h-2.1v-0.7h2.1V-50z M-620.6-50h-2.1v-0.7h2.1V-50z M-624.9-50h-2.1v-0.7h2.1V-50z
		 M-629.2-50h-2.1v-0.7h2.1V-50z M-633.5-50h-2.1v-0.7h2.1V-50z M-637.7-50h-2.1v-0.7h2.1V-50z M-642-50h-2.1v-0.7h2.1V-50z
		 M-646.3-50h-2.1v-0.7h2.1V-50z M-650.6-50h-2.1v-0.7h2.1V-50z M-654.8-50h-2.1v-0.7h2.1V-50z M-659.1-50h-2.1v-0.7h2.1V-50z
		 M-663.4-50h-2.1v-0.7h2.1V-50z M-667.7-50h-2.1v-0.7h2.1V-50z M-672-50h-2.1v-0.7h2.1V-50z M-676.2-50h-2.1v-0.7h2.1V-50z
		 M-680.5-50h-2.1v-0.7h2.1V-50z M-684.8-50h-2.1v-0.7h2.1V-50z M-689.1-50h-2.1v-0.7h2.1V-50z M-693.3-50h-2.1v-0.7h2.1V-50z
		 M-697.6-50h-2.1v-0.7h2.1V-50z"/>
	<path class="st5" d="M-425.7-55.6h-0.3v-0.7h0.3V-55.6z M-428.2-55.6h-2.1v-0.7h2.1V-55.6z M-432.5-55.6h-2.1v-0.7h2.1V-55.6z
		 M-436.7-55.6h-2.1v-0.7h2.1V-55.6z M-441-55.6h-2.1v-0.7h2.1V-55.6z M-445.3-55.6h-2.1v-0.7h2.1V-55.6z M-449.6-55.6h-2.1v-0.7
		h2.1V-55.6z M-453.8-55.6h-2.1v-0.7h2.1V-55.6z M-458.1-55.6h-2.1v-0.7h2.1V-55.6z M-462.4-55.6h-2.1v-0.7h2.1V-55.6z M-466.7-55.6
		h-2.1v-0.7h2.1V-55.6z M-470.9-55.6h-2.1v-0.7h2.1V-55.6z M-475.2-55.6h-2.1v-0.7h2.1V-55.6z M-479.5-55.6h-2.1v-0.7h2.1V-55.6z
		 M-483.8-55.6h-2.1v-0.7h2.1V-55.6z M-488.1-55.6h-2.1v-0.7h2.1V-55.6z M-492.3-55.6h-2.1v-0.7h2.1V-55.6z M-496.6-55.6h-2.1v-0.7
		h2.1V-55.6z M-500.9-55.6h-2.1v-0.7h2.1V-55.6z M-505.2-55.6h-2.1v-0.7h2.1V-55.6z M-509.4-55.6h-2.1v-0.7h2.1V-55.6z M-513.7-55.6
		h-2.1v-0.7h2.1V-55.6z M-518-55.6h-2.1v-0.7h2.1V-55.6z M-522.3-55.6h-2.1v-0.7h2.1V-55.6z M-526.5-55.6h-2.1v-0.7h2.1V-55.6z
		 M-530.8-55.6h-2.1v-0.7h2.1V-55.6z M-535.1-55.6h-2.1v-0.7h2.1V-55.6z M-539.4-55.6h-2.1v-0.7h2.1V-55.6z M-543.6-55.6h-2.1v-0.7
		h2.1V-55.6z M-547.9-55.6h-2.1v-0.7h2.1V-55.6z M-552.2-55.6h-2.1v-0.7h2.1V-55.6z M-556.5-55.6h-2.1v-0.7h2.1V-55.6z M-560.8-55.6
		h-2.1v-0.7h2.1V-55.6z M-565-55.6h-2.1v-0.7h2.1V-55.6z M-569.3-55.6h-2.1v-0.7h2.1V-55.6z M-573.6-55.6h-2.1v-0.7h2.1V-55.6z
		 M-577.9-55.6h-2.1v-0.7h2.1V-55.6z M-582.1-55.6h-2.1v-0.7h2.1V-55.6z M-586.4-55.6h-2.1v-0.7h2.1V-55.6z M-590.7-55.6h-2.1v-0.7
		h2.1V-55.6z M-595-55.6h-2.1v-0.7h2.1V-55.6z M-599.2-55.6h-2.1v-0.7h2.1V-55.6z M-603.5-55.6h-2.1v-0.7h2.1V-55.6z M-607.8-55.6
		h-2.1v-0.7h2.1V-55.6z M-612.1-55.6h-2.1v-0.7h2.1V-55.6z M-616.4-55.6h-2.1v-0.7h2.1V-55.6z M-620.6-55.6h-2.1v-0.7h2.1V-55.6z
		 M-624.9-55.6h-2.1v-0.7h2.1V-55.6z M-629.2-55.6h-2.1v-0.7h2.1V-55.6z M-633.5-55.6h-2.1v-0.7h2.1V-55.6z M-637.7-55.6h-2.1v-0.7
		h2.1V-55.6z M-642-55.6h-2.1v-0.7h2.1V-55.6z M-646.3-55.6h-2.1v-0.7h2.1V-55.6z M-650.6-55.6h-2.1v-0.7h2.1V-55.6z M-654.8-55.6
		h-2.1v-0.7h2.1V-55.6z M-659.1-55.6h-2.1v-0.7h2.1V-55.6z M-663.4-55.6h-2.1v-0.7h2.1V-55.6z M-667.7-55.6h-2.1v-0.7h2.1V-55.6z
		 M-672-55.6h-2.1v-0.7h2.1V-55.6z M-676.2-55.6h-2.1v-0.7h2.1V-55.6z M-680.5-55.6h-2.1v-0.7h2.1V-55.6z M-684.8-55.6h-2.1v-0.7
		h2.1V-55.6z M-689.1-55.6h-2.1v-0.7h2.1V-55.6z M-693.3-55.6h-2.1v-0.7h2.1V-55.6z M-697.6-55.6h-2.1v-0.7h2.1V-55.6z"/>
	<path class="st4" d="M-378.5-40.7h-41.9v-19.1h41.9V-40.7z M-420-41h41.2v-18.4H-420V-41z"/>
	<path class="st5" d="M-417.5-43h-0.7v-1.6h0.7V-43z M-417.5-46.7h-0.7v-2.1h0.7V-46.7z M-417.5-51h-0.7v-2.1h0.7V-51z M-417.5-55.3
		h-0.7v-2.1h0.7V-55.3z"/>
	<path class="st5" d="M-414.7-43h-0.7v-1.6h0.7V-43z M-414.7-46.7h-0.7v-2.1h0.7V-46.7z M-414.7-51h-0.7v-2.1h0.7V-51z M-414.7-55.3
		h-0.7v-2.1h0.7V-55.3z"/>
	<path class="st5" d="M-411.8-43h-0.7v-1.6h0.7V-43z M-411.8-46.7h-0.7v-2.1h0.7V-46.7z M-411.8-51h-0.7v-2.1h0.7V-51z M-411.8-55.3
		h-0.7v-2.1h0.7V-55.3z"/>
	<path class="st5" d="M-409-43h-0.7v-1.6h0.7V-43z M-409-46.7h-0.7v-2.1h0.7V-46.7z M-409-51h-0.7v-2.1h0.7V-51z M-409-55.3h-0.7
		v-2.1h0.7V-55.3z"/>
	<path class="st5" d="M-406.1-43h-0.7v-1.6h0.7V-43z M-406.1-46.7h-0.7v-2.1h0.7V-46.7z M-406.1-51h-0.7v-2.1h0.7V-51z M-406.1-55.3
		h-0.7v-2.1h0.7V-55.3z"/>
	<path class="st5" d="M-403.3-43h-0.7v-1.6h0.7V-43z M-403.3-46.7h-0.7v-2.1h0.7V-46.7z M-403.3-51h-0.7v-2.1h0.7V-51z M-403.3-55.3
		h-0.7v-2.1h0.7V-55.3z"/>
	<path class="st5" d="M-400.4-43h-0.7v-1.6h0.7V-43z M-400.4-46.7h-0.7v-2.1h0.7V-46.7z M-400.4-51h-0.7v-2.1h0.7V-51z M-400.4-55.3
		h-0.7v-2.1h0.7V-55.3z"/>
	<path class="st5" d="M-397.6-43h-0.7v-1.6h0.7V-43z M-397.6-46.7h-0.7v-2.1h0.7V-46.7z M-397.6-51h-0.7v-2.1h0.7V-51z M-397.6-55.3
		h-0.7v-2.1h0.7V-55.3z"/>
	<path class="st5" d="M-394.7-43h-0.7v-1.6h0.7V-43z M-394.7-46.7h-0.7v-2.1h0.7V-46.7z M-394.7-51h-0.7v-2.1h0.7V-51z M-394.7-55.3
		h-0.7v-2.1h0.7V-55.3z"/>
	<path class="st5" d="M-391.9-43h-0.7v-1.6h0.7V-43z M-391.9-46.7h-0.7v-2.1h0.7V-46.7z M-391.9-51h-0.7v-2.1h0.7V-51z M-391.9-55.3
		h-0.7v-2.1h0.7V-55.3z"/>
	<path class="st5" d="M-389-43h-0.7v-1.6h0.7V-43z M-389-46.7h-0.7v-2.1h0.7V-46.7z M-389-51h-0.7v-2.1h0.7V-51z M-389-55.3h-0.7
		v-2.1h0.7V-55.3z"/>
	<path class="st5" d="M-386.2-43h-0.7v-1.6h0.7V-43z M-386.2-46.7h-0.7v-2.1h0.7V-46.7z M-386.2-51h-0.7v-2.1h0.7V-51z M-386.2-55.3
		h-0.7v-2.1h0.7V-55.3z"/>
	<path class="st5" d="M-383.3-43h-0.7v-1.6h0.7V-43z M-383.3-46.7h-0.7v-2.1h0.7V-46.7z M-383.3-51h-0.7v-2.1h0.7V-51z M-383.3-55.3
		h-0.7v-2.1h0.7V-55.3z"/>
	<path class="st5" d="M-380.4-43h-0.7v-1.6h0.7V-43z M-380.4-46.7h-0.7v-2.1h0.7V-46.7z M-380.4-51h-0.7v-2.1h0.7V-51z M-380.4-55.3
		h-0.7v-2.1h0.7V-55.3z"/>
	<polygon class="st5" points="-702.9,-44.5 -745.4,-44.5 -745.4,-45.2 -703.6,-45.2 -703.6,-50 -745.7,-50 -745.7,-56.3 
		-703.3,-56.3 -703.3,-55.6 -745,-55.6 -745,-50.8 -702.9,-50.8 	"/>
	<polygon class="st5" points="-742.9,-390.5 -785.3,-390.5 -785.3,-391.2 -743.5,-391.2 -743.5,-394.9 -785.6,-394.9 -785.6,-399.9 
		-743.2,-399.9 -743.2,-399.3 -785,-399.3 -785,-395.5 -742.9,-395.5 	"/>
	<polygon class="st4" points="-238.6,-205.3 -239.7,-205.3 -239.7,-386.1 -244.3,-386.1 -244.3,-387.2 -238.6,-387.2 	"/>
	<polygon class="st4" points="-252.2,-67.7 -239.6,-67.7 -239.6,-207.4 -236.3,-204.1 -236.3,-63 -252.3,-63 	"/>
	<polygon class="st4" points="-885.3,-124.8 -886.3,-124.8 -886.3,-387.2 -870.9,-387.2 -870.9,-386.1 -885.3,-386.1 	"/>
	<rect x="-841.8" y="-396.2" class="st5" width="4.8" height="4.8"/>
	<rect x="-830.9" y="-396.2" class="st5" width="4.8" height="4.8"/>
	<rect x="-820.1" y="-396.2" class="st5" width="4.8" height="4.8"/>
	<rect x="-809.2" y="-396.2" class="st5" width="4.8" height="4.8"/>
	<rect x="-798.3" y="-396.2" class="st5" width="4.8" height="4.8"/>
	<path class="st5" d="M-438.8-391.2h-297.5v-8.7h297.5V-391.2z M-735.6-391.9h296.2v-7.4h-296.2V-391.9z"/>
	<rect x="-731.1" y="-397.3" class="st5" width="287.3" height="3.4"/>
	<rect x="-433" y="-401.2" class="st5" width="96.4" height="2.5"/>
	<polygon class="st5" points="-753.8,-64.4 -753.8,-52.4 -830.5,-52.4 -819.3,-63.6 	"/>
	<path class="st5" d="M-785.7-115.2"/>
	<rect x="-866.7" y="-364.6" class="st5" width="0.7" height="267.2"/>
	<rect x="-255.6" y="-364.6" class="st5" width="0.7" height="267.2"/>
	<rect x="-856.1" y="-374.4" class="st5" width="590.2" height="0.7"/>
	<rect x="-856.1" y="-86.6" class="st5" width="590.2" height="0.7"/>
	<g>
		<defs>
			<rect id="SVGID_2_" x="-936.1" y="-463" width="766.2" height="489"/>
		</defs>
		<clipPath id="SVGID_3_">
			<use xlink:href="#SVGID_2_"  style="overflow:visible;"/>
		</clipPath>
	</g>
	<g>
		<path class="st4" d="M1001-398.4v-13.8h-61.4v-7.8h70l21.6,21.4L1001-398.4z M940.8-413.4h61.4v13.8l25.9-0.2l-19.1-18.9h-68.3
			V-413.4z"/>
		<path class="st4" d="M424.5-398.4l-30.3-0.2l21.6-21.4h70v7.8h-61.4V-398.4z M397.3-399.8l25.9,0.2v-13.8h61.4v-5.3h-68.3
			L397.3-399.8z"/>
		<rect x="485.5" y="-416.5" class="st4" width="454.7" height="1.3"/>
		<path class="st5" d="M996.2-403.2h-2.1v-0.7h2.1V-403.2z M991.9-403.2h-2.1v-0.7h2.1V-403.2z M987.7-403.2h-2.1v-0.7h2.1V-403.2z
			 M983.4-403.2h-2.1v-0.7h2.1V-403.2z M979.1-403.2H977v-0.7h2.1V-403.2z M974.8-403.2h-2.1v-0.7h2.1V-403.2z M970.6-403.2h-2.1
			v-0.7h2.1V-403.2z M966.3-403.2h-2.1v-0.7h2.1V-403.2z M962-403.2h-2.1v-0.7h2.1V-403.2z M957.7-403.2h-2.1v-0.7h2.1V-403.2z
			 M953.4-403.2h-2.1v-0.7h2.1V-403.2z M949.2-403.2H947v-0.7h2.1V-403.2z M944.9-403.2h-2.1v-0.7h2.1V-403.2z M940.6-403.2h-2.1
			v-0.7h2.1V-403.2z M936.3-403.2h-2.1v-0.7h2.1V-403.2z M932.1-403.2h-2.1v-0.7h2.1V-403.2z M927.8-403.2h-2.1v-0.7h2.1V-403.2z
			 M923.5-403.2h-2.1v-0.7h2.1V-403.2z M919.2-403.2h-2.1v-0.7h2.1V-403.2z M915-403.2h-2.1v-0.7h2.1V-403.2z M910.7-403.2h-2.1
			v-0.7h2.1V-403.2z M906.4-403.2h-2.1v-0.7h2.1V-403.2z M902.1-403.2H900v-0.7h2.1V-403.2z M897.8-403.2h-2.1v-0.7h2.1V-403.2z
			 M893.6-403.2h-2.1v-0.7h2.1V-403.2z M889.3-403.2h-2.1v-0.7h2.1V-403.2z M885-403.2h-2.1v-0.7h2.1V-403.2z M880.7-403.2h-2.1
			v-0.7h2.1V-403.2z M876.5-403.2h-2.1v-0.7h2.1V-403.2z M872.2-403.2H870v-0.7h2.1V-403.2z M867.9-403.2h-2.1v-0.7h2.1V-403.2z
			 M863.6-403.2h-2.1v-0.7h2.1V-403.2z M859.4-403.2h-2.1v-0.7h2.1V-403.2z M855.1-403.2h-2.1v-0.7h2.1V-403.2z M850.8-403.2h-2.1
			v-0.7h2.1V-403.2z M846.5-403.2h-2.1v-0.7h2.1V-403.2z M842.2-403.2H841v-0.7h1.2V-403.2z"/>
		<path class="st5" d="M996.2-407.1h-2.1v-0.7h2.1V-407.1z M991.9-407.1h-2.1v-0.7h2.1V-407.1z M987.7-407.1h-2.1v-0.7h2.1V-407.1z
			 M983.4-407.1h-2.1v-0.7h2.1V-407.1z M979.1-407.1H977v-0.7h2.1V-407.1z M974.8-407.1h-2.1v-0.7h2.1V-407.1z M970.6-407.1h-2.1
			v-0.7h2.1V-407.1z M966.3-407.1h-2.1v-0.7h2.1V-407.1z M962-407.1h-2.1v-0.7h2.1V-407.1z M957.7-407.1h-2.1v-0.7h2.1V-407.1z
			 M953.4-407.1h-2.1v-0.7h2.1V-407.1z M949.2-407.1H947v-0.7h2.1V-407.1z M944.9-407.1h-2.1v-0.7h2.1V-407.1z M940.6-407.1h-2.1
			v-0.7h2.1V-407.1z M936.3-407.1h-2.1v-0.7h2.1V-407.1z M932.1-407.1h-2.1v-0.7h2.1V-407.1z M927.8-407.1h-2.1v-0.7h2.1V-407.1z
			 M923.5-407.1h-2.1v-0.7h2.1V-407.1z M919.2-407.1h-2.1v-0.7h2.1V-407.1z M915-407.1h-2.1v-0.7h2.1V-407.1z M910.7-407.1h-2.1
			v-0.7h2.1V-407.1z M906.4-407.1h-2.1v-0.7h2.1V-407.1z M902.1-407.1H900v-0.7h2.1V-407.1z M897.8-407.1h-2.1v-0.7h2.1V-407.1z
			 M893.6-407.1h-2.1v-0.7h2.1V-407.1z M889.3-407.1h-2.1v-0.7h2.1V-407.1z M885-407.1h-2.1v-0.7h2.1V-407.1z M880.7-407.1h-2.1
			v-0.7h2.1V-407.1z M876.5-407.1h-2.1v-0.7h2.1V-407.1z M872.2-407.1H870v-0.7h2.1V-407.1z M867.9-407.1h-2.1v-0.7h2.1V-407.1z
			 M863.6-407.1h-2.1v-0.7h2.1V-407.1z M859.4-407.1h-2.1v-0.7h2.1V-407.1z M855.1-407.1h-2.1v-0.7h2.1V-407.1z M850.8-407.1h-2.1
			v-0.7h2.1V-407.1z M846.5-407.1h-2.1v-0.7h2.1V-407.1z M842.2-407.1H841v-0.7h1.2V-407.1z"/>
		<path class="st5" d="M996.2-407.1h-2.1v-0.7h2.1V-407.1z M991.9-407.1h-2.1v-0.7h2.1V-407.1z M987.7-407.1h-2.1v-0.7h2.1V-407.1z
			 M983.4-407.1h-2.1v-0.7h2.1V-407.1z M979.1-407.1H977v-0.7h2.1V-407.1z M974.8-407.1h-2.1v-0.7h2.1V-407.1z M970.6-407.1h-2.1
			v-0.7h2.1V-407.1z M966.3-407.1h-2.1v-0.7h2.1V-407.1z M962-407.1h-2.1v-0.7h2.1V-407.1z M957.7-407.1h-2.1v-0.7h2.1V-407.1z
			 M953.4-407.1h-2.1v-0.7h2.1V-407.1z M949.2-407.1H947v-0.7h2.1V-407.1z M944.9-407.1h-2.1v-0.7h2.1V-407.1z M940.6-407.1h-2.1
			v-0.7h2.1V-407.1z M936.3-407.1h-2.1v-0.7h2.1V-407.1z M932.1-407.1h-2.1v-0.7h2.1V-407.1z M927.8-407.1h-2.1v-0.7h2.1V-407.1z
			 M923.5-407.1h-2.1v-0.7h2.1V-407.1z M919.2-407.1h-2.1v-0.7h2.1V-407.1z M915-407.1h-2.1v-0.7h2.1V-407.1z M910.7-407.1h-2.1
			v-0.7h2.1V-407.1z M906.4-407.1h-2.1v-0.7h2.1V-407.1z M902.1-407.1H900v-0.7h2.1V-407.1z M897.8-407.1h-2.1v-0.7h2.1V-407.1z
			 M893.6-407.1h-2.1v-0.7h2.1V-407.1z M889.3-407.1h-2.1v-0.7h2.1V-407.1z M885-407.1h-2.1v-0.7h2.1V-407.1z M880.7-407.1h-2.1
			v-0.7h2.1V-407.1z M876.5-407.1h-2.1v-0.7h2.1V-407.1z M872.2-407.1H870v-0.7h2.1V-407.1z M867.9-407.1h-2.1v-0.7h2.1V-407.1z
			 M863.6-407.1h-2.1v-0.7h2.1V-407.1z M859.4-407.1h-2.1v-0.7h2.1V-407.1z M855.1-407.1h-2.1v-0.7h2.1V-407.1z M850.8-407.1h-2.1
			v-0.7h2.1V-407.1z M846.5-407.1h-2.1v-0.7h2.1V-407.1z M842.2-407.1H841v-0.7h1.2V-407.1z"/>
		<polygon class="st4" points="420.7,-413 420.7,-402 403.1,-402 418.2,-417.1 434.5,-417.1 434.5,-414.7 420.7,-414.7 		"/>
		<polygon class="st4" points="1004.3,-413 1004.3,-402 1022,-402 1006.9,-417.1 990.6,-417.1 990.6,-414.7 1004.4,-414.7 		"/>
		<path class="st4" d="M1031.5-82.5h-637v-316.6h637V-82.5z M395.6-83.6h635v-314.6h-635V-83.6z"/>
		<polygon class="st4" points="421.5,-82.3 421.5,-50.8 432.7,-50.8 445,-38.5 523.6,-38.5 523.6,-49.7 452.7,-49.7 448.6,-45.6 
			439.9,-54.2 429.9,-54.2 429.9,-65.3 447.3,-82.8 		"/>
		<polygon class="st4" points="1018.8,-38.5 1018.8,-67.1 1009.6,-67.1 1009.6,-52.8 1002.9,-46.2 987.8,-46.2 983.9,-42.3 
			901.4,-42.3 901.4,-38.5 		"/>
		<rect x="1015.3" y="-83.1" class="st4" width="3.4" height="15.9"/>
		<path class="st5" d="M524.1-60.1h-86.5v-6l13.2-13.2h73.3V-60.1z M438.7-61.2h84.4v-17.2h-71.8l-12.6,12.6V-61.2z"/>
		<rect x="438.2" y="-57.5" class="st4" width="85.4" height="1"/>
		<rect x="453" y="-53.5" class="st4" width="70.6" height="1"/>
		<path class="st4" d="M981.8-44.3h-80.9v-23.3h106.3V-56l-5.8,5.8h-13.7L981.8-44.3z M901.9-45.4h79.4l5.9-5.9h13.7l5.2-5.2v-10.2
			H901.9V-45.4z"/>
		<g>
			<line class="st5" x1="905.3" y1="-63.7" x2="1003.1" y2="-63.7"/>
			<rect x="905.3" y="-64.2" class="st4" width="97.8" height="1"/>
		</g>
		<g>
			<line class="st5" x1="905.3" y1="-58.9" x2="1003.1" y2="-58.9"/>
			<rect x="905.3" y="-59.4" class="st4" width="97.8" height="1"/>
		</g>
		<g>
			<polygon class="st5" points="905.3,-52.8 905.3,-47.7 977.6,-47.7 983.7,-53.8 905.3,-53.8 			"/>
			<path class="st4" d="M977.8-47.2h-73v-7.2h80.1L977.8-47.2z M905.8-48.2h71.5l5.1-5.1h-76.6V-48.2z"/>
		</g>
		<polygon class="st4" points="901.6,-38.6 890.5,-48.5 534.2,-48.5 523.4,-38.7 522.7,-39.5 533.8,-49.5 890.9,-49.5 902.3,-39.3 
					"/>
		<rect x="1003.7" y="-79.4" class="st5" width="9.1" height="9.1"/>
		<rect x="988.9" y="-79.4" class="st5" width="9.1" height="9.1"/>
		<rect x="974.1" y="-79.4" class="st5" width="9.1" height="9.1"/>
		<rect x="959.3" y="-79.4" class="st5" width="9.1" height="9.1"/>
		<rect x="944.5" y="-79.4" class="st5" width="9.1" height="9.1"/>
		<rect x="929.7" y="-79.4" class="st5" width="9.1" height="9.1"/>
		<rect x="914.9" y="-79.4" class="st5" width="9.1" height="9.1"/>
		<rect x="900.1" y="-79.4" class="st5" width="9.1" height="9.1"/>
		<path class="st5" d="M412.6-380.8h-9.7v-9.7h9.7V-380.8z M403.5-381.4h8.5v-8.5h-8.5V-381.4z"/>
		<rect x="405.4" y="-387.9" class="st5" width="4.5" height="4.5"/>
		<path class="st5" d="M1023.6-380.8h-9.7v-9.7h9.7V-380.8z M1014.5-381.4h8.5v-8.5h-8.5V-381.4z"/>
		<rect x="1016.5" y="-387.9" class="st5" width="4.5" height="4.5"/>
		<path class="st5" d="M412.6-93.2h-9.7v-9.7h9.7V-93.2z M403.5-93.8h8.5v-8.5h-8.5V-93.8z"/>
		<rect x="405.4" y="-100.3" class="st5" width="4.5" height="4.5"/>
		<path class="st5" d="M1023.6-93.2h-9.7v-9.7h9.7V-93.2z M1014.5-93.8h8.5v-8.5h-8.5V-93.8z"/>
		<rect x="1016.5" y="-100.3" class="st5" width="4.5" height="4.5"/>
		<rect x="528.6" y="-75.4" class="st4" width="365.4" height="1"/>
		<polygon class="st4" points="417.1,-74.9 388.5,-74.9 388.5,-136.8 384.3,-132.5 384.3,-71.6 413.4,-71.6 		"/>
		<path class="st5" d="M848.3-56.5H848v-0.7h0.3V-56.5z M845.8-56.5h-2.1v-0.7h2.1V-56.5z M841.5-56.5h-2.1v-0.7h2.1V-56.5z
			 M837.3-56.5h-2.1v-0.7h2.1V-56.5z M833-56.5h-2.1v-0.7h2.1V-56.5z M828.7-56.5h-2.1v-0.7h2.1V-56.5z M824.4-56.5h-2.1v-0.7h2.1
			V-56.5z M820.2-56.5H818v-0.7h2.1V-56.5z M815.9-56.5h-2.1v-0.7h2.1V-56.5z M811.6-56.5h-2.1v-0.7h2.1V-56.5z M807.3-56.5h-2.1
			v-0.7h2.1V-56.5z M803.1-56.5h-2.1v-0.7h2.1V-56.5z M798.8-56.5h-2.1v-0.7h2.1V-56.5z M794.5-56.5h-2.1v-0.7h2.1V-56.5z
			 M790.2-56.5h-2.1v-0.7h2.1V-56.5z M785.9-56.5h-2.1v-0.7h2.1V-56.5z M781.7-56.5h-2.1v-0.7h2.1V-56.5z M777.4-56.5h-2.1v-0.7h2.1
			V-56.5z M773.1-56.5H771v-0.7h2.1V-56.5z M768.8-56.5h-2.1v-0.7h2.1V-56.5z M764.6-56.5h-2.1v-0.7h2.1V-56.5z M760.3-56.5h-2.1
			v-0.7h2.1V-56.5z M756-56.5h-2.1v-0.7h2.1V-56.5z M751.7-56.5h-2.1v-0.7h2.1V-56.5z M747.5-56.5h-2.1v-0.7h2.1V-56.5z M743.2-56.5
			H741v-0.7h2.1V-56.5z M738.9-56.5h-2.1v-0.7h2.1V-56.5z M734.6-56.5h-2.1v-0.7h2.1V-56.5z M730.4-56.5h-2.1v-0.7h2.1V-56.5z
			 M726.1-56.5h-2.1v-0.7h2.1V-56.5z M721.8-56.5h-2.1v-0.7h2.1V-56.5z M717.5-56.5h-2.1v-0.7h2.1V-56.5z M713.2-56.5h-2.1v-0.7h2.1
			V-56.5z M709-56.5h-2.1v-0.7h2.1V-56.5z M704.7-56.5h-2.1v-0.7h2.1V-56.5z M700.4-56.5h-2.1v-0.7h2.1V-56.5z M696.1-56.5H694v-0.7
			h2.1V-56.5z M691.9-56.5h-2.1v-0.7h2.1V-56.5z M687.6-56.5h-2.1v-0.7h2.1V-56.5z M683.3-56.5h-2.1v-0.7h2.1V-56.5z M679-56.5h-2.1
			v-0.7h2.1V-56.5z M674.8-56.5h-2.1v-0.7h2.1V-56.5z M670.5-56.5h-2.1v-0.7h2.1V-56.5z M666.2-56.5h-2.1v-0.7h2.1V-56.5z
			 M661.9-56.5h-2.1v-0.7h2.1V-56.5z M657.6-56.5h-2.1v-0.7h2.1V-56.5z M653.4-56.5h-2.1v-0.7h2.1V-56.5z M649.1-56.5H647v-0.7h2.1
			V-56.5z M644.8-56.5h-2.1v-0.7h2.1V-56.5z M640.5-56.5h-2.1v-0.7h2.1V-56.5z M636.3-56.5h-2.1v-0.7h2.1V-56.5z M632-56.5h-2.1
			v-0.7h2.1V-56.5z M627.7-56.5h-2.1v-0.7h2.1V-56.5z M623.4-56.5h-2.1v-0.7h2.1V-56.5z M619.2-56.5H617v-0.7h2.1V-56.5z
			 M614.9-56.5h-2.1v-0.7h2.1V-56.5z M610.6-56.5h-2.1v-0.7h2.1V-56.5z M606.3-56.5h-2.1v-0.7h2.1V-56.5z M602-56.5h-2.1v-0.7h2.1
			V-56.5z M597.8-56.5h-2.1v-0.7h2.1V-56.5z M593.5-56.5h-2.1v-0.7h2.1V-56.5z M589.2-56.5h-2.1v-0.7h2.1V-56.5z M584.9-56.5h-2.1
			v-0.7h2.1V-56.5z M580.7-56.5h-2.1v-0.7h2.1V-56.5z M576.4-56.5h-2.1v-0.7h2.1V-56.5z"/>
		<path class="st5" d="M848.3-62H848v-0.7h0.3V-62z M845.8-62h-2.1v-0.7h2.1V-62z M841.5-62h-2.1v-0.7h2.1V-62z M837.3-62h-2.1v-0.7
			h2.1V-62z M833-62h-2.1v-0.7h2.1V-62z M828.7-62h-2.1v-0.7h2.1V-62z M824.4-62h-2.1v-0.7h2.1V-62z M820.2-62H818v-0.7h2.1V-62z
			 M815.9-62h-2.1v-0.7h2.1V-62z M811.6-62h-2.1v-0.7h2.1V-62z M807.3-62h-2.1v-0.7h2.1V-62z M803.1-62h-2.1v-0.7h2.1V-62z
			 M798.8-62h-2.1v-0.7h2.1V-62z M794.5-62h-2.1v-0.7h2.1V-62z M790.2-62h-2.1v-0.7h2.1V-62z M785.9-62h-2.1v-0.7h2.1V-62z
			 M781.7-62h-2.1v-0.7h2.1V-62z M777.4-62h-2.1v-0.7h2.1V-62z M773.1-62H771v-0.7h2.1V-62z M768.8-62h-2.1v-0.7h2.1V-62z M764.6-62
			h-2.1v-0.7h2.1V-62z M760.3-62h-2.1v-0.7h2.1V-62z M756-62h-2.1v-0.7h2.1V-62z M751.7-62h-2.1v-0.7h2.1V-62z M747.5-62h-2.1v-0.7
			h2.1V-62z M743.2-62H741v-0.7h2.1V-62z M738.9-62h-2.1v-0.7h2.1V-62z M734.6-62h-2.1v-0.7h2.1V-62z M730.4-62h-2.1v-0.7h2.1V-62z
			 M726.1-62h-2.1v-0.7h2.1V-62z M721.8-62h-2.1v-0.7h2.1V-62z M717.5-62h-2.1v-0.7h2.1V-62z M713.2-62h-2.1v-0.7h2.1V-62z M709-62
			h-2.1v-0.7h2.1V-62z M704.7-62h-2.1v-0.7h2.1V-62z M700.4-62h-2.1v-0.7h2.1V-62z M696.1-62H694v-0.7h2.1V-62z M691.9-62h-2.1v-0.7
			h2.1V-62z M687.6-62h-2.1v-0.7h2.1V-62z M683.3-62h-2.1v-0.7h2.1V-62z M679-62h-2.1v-0.7h2.1V-62z M674.8-62h-2.1v-0.7h2.1V-62z
			 M670.5-62h-2.1v-0.7h2.1V-62z M666.2-62h-2.1v-0.7h2.1V-62z M661.9-62h-2.1v-0.7h2.1V-62z M657.6-62h-2.1v-0.7h2.1V-62z
			 M653.4-62h-2.1v-0.7h2.1V-62z M649.1-62H647v-0.7h2.1V-62z M644.8-62h-2.1v-0.7h2.1V-62z M640.5-62h-2.1v-0.7h2.1V-62z M636.3-62
			h-2.1v-0.7h2.1V-62z M632-62h-2.1v-0.7h2.1V-62z M627.7-62h-2.1v-0.7h2.1V-62z M623.4-62h-2.1v-0.7h2.1V-62z M619.2-62H617v-0.7
			h2.1V-62z M614.9-62h-2.1v-0.7h2.1V-62z M610.6-62h-2.1v-0.7h2.1V-62z M606.3-62h-2.1v-0.7h2.1V-62z M602-62h-2.1v-0.7h2.1V-62z
			 M597.8-62h-2.1v-0.7h2.1V-62z M593.5-62h-2.1v-0.7h2.1V-62z M589.2-62h-2.1v-0.7h2.1V-62z M584.9-62h-2.1v-0.7h2.1V-62z
			 M580.7-62h-2.1v-0.7h2.1V-62z M576.4-62h-2.1v-0.7h2.1V-62z"/>
		<path class="st5" d="M848.3-67.6H848v-0.7h0.3V-67.6z M845.8-67.6h-2.1v-0.7h2.1V-67.6z M841.5-67.6h-2.1v-0.7h2.1V-67.6z
			 M837.3-67.6h-2.1v-0.7h2.1V-67.6z M833-67.6h-2.1v-0.7h2.1V-67.6z M828.7-67.6h-2.1v-0.7h2.1V-67.6z M824.4-67.6h-2.1v-0.7h2.1
			V-67.6z M820.2-67.6H818v-0.7h2.1V-67.6z M815.9-67.6h-2.1v-0.7h2.1V-67.6z M811.6-67.6h-2.1v-0.7h2.1V-67.6z M807.3-67.6h-2.1
			v-0.7h2.1V-67.6z M803.1-67.6h-2.1v-0.7h2.1V-67.6z M798.8-67.6h-2.1v-0.7h2.1V-67.6z M794.5-67.6h-2.1v-0.7h2.1V-67.6z
			 M790.2-67.6h-2.1v-0.7h2.1V-67.6z M785.9-67.6h-2.1v-0.7h2.1V-67.6z M781.7-67.6h-2.1v-0.7h2.1V-67.6z M777.4-67.6h-2.1v-0.7h2.1
			V-67.6z M773.1-67.6H771v-0.7h2.1V-67.6z M768.8-67.6h-2.1v-0.7h2.1V-67.6z M764.6-67.6h-2.1v-0.7h2.1V-67.6z M760.3-67.6h-2.1
			v-0.7h2.1V-67.6z M756-67.6h-2.1v-0.7h2.1V-67.6z M751.7-67.6h-2.1v-0.7h2.1V-67.6z M747.5-67.6h-2.1v-0.7h2.1V-67.6z M743.2-67.6
			H741v-0.7h2.1V-67.6z M738.9-67.6h-2.1v-0.7h2.1V-67.6z M734.6-67.6h-2.1v-0.7h2.1V-67.6z M730.4-67.6h-2.1v-0.7h2.1V-67.6z
			 M726.1-67.6h-2.1v-0.7h2.1V-67.6z M721.8-67.6h-2.1v-0.7h2.1V-67.6z M717.5-67.6h-2.1v-0.7h2.1V-67.6z M713.2-67.6h-2.1v-0.7h2.1
			V-67.6z M709-67.6h-2.1v-0.7h2.1V-67.6z M704.7-67.6h-2.1v-0.7h2.1V-67.6z M700.4-67.6h-2.1v-0.7h2.1V-67.6z M696.1-67.6H694v-0.7
			h2.1V-67.6z M691.9-67.6h-2.1v-0.7h2.1V-67.6z M687.6-67.6h-2.1v-0.7h2.1V-67.6z M683.3-67.6h-2.1v-0.7h2.1V-67.6z M679-67.6h-2.1
			v-0.7h2.1V-67.6z M674.8-67.6h-2.1v-0.7h2.1V-67.6z M670.5-67.6h-2.1v-0.7h2.1V-67.6z M666.2-67.6h-2.1v-0.7h2.1V-67.6z
			 M661.9-67.6h-2.1v-0.7h2.1V-67.6z M657.6-67.6h-2.1v-0.7h2.1V-67.6z M653.4-67.6h-2.1v-0.7h2.1V-67.6z M649.1-67.6H647v-0.7h2.1
			V-67.6z M644.8-67.6h-2.1v-0.7h2.1V-67.6z M640.5-67.6h-2.1v-0.7h2.1V-67.6z M636.3-67.6h-2.1v-0.7h2.1V-67.6z M632-67.6h-2.1
			v-0.7h2.1V-67.6z M627.7-67.6h-2.1v-0.7h2.1V-67.6z M623.4-67.6h-2.1v-0.7h2.1V-67.6z M619.2-67.6H617v-0.7h2.1V-67.6z
			 M614.9-67.6h-2.1v-0.7h2.1V-67.6z M610.6-67.6h-2.1v-0.7h2.1V-67.6z M606.3-67.6h-2.1v-0.7h2.1V-67.6z M602-67.6h-2.1v-0.7h2.1
			V-67.6z M597.8-67.6h-2.1v-0.7h2.1V-67.6z M593.5-67.6h-2.1v-0.7h2.1V-67.6z M589.2-67.6h-2.1v-0.7h2.1V-67.6z M584.9-67.6h-2.1
			v-0.7h2.1V-67.6z M580.7-67.6h-2.1v-0.7h2.1V-67.6z M576.4-67.6h-2.1v-0.7h2.1V-67.6z"/>
		<path class="st4" d="M895.5-52.7h-41.9v-19.1h41.9V-52.7z M854-53h41.2v-18.4H854V-53z"/>
		<path class="st5" d="M856.5-55h-0.7v-1.6h0.7V-55z M856.5-58.7h-0.7v-2.1h0.7V-58.7z M856.5-63h-0.7v-2.1h0.7V-63z M856.5-67.3
			h-0.7v-2.1h0.7V-67.3z"/>
		<path class="st5" d="M859.3-55h-0.7v-1.6h0.7V-55z M859.3-58.7h-0.7v-2.1h0.7V-58.7z M859.3-63h-0.7v-2.1h0.7V-63z M859.3-67.3
			h-0.7v-2.1h0.7V-67.3z"/>
		<path class="st5" d="M862.2-55h-0.7v-1.6h0.7V-55z M862.2-58.7h-0.7v-2.1h0.7V-58.7z M862.2-63h-0.7v-2.1h0.7V-63z M862.2-67.3
			h-0.7v-2.1h0.7V-67.3z"/>
		<path class="st5" d="M865-55h-0.7v-1.6h0.7V-55z M865-58.7h-0.7v-2.1h0.7V-58.7z M865-63h-0.7v-2.1h0.7V-63z M865-67.3h-0.7v-2.1
			h0.7V-67.3z"/>
		<path class="st5" d="M867.9-55h-0.7v-1.6h0.7V-55z M867.9-58.7h-0.7v-2.1h0.7V-58.7z M867.9-63h-0.7v-2.1h0.7V-63z M867.9-67.3
			h-0.7v-2.1h0.7V-67.3z"/>
		<path class="st5" d="M870.7-55H870v-1.6h0.7V-55z M870.7-58.7H870v-2.1h0.7V-58.7z M870.7-63H870v-2.1h0.7V-63z M870.7-67.3H870
			v-2.1h0.7V-67.3z"/>
		<path class="st5" d="M873.6-55h-0.7v-1.6h0.7V-55z M873.6-58.7h-0.7v-2.1h0.7V-58.7z M873.6-63h-0.7v-2.1h0.7V-63z M873.6-67.3
			h-0.7v-2.1h0.7V-67.3z"/>
		<path class="st5" d="M876.4-55h-0.7v-1.6h0.7V-55z M876.4-58.7h-0.7v-2.1h0.7V-58.7z M876.4-63h-0.7v-2.1h0.7V-63z M876.4-67.3
			h-0.7v-2.1h0.7V-67.3z"/>
		<path class="st5" d="M879.3-55h-0.7v-1.6h0.7V-55z M879.3-58.7h-0.7v-2.1h0.7V-58.7z M879.3-63h-0.7v-2.1h0.7V-63z M879.3-67.3
			h-0.7v-2.1h0.7V-67.3z"/>
		<path class="st5" d="M882.1-55h-0.7v-1.6h0.7V-55z M882.1-58.7h-0.7v-2.1h0.7V-58.7z M882.1-63h-0.7v-2.1h0.7V-63z M882.1-67.3
			h-0.7v-2.1h0.7V-67.3z"/>
		<path class="st5" d="M885-55h-0.7v-1.6h0.7V-55z M885-58.7h-0.7v-2.1h0.7V-58.7z M885-63h-0.7v-2.1h0.7V-63z M885-67.3h-0.7v-2.1
			h0.7V-67.3z"/>
		<path class="st5" d="M887.8-55h-0.7v-1.6h0.7V-55z M887.8-58.7h-0.7v-2.1h0.7V-58.7z M887.8-63h-0.7v-2.1h0.7V-63z M887.8-67.3
			h-0.7v-2.1h0.7V-67.3z"/>
		<path class="st5" d="M890.7-55H890v-1.6h0.7V-55z M890.7-58.7H890v-2.1h0.7V-58.7z M890.7-63H890v-2.1h0.7V-63z M890.7-67.3H890
			v-2.1h0.7V-67.3z"/>
		<path class="st5" d="M893.6-55h-0.7v-1.6h0.7V-55z M893.6-58.7h-0.7v-2.1h0.7V-58.7z M893.6-63h-0.7v-2.1h0.7V-63z M893.6-67.3
			h-0.7v-2.1h0.7V-67.3z"/>
		<polygon class="st5" points="571.1,-56.5 528.6,-56.5 528.6,-57.2 570.4,-57.2 570.4,-62 528.3,-62 528.3,-68.3 570.7,-68.3 
			570.7,-67.6 529,-67.6 529,-62.8 571.1,-62.8 		"/>
		<polygon class="st5" points="531.1,-402.5 488.7,-402.5 488.7,-403.2 530.5,-403.2 530.5,-406.9 488.4,-406.9 488.4,-411.9 
			530.8,-411.9 530.8,-411.3 489,-411.3 489,-407.5 531.1,-407.5 		"/>
		<polygon class="st4" points="1035.4,-217.3 1034.3,-217.3 1034.3,-398.1 1029.7,-398.1 1029.7,-399.2 1035.4,-399.2 		"/>
		<polygon class="st4" points="1021.8,-79.7 1034.4,-79.7 1034.4,-219.4 1037.7,-216.1 1037.7,-75 1021.7,-75 		"/>
		<polygon class="st4" points="388.7,-136.8 387.7,-136.8 387.7,-399.2 403.1,-399.2 403.1,-398.1 388.7,-398.1 		"/>
		<rect x="432.2" y="-408.2" class="st5" width="4.8" height="4.8"/>
		<rect x="443.1" y="-408.2" class="st5" width="4.8" height="4.8"/>
		<rect x="453.9" y="-408.2" class="st5" width="4.8" height="4.8"/>
		<rect x="464.8" y="-408.2" class="st5" width="4.8" height="4.8"/>
		<rect x="475.7" y="-408.2" class="st5" width="4.8" height="4.8"/>
		<path class="st5" d="M835.2-403.2H537.7v-8.7h297.5V-403.2z M538.4-403.9h296.2v-7.4H538.4V-403.9z"/>
		<rect x="542.9" y="-409.3" class="st5" width="287.3" height="3.4"/>
		<rect x="841" y="-413.2" class="st5" width="96.4" height="2.5"/>
		<polygon class="st5" points="520.2,-76.4 520.2,-64.4 443.5,-64.4 454.7,-75.6 		"/>
		<path class="st5" d="M488.3-127.2"/>
		<rect x="407.3" y="-376.6" class="st5" width="0.7" height="267.2"/>
		<rect x="1018.4" y="-376.6" class="st5" width="0.7" height="267.2"/>
		<rect x="417.9" y="-386.4" class="st5" width="590.2" height="0.7"/>
		<rect x="417.9" y="-98.6" class="st5" width="590.2" height="0.7"/>
	</g>
	<rect x="-842.7" y="-357.6" style="fill:none;" width="526.3" height="26"/>
	
		<text transform="matrix(1 0 0 1 -842.7451 -344.0391)" class="st6" style="font-family:'MyriadPro-Semibold'; font-size:19.114px;">¿Qué es el Arjé o Arché?</text>
	<path class="st6" d="M-581.3-413.6h-300.2c-2.4,0-4.4-2-4.4-4.4v-23.1c0-2.4,2-4.4,4.4-4.4h300.2c2.4,0,4.4,2,4.4,4.4v23.1
		C-576.9-415.6-578.9-413.6-581.3-413.6z"/>
	<g>
		<rect x="-880.1" y="-434.3" style="fill:none;" width="300" height="25.5"/>
		
			<text transform="matrix(1 0 0 1 -880.1143 -423.0205)" class="st1" style="font-family:'MyriadPro-Semibold'; font-size:15.9283px;">Tema 2 La filosofía antigua y clásicas</text>
	</g>
	<ellipse class="st7" cx="-463" cy="-425.8" rx="24.6" ry="15.4"/>
	
		<text transform="matrix(1 0 0 1 -482.0762 -421.2534)" class="st8" style="font-family:'MyriadPro-Semibold'; font-size:15.4062px;">50/50</text>
	
		<text transform="matrix(1 0 0 1 -552.1611 -421.2534)" class="st8" style="font-family:'MyriadPro-Semibold'; font-size:15.4062px;">Comodín</text>
	<path class="st8" d="M-275.4-415.2h-56.7c-3.3,0-5.9-2.6-5.9-5.9v-18.5c0-3.3,2.6-5.9,5.9-5.9h56.7c3.3,0,5.9,2.6,5.9,5.9v18.5
		C-269.5-417.9-272.1-415.2-275.4-415.2z"/>
	<path class="st8" d="M-348.6-415.2h-56.7c-3.3,0-5.9-2.6-5.9-5.9v-18.5c0-3.3,2.6-5.9,5.9-5.9h56.7c3.3,0,5.9,2.6,5.9,5.9v18.5
		C-342.7-417.9-345.4-415.2-348.6-415.2z"/>
	<text transform="matrix(1 0 0 1 -343.5 -8.709)" style="fill:#8AFF00; font-family:'MyriadPro-Semibold'; font-size:15.4062px;">Siguiente</text>
	<path class="st8" d="M-501.7-260.7h-336.7c-2.5,0-4.5-2-4.5-4.5v-18.1c0-2.5,2-4.5,4.5-4.5h336.7c2.5,0,4.5,2,4.5,4.5v18.1
		C-497.3-262.7-499.3-260.7-501.7-260.7z"/>
	<rect x="-108.2" y="-313" style="fill:none;" width="373.2" height="155"/>
	<text transform="matrix(1 0 0 1 -108.1699 -299.4219)"><tspan x="0" y="0" class="st1" style="font-family:'MyriadPro-Semibold'; font-size:19.114px;">A) El razonamiento lógico</tspan><tspan x="0" y="36.6" class="st1" style="font-family:'MyriadPro-Semibold'; font-size:19.114px;">B)  El principio de todas las cosas</tspan><tspan x="0" y="73.3" class="st1" style="font-family:'MyriadPro-Semibold'; font-size:19.114px;">C ) La curiosidad por conocer la realidad</tspan><tspan x="0" y="109.9" class="st1" style="font-family:'MyriadPro-Semibold'; font-size:19.114px;">D) La observación de la naturaleza   </tspan></text>
	<g>
		<g>
			<g>
				<g>
					<path class="st9" d="M114.1,186.9c-54.2,0-84.2-17.1-95.1-48.9c-8.2-24-6.3-58.1,9.4-80.3c30.7-43.6,71.5-13.6,103.8-11.9
						c32.8,1.7,53.9,6.6,68.2,20.8C241.7,107.4,210.6,186.9,114.1,186.9z"/>
					<path class="st10" d="M114.1,186.9c-4.6,0-9.1-0.1-13.4-0.4l-29.2-4.6L69,52.2l76.9-5.5c25.1,2.4,42.3,7.7,54.5,19.8
						C241.7,107.4,210.6,186.9,114.1,186.9z"/>
					<g>
						<path class="st11" d="M70.9,182.2C43.3,175.1,26.6,160.1,19,138c-8.2-24-6.3-58.1,9.4-80.3c5.6-8,11.6-13.5,17.8-17.2L69,52.2
							l2.5,129.7L70.9,182.2z"/>
						<path class="st12" d="M55.9,177c-18.8-8.2-30.8-21.3-36.8-39c-8.2-24-6.3-58.1,9.4-80.3c3.2-4.5,6.5-8.2,9.8-11.2
							c5.4,2.5,10.8,4.9,16.1,7.4c1,0.7,1.4,1.6,1.5,2.6V177z"/>
						<path class="st13" d="M23.9,149c-1.9-3.4-3.5-7.1-4.9-11c-8.2-24-6.3-58.1,9.4-80.3c0.7-1.1,1.5-2.1,2.3-3
							c0.1-0.1,0.2-0.1,0.3-0.2l13.9,6.3v96.6C39.5,155,31.7,152.2,23.9,149z"/>
					</g>
				</g>
				<g>
					<g>
						<polygon class="st14" points="173.2,109.5 172.5,74.1 205.7,72.9 205.7,109.5 						"/>
						<polygon class="st15" points="174.5,108 173.9,75.5 204.4,74.3 204.4,108 						"/>
					</g>
					<g>
						<polygon class="st16" points="177.8,104.2 177.3,79 200.9,78.1 200.9,104.2 						"/>
						<path class="st17" d="M193.5,90.4c3.1,0,5.6,2.5,5.6,5.6s-2.5,5.6-5.6,5.6c-3.1,0-5.6-2.5-5.6-5.6S190.4,90.4,193.5,90.4z"/>
						<path class="st18" d="M177.7,102l-0.1-7.8c3.7,0.4,9.7,0.1,12,0.6c5,1.2,5.8,1.3,10.1,3.9c0.1,0,0.3,0.2,0.4,0.2l-20.3,3.7
							L177.7,102z"/>
						<path class="st19" d="M200.9,97.7v6.6h-19.1l-3.1-4c1.1-0.1,5-2.2,7.6-2.7c6.4-1.1,7.9-0.4,14,0.1
							C200.6,97.6,200.7,97.7,200.9,97.7z"/>
						<path class="st18" d="M177.8,104.2l-0.1-5.2c1,0.1,2,0.2,3.1,0.1c5.4-0.5,5.2-0.3,10.5,0.6c2.6,0.5,4.9,1.5,7.8,1.7
							c0.8,0,1.4,0.1,1.9,0.1v2.7H177.8z"/>
					</g>
				</g>
			</g>
			<g>
				<g>
					<path class="st10" d="M120.6,16.6c-0.6,4,0.3,8.6,4.3,8.7c5.1,0.1,2.5-9,8.9-5.3c3.6,2.1-0.4,5-2.2,6c-9.2,5-0.2,16,1.7,6.1
						c0.5-2.7,11.6-4.3,8.3-16C138.6,5.5,122.7,3.7,120.6,16.6z"/>
					<path class="st11" d="M120.5,19.9c0.3,2.9,1.5,5.3,4.4,5.4c5.1,0.1,2.5-9,8.9-5.3c3.6,2.1-0.4,5-2.2,6
						c-3.7,2.1-4.5,5.1-3.9,7.3c0.4-3.5,3.4-4.9,7-6.5c5.6-2.5,6.4-8.6,1.6-10.5c-3.8-1.5-6.2-0.3-8.4,2.8
						C125.6,22.4,122.3,22.1,120.5,19.9z"/>
					<path class="st20" d="M126.7,9.4c-1.6,1.2-2,3.4,2.7,2.5c4.6-0.8,7.8,1,10.4,4.8c1.5,2.2,0.7,5,0,7.2c0.6,0.2,3.8-5.9-0.2-11.1
						C137.7,10.3,129.8,6.9,126.7,9.4z"/>
				</g>
				<g>
					<path class="st10" d="M131.7,44.4c4.9-0.9,0-8.7-1.9-3.5C129.2,42.5,128.6,45,131.7,44.4z"/>
					<path class="st11" d="M131.7,44.4c1.1-0.2,1.8-0.8,2-1.5c-0.3-0.4-0.8-0.6-1.5-0.6c-2.3,0-2.5-1-2.1-2.1
						c-0.1,0.2-0.2,0.4-0.3,0.7C129.2,42.5,128.6,45,131.7,44.4z"/>
					<path class="st20" d="M131.5,40.3c-0.5,2.4,2.2,0.9,0.5-0.3C131.7,39.7,131.6,40,131.5,40.3z"/>
				</g>
			</g>
		</g>
		<g>
			<g>
				<path class="st21" d="M154.1,127c2.2,2.7,3.2,4.1,3.4,6.2c0.1,1.4-0.3,3.1-0.6,5.6c-0.9,6.4-1.7,13.4-2.2,19.8
					c-0.1,1.4-0.2,2.8-0.3,4.2h-5.1c0.7-8.9,2.2-17.6,4.2-28.7C154,131.3,155.2,128.8,154.1,127z"/>
				<path class="st22" d="M108,162.7c0-2.7,0-5.3,0.2-7.8c0.4-5.1,1.9-10.3,3.2-16.7c0.8-3.6,2.1-9.2,4.4-11.7
					c2.9-3.1,10.1-4.1,16-4.3c6.8-0.2,12.5-0.1,18.4,1.9c4.4,1.5,5.5,5.1,4.7,9.8c-2,11.5-3.2,19.8-4.1,28.8H108z"/>
			</g>
			<g>
				<g>
					<g>
						<path class="st23" d="M108.4,140.4c-1.8-1.9-3.6-3.8-5.4-5.7c-5.8,5.7-7.4,7.5-11.6,14.5c0.3,2,2.4,2.5,4,3.5
							c2.5-2.7,5.8-5.8,8.3-8.4C105,142.9,106.9,141.6,108.4,140.4z"/>
						<path class="st24" d="M98.9,139c-2.5,2.7-4.2,4.9-6.7,9c0.3,0.1,0.7,0.2,1-0.3c1.7-3.1,3.7-5.3,5.5-7.4
							C99.2,139.6,99.2,139.2,98.9,139z"/>
						<path class="st25" d="M108.4,140.4c-1.8-1.9-3.6-3.8-5.4-5.7c-2,2-3.5,3.5-4.8,4.9c1.1,0.9,1.9,1.9,1.7,2.7
							c-0.1,0.5-2.3,5.1-3.5,6.9c-1.3,1.8-4.1,0-4.6-0.7c-0.1,0.2-0.3,0.4-0.4,0.7c0.3,2,2.4,2.5,4,3.5c2.5-2.7,5.8-5.8,8.3-8.4
							C105,142.9,106.9,141.6,108.4,140.4z"/>
					</g>
					<g>
						<path class="st26" d="M116.3,136.7c-1.3-4.1-2.8-7.9-4-12c-0.1,0-0.4,0-0.7,0.3c-1.3,1-4.1,3.8-5.9,5.4
							c-2,1.8-4.1,3.7-6.1,5.5c-0.9,2.4,4.7,9.9,6.5,9.6C109.6,141.1,111.6,140,116.3,136.7z"/>
						<path class="st27" d="M109.8,126.6c-1.4,1.2-3,2.8-4.2,3.9c-2,1.8-4.1,3.7-6.1,5.5c-0.1,0.3-0.1,0.8,0,1.3
							c0.4-0.1,0.9-0.5,1.8-1.4C102.9,133.9,108.7,129.5,109.8,126.6z"/>
						<path class="st28" d="M116.3,136.7c-1.3-4.1-2.8-7.9-4-12c-0.1,0-0.4,0-0.7,0.3c-0.4,0.3-1,0.9-1.7,1.5c-0.1,1.9,0,4,0.3,5.5
							c0.2,1.1,1,2.4,0.8,3.7c-0.8,4.6-7.1,8.5-9.7,5.2c1.6,2.4,3.8,4.7,4.8,4.5C109.6,141.1,111.6,140,116.3,136.7z"/>
					</g>
				</g>
				<g>
					<g>
						<path class="st26" d="M130,120.9c-2.8,0.4-6.3,0.3-9.1,0.6c-3.8,0.9-5.4,1.6-8.9,3.3c0,4,1.8,7.8,3,11.7
							c1.1,8.9,1.5,15.5,1.5,24.5c7.8,2.8,13.9,4.6,25.8-1.8c-0.6-9.5-1.2-15-1.9-20c-0.1-6.4,0.1-7.4,1.9-13.5
							C137.8,123,135.4,122.1,130,120.9z"/>
						<path class="st27" d="M113.1,124.3c0,0-0.1,0-0.1,0.1c-0.3,0.1-0.7,0.3-1,0.5c0,4,1.8,7.8,3,11.7c1.1,8.9,1.5,15.5,1.5,24.5
							l0.3,0.1c0.8-4.5,0.3-9.9,0.3-13.5c0-2.3-0.6-6.9-1.4-12.1C115.5,134.3,113,130.8,113.1,124.3z"/>
						<path class="st28" d="M130,120.9c-2.8,0.4-6.3,0.3-9.1,0.6c-1.1,0.3-2.1,0.5-2.9,0.8c-1.2,5.5,5.6,13.2,14.5,5.7
							c0.6-0.5,1.2,0.8,1.6,1.6c2.1,4.4,3.1,18.9,1.7,24.4c-0.4,1.6-13.8,3.2-16,3.8c-1.4,0.4-2.7,1-3.3,1.9c0,0.3,0,0.7,0,1.1
							c7.8,2.8,13.9,4.6,25.8-1.8c-0.6-9.5-1.2-15-1.9-20c-0.1-6.4,0.1-7.4,1.9-13.5C137.8,123,135.4,122.1,130,120.9z"/>
					</g>
					<g>
						<path class="st23" d="M120.8,121.6c-1.5,7.5,9.3,9.3,9.3-0.6C127.1,120.7,123.9,120.9,120.8,121.6z"/>
						<path class="st25" d="M125,127.8c2.5,0.1,5.1-1.9,5.1-6.9c-1.6-0.1-3.3-0.1-5,0c0.9,2.5,4.8,2.3,1.9,5.8
							C126.4,127.4,125.7,127.7,125,127.8z"/>
					</g>
				</g>
			</g>
			<g>
				<path class="st29" d="M114.1,186.9c-48.9,0-78.1-13.9-91.4-40l172.4,12.2C177.8,175.5,150.7,186.9,114.1,186.9z"/>
				<path class="st30" d="M145.5,163.9c-16.2-2-35.4,0.5-51.6-1.5c-2,1.3-11.5,6.2-12,7c-0.3,0.5-0.9,1.5-0.9,1.5
					c11.8,0.6,19.4,1,31.1,1.7c0.5,0,1.5-0.5,2.1-1.1c0.1-0.1,0.2,0,0.3,0c7.4,1,14.5,0.9,21.9,1.9
					C138.1,172.5,144.6,165.5,145.5,163.9z"/>
			</g>
			<g>
				<path class="st31" d="M110.1,166.7c0,1,0,2,0,3c1.1-0.7,1.8-1.7,2.6-2.6C111.8,166.9,110.9,166.8,110.1,166.7z"/>
				<g>
					<polygon class="st32" points="82.6,168.9 82.5,165.5 109.4,165.7 109.1,169.5 					"/>
					<linearGradient id="SVGID_4_" gradientUnits="userSpaceOnUse" x1="102.9826" y1="162.8823" x2="120.5747" y2="163.8043">
						<stop  offset="0" style="stop-color:#FFFFFF"/>
						<stop  offset="1" style="stop-color:#E6E7E8"/>
					</linearGradient>
					<polygon class="st33" points="109.2,165.7 82.6,165.5 95.7,158.8 115.4,160.2 					"/>
				</g>
				<g>
					<path class="st34" d="M136.3,170.1l7.9-8.2c-3.9,0.2-34.8,0-35,3.6c0,0.2,0,0.3,0,0.5L136.3,170.1z"/>
					<path class="st35" d="M109.2,165.7c0.7-1.1,2.1-1.5,3.5-1.4c8,0.8,16,1.7,24.1,2.5c2.4-1.6,5-3.3,7.4-4.8
						c-9.4-1.1-18.4-1.6-28.7-2.6C114.2,159.2,109.2,164,109.2,165.7z"/>
					<path class="st32" d="M109.7,164.4c2.2-3.2,6.4-2,10.3-1.4c5.6,0.8,11.7,2.3,17.3,3.5c-7-0.8-14.1-2.7-21-3.5
						C112.4,162.6,112.2,162.2,109.7,164.4z"/>
				</g>
				<path class="st36" d="M81.8,168.5v0.9c9.3,0.3,18.1,0.6,27.4,0.9c0.3-0.2,0.6-0.4,0.8-0.7v-3l26.4,4.1l7.8-7.7V162l-7.9,7.5
					c-8.9-1.3-17.7-2.5-26.6-3.8c-0.1,0-0.2-0.1-0.3,0c0,0-0.1,0-0.1,0.2c-0.1,0.9-0.1,3.3-0.2,3.6L81.8,168.5z"/>
			</g>
			<g>
				<g>
					<g>
						<path class="st23" d="M151.2,143.5c-2.4,0.3-4.7,0.6-7.1,0.9c0.1,0.7,0.1,1.5,0.2,2.2c0.1,2.8,0.1,5.6,0.2,8.3
							c-6.1,2.5-7.6,2.9-12.6,3.7c0.2,1.2-0.4,2.2-0.2,3.4c2.9-0.2,13.5,0.2,17.6-1.9c0.9-0.5,1.5-0.9,1.6-1.7
							C151.4,153.4,151.2,148.5,151.2,143.5z"/>
						<path class="st25" d="M151.2,143.5c-2.4,0.3-4.7,0.6-7.1,0.9c0.1,0.7,0.1,1.5,0.2,2.2l0,2.2c2.3-0.2,4.5-0.5,4.7,4.6
							c0.2,4.1,0.7,4.4-4.1,6.1c-2.3,0.8-9.9,2.1-13.3,2.3c0,0.1,0,0.2,0,0.2c2.9-0.2,13.5,0.2,17.6-1.9c0.9-0.5,1.5-0.9,1.6-1.7
							C151.4,153.4,151.2,148.5,151.2,143.5z"/>
						<path class="st24" d="M144.4,148.8l0.1,6.2c-6.1,2.5-7.6,2.9-12.6,3.7c0,0.1,0,0.1,0,0.2c0.4,0.1,0.7,0.2,1.1,0.2
							c1.1,0.2,1.4,0.2,2,0c2.8-0.9,10-3.2,10-3.9c0-2-0.1-4.4-0.4-6.4L144.4,148.8z"/>
					</g>
					<g>
						<path class="st25" d="M119.8,157.4c1-0.8,2.2-1.4,3.1-2.2c-0.8-0.4-3.5,1.4-4.4,2.2c-0.5,0.4-1.5,1-1.8,1.5
							c-1.1,1.4,0.7,1.3,1.6,0.8C119.2,159,119.3,158,119.8,157.4z"/>
						<path class="st23" d="M133.4,158.4c-1-0.3-8.5-2.5-8.8-2.5c-0.8-0.9-1.1-1.4-2.2-0.8c-1.2,0.7-2.6,1.6-3.7,2.4
							c-0.2,0.2-0.4,0.4-0.6,0.8c-0.4,0.9-0.7,1.9-1.1,2.8c-0.2,0.4-0.2,0.4,0,0.6c0,0,0,0.3,0.1,0.3c0.2,0.2,0.4,0.1,0.5,0.2
							c0.3,0.3,0.5,0.3,1.3,0.3c0.3,0,0.7,0,1.1-0.1c0.4,0.7,1.2,0.6,2.1,0.3c0.7-0.2,1.4-0.7,1.7-0.9c0.6-0.4,1.3-0.9,1.8-1.4
							c2.2,1.9,3.4,1.9,7.3,1.6C133.3,160.9,133.5,159.4,133.4,158.4z"/>
						<path class="st24" d="M133.4,158.4c-1-0.3-8.5-2.5-8.8-2.5c-0.8-0.9-1.1-1.4-2.2-0.8c-1.2,0.7-2.6,1.6-3.7,2.4
							c-0.2,0.2-0.4,0.4-0.6,0.8c-0.4,0.9-0.7,1.9-1.1,2.8c-0.2,0.4-0.2,0.4,0,0.6c0,0,0,0.2,0.1,0.2c0,0,0,0.1,0,0.1
							c0.4-1.2,0.9-3.8,1.9-4.4c1.2-0.8,3.6-2.5,4.2-2.1c0.7,0.5,1.1,0.8,1.9,1.2c2.3,1.1,5.1,1.9,7.8,2.4c0.2,0,0.3,0.1,0.4,0.1
							C133.5,158.8,133.4,158.6,133.4,158.4z"/>
						<path class="st37" d="M122.9,155.6c-1.1,1.4-1.4,1.5-3.1,2.9c0,0-1.9,2.3-2.8,3.1C119.4,158.1,119.4,158.2,122.9,155.6
							L122.9,155.6z M124.3,156.6c-4.8,3.1-2.6,1.3-6.7,5.5l0,0c2.2-1.7,2.8-2.3,3.3-2.7C121.6,159,122.1,158.7,124.3,156.6
							L124.3,156.6z M125.8,158c-0.8,0.4-2.5,1.5-2.5,1.5c-1,0.6-1.4,0.9-1.7,1.1c-0.4,0.3-0.5,0.5-1.6,1.8c0.8-0.6,1.3-1.1,1.8-1.4
							C123.2,160.1,124.1,159.8,125.8,158z"/>
					</g>
				</g>
				<g>
					<path class="st26" d="M139.2,136.5c2.6,4.1,2.7,5.2,4,10.1c1.9,1.1,9.6-1.4,9.6-2.3c-2.7-7.2-4.7-13.4-10.5-18.7
						C139.7,127.4,137.9,134.3,139.2,136.5z"/>
					<path class="st27" d="M139.2,136.5c2.6,4.1,2.7,5.2,4,10.1c0.1,0.1,0.2,0.1,0.3,0.1c0.2-3.6-1.8-9.3-4-10.4
						c-0.1-0.1-0.3-0.1-0.4-0.1C139.1,136.4,139.2,136.4,139.2,136.5z"/>
					<path class="st28" d="M144,146.9c2.7,0.3,8.8-1.8,8.8-2.6c-2.7-7.2-4.7-13.4-10.5-18.7c-2.5,1.8-4.3,8.4-3.1,10.7
						c0.2-0.1,0.4-0.3,0.5-0.8c5.9-15.2,10.9,7.8,9.7,8.8C147.8,145.7,145.8,146.1,144,146.9z"/>
				</g>
			</g>
			<g>
				<path class="st23" d="M96.6,154.4c-1-0.4-2.4-1.8-1.4-2.5c1,0.1,5.3,0.3,5.7,0.8c0.6,0.8,1.8,2.2,1.8,2.6c0,0.5,0.4,1.4,0.4,1.9
					c0,0.6-0.4,0.8-0.9,0.7c-0.8-0.2-2-1.1-2.2-3.1C99.3,154.6,97.3,154.6,96.6,154.4z"/>
				<path class="st25" d="M96.6,154.4c-1-0.4-2.4-1.8-1.4-2.5c0.6,0.1,2.1,0.1,3.4,0.3c0.3,0.3,0.5,0.7,0.7,0.8c1,0.8,1,0.6,2,1.2
					c0.3,0.2-0.2,2.2,1.3,3.3c0.1,0.1,0.2,0.1,0.3,0.1c-0.2,0.2-0.4,0.2-0.7,0.2c-0.8-0.2-2-1.1-2.2-3.1
					C99.3,154.6,97.3,154.6,96.6,154.4z"/>
			</g>
			<path class="st38" d="M102.1,160.5c-3.6-4.6-8.1-10.2-11.7-14.9c-1-1.2,0.7-1.6,1.3-0.6l11.9,14.6l0.3,1.6L102.1,160.5z"/>
			<g>
				<path class="st23" d="M91.4,149.2c-1.2,1.1-2.1,2.3-2.2,5.3c0,2,0.7,3.8,1.8,5.5c0.5,0.7,0.4,0.9,1.2,1c0.5,0.1,1.1,0.1,1.6,0.2
					c0.2,0,0.4-0.2,0.5-0.5c1.6,0.4,2.3,0.9,3.7-0.2c0.1,0,0.1,0,0.2,0c1.7,0,2.5-0.8,2.5-1.8c0.1-0.1,0-0.1,0.1-0.1
					c0.8-0.3,0.8-1.5,0.1-2c-1-0.5-2.2-0.8-3.2-1.3c-0.4-0.6-0.7-1.3-1.1-1.9c-0.4-0.6-1.1-1.3-1.9-1.9
					C93.4,150.2,91.6,149.3,91.4,149.2z"/>
				<path class="st24" d="M91.4,149.2c-1.2,1.1-2.1,2.3-2.2,5.3c0,2,0.7,3.8,1.8,5.5c0.5,0.7,0.4,0.9,1.2,1c0.5,0.1,1.1,0.1,1.6,0.2
					c0.2,0,0.4-0.2,0.5-0.4c-0.6,0-1.5-0.2-2.1-0.4c-0.9-0.3-1.7-3-2-3.9c-1.1-3.6-0.1-5.6,1.3-7.1
					C91.5,149.3,91.5,149.2,91.4,149.2L91.4,149.2z M94.6,160.7l0.1,0C94.7,160.7,94.7,160.7,94.6,160.7L94.6,160.7z"/>
				<path class="st37" d="M93.8,155c1.5,1.1,0.8,0.6,2.2,1.7c1.5,0.5,0.7,0.2,2.2,0.8l0,0c-1.9-0.7,0.8,0.2,2.7,1
					C96.8,157.7,96.5,157.9,93.8,155z"/>
				<path class="st37" d="M92.9,156c1.3,1.4,0.7,0.7,1.9,2.2c1.4,1,0.7,0.5,2.1,1.6c0.9,0.4,0.5,0.2,1.4,0.6
					C95.3,160,94.4,158.6,92.9,156z"/>
				<path class="st37" d="M91.8,157.6c0.9,1,0.5,0.5,1.3,1.6c1,0.9,0.5,0.4,1.5,1.5C92.4,159.6,92.7,159.9,91.8,157.6z"/>
			</g>
			<g>
				<g>
					<path class="st23" d="M102.9,103.5l-0.4-4.7c0-2.7-0.5-4.4-3.3-5.5c-1.8-0.7-4.6,0-5.2,2.2C92.1,102.5,100.6,107.1,102.9,103.5
						L102.9,103.5z"/>
					<path class="st25" d="M102.5,98.7c0-2.7-0.5-4.4-3.3-5.5c-0.9-0.3-2-0.4-2.9-0.1c1.7,0.3,4.6,2.7,4.2,4.8
						c-0.2,0.9-2.3-3.5-4.1-1.2c-0.7,0.9,0.1,6.3,6.4,6.7L102.5,98.7z"/>
					<path class="st37" d="M96,96.9c1.9-2.7,4.8,0.5,5.6,2.8l0.5,2.9l-1.5-2.5C98.8,97.4,98.7,96.4,96,96.9z"/>
					<path class="st24" d="M96.7,93.1c-1.2,0.3-2.4,1.1-2.7,2.4c-1.2,4.2,1.5,7.6,4.3,8.8c-1.6-0.9-2.5-2.8-3.1-4.4
						c-1.1-3.1,0.2-6,2.2-6.2C98.6,93.5,97.8,93.2,96.7,93.1z"/>
				</g>
				<path class="st39" d="M106.1,74.6l-3.2-3.8c-8.3,13.4-2.1,22.1,0,24.9L106.1,74.6z"/>
				<g>
					<path class="st39" d="M145,67.9c-3.4,1.6-6.8,3.3-10.3,4.9c5.1,8.3,6.5,16.8,5.8,26.2c9.3-2.1,16-9.5,13.9-19.5
						C153.4,74.6,150,70.3,145,67.9z"/>
					<path class="st40" d="M138.5,102.7l-2-26.6l2.1-3.1c1.7,1.3,7.5,9.3,4.9,18c-1.1,3.5-0.6,4.2-2.7,7.8
						C140.4,99.7,139.5,102.5,138.5,102.7z"/>
					<path class="st40" d="M148.1,85.6c1.6-4.7,1-14-3.6-16.7C149.1,68.3,152.4,81.5,148.1,85.6z"/>
					<path class="st40" d="M150.3,88.3c1.7-5.7,0.9-14.7-4.1-18.4l-1.3-0.9C153.1,71.2,153.8,84.7,150.3,88.3z"/>
				</g>
				<g>
					<path class="st23" d="M126.5,117.1c-1.4,0.2-2.9,0.4-4.3,0.7c1.2,2,1.2,5.1,0.6,6.8c-0.1,0.2,0,0.3,0.3,0.3
						c0.9,0.2,3.3-0.8,4-2C126.5,121,126.3,118.8,126.5,117.1z"/>
					<path class="st24" d="M123,119.8c0.4,1.7,0.2,3.5-0.2,4.8c-0.1,0.2,0,0.3,0.3,0.3c0,0,0.1,0,0.1,0c1.1-2.5,0.6-4.1,0.6-4.7
						C123.8,120,123.4,119.9,123,119.8z"/>
					<path class="st41" d="M126.5,117.1c-1.4,0.2-2.9,0.4-4.3,0.7c0.4,0.7,0.7,1.5,0.9,2.3c1.2-0.1,2.3-0.2,3.4-0.4
						C126.4,118.8,126.4,117.9,126.5,117.1z"/>
				</g>
				<g>
					<path class="st23" d="M134.1,70.9c11,0,6.5,24.5,6.5,32.8c0,8.3-8.9,14.9-20,14.9c-11,0-20-6.7-20-14.9c0-1.6,0.3-3.2,1-4.7
						c2.1-4.8-2.2-14.1,1.1-21.9c0.8-1.8,2-3.2,3.8-3.9C109.8,72.2,130.4,70.9,134.1,70.9z"/>
					<path class="st25" d="M111.7,82.3c3.6,0,6.5,4.3,6.5,9.6c0,5.3-2.9,9.6-6.5,9.6c-3.6,0-6.5-4.3-6.5-9.6
						C105.2,86.6,108.1,82.3,111.7,82.3z"/>
					<ellipse class="st25" cx="127.9" cy="91.5" rx="6.5" ry="9.6"/>
					<path class="st25" d="M134.1,70.9c11,0,6.5,24.5,6.5,32.8c0,8.3-8.9,14.9-20,14.9c-2.6,0-5.2-0.4-7.5-1.1
						c-0.4-0.4-0.3-0.7,0.2-0.5c6.2,2.7,18.4-0.2,22.6-7.9c2.7-4.9,1.7-14,1.8-16c0.1-2.9,0.4-13.4-1.9-15.3
						c-0.4-0.3-1.1-0.3-2.5,0.2c-7.6,2.4-22.5,3.9-26.8-4.8C109.8,72.2,130.4,70.9,134.1,70.9L134.1,70.9z M106.6,73.3L106.6,73.3
						l-0.5,1.4c0.5-0.5,0.3-0.3,0.3-0.9C106.4,73.6,106.5,73.4,106.6,73.3z"/>
					<path class="st24" d="M117.2,118.4c-9.4-1.2-16.5-7.4-16.5-14.7c0-1.6,0.3-3.2,1-4.7c2.1-4.8-2.2-14.1,1.1-21.9
						c0.6-1.4,1.4-2.5,2.6-3.3c-5.5,8.5-0.8,19.7-2.8,26.4c-1,3.3-0.5,5.3,0.6,7.7C106,113.7,111.5,116.4,117.2,118.4z"/>
					<g>
						<ellipse class="st35" cx="111.7" cy="93.5" rx="5" ry="8"/>
						<g>
							<path class="st42" d="M111.7,85.5c2.8,0,5,3.6,5,8c0,4.4-2.3,8-5,8c-0.2,0-0.4,0-0.6-0.1c4.1-3.3,3.5-13.4-0.7-15.7
								C110.8,85.5,111.2,85.5,111.7,85.5z"/>
							<path class="st35" d="M114.2,98.5c1.1,1.6,1.7-2,1.3-2.6c-0.2-0.2-0.4-0.2-0.6,0.2C114.5,96.9,114.2,98.4,114.2,98.5z"/>
						</g>
						<g>
							<path class="st43" d="M113,86.6c0.7,0,1.3,0.4,1.8,1.1c0.4,0.6,0.6,1.3,0.6,2.1c0,0.8-0.2,1.6-0.6,2.1
								c-0.4,0.7-1,1.1-1.8,1.1c-0.7,0-1.3-0.4-1.8-1.1c-0.4-0.6-0.6-1.3-0.6-2.1c0-0.8,0.2-1.6,0.6-2.1
								C111.7,87,112.3,86.6,113,86.6L113,86.6z M113.4,88.6c-0.1-0.2-0.2-0.3-0.3-0.3c-0.1,0-0.2,0.1-0.3,0.3
								c-0.2,0.3-0.3,0.7-0.3,1.2c0,0.5,0.1,0.9,0.3,1.2c0.1,0.2,0.2,0.3,0.3,0.3c0.1,0,0.2-0.1,0.3-0.3c0.2-0.3,0.3-0.7,0.3-1.2
								C113.7,89.4,113.5,88.9,113.4,88.6z"/>
							<path class="st44" d="M113,87.5c0.5,0,1,0.3,1.3,0.8c0.3,0.4,0.4,0.9,0.4,1.5c0,0.6-0.2,1.1-0.4,1.5
								c-0.3,0.5-0.7,0.8-1.3,0.8c-0.5,0-1-0.3-1.3-0.8c-0.3-0.4-0.4-0.9-0.4-1.5c0-0.6,0.2-1.1,0.4-1.5
								C112,87.8,112.5,87.5,113,87.5L113,87.5z M113.3,89c-0.1-0.1-0.2-0.2-0.2-0.2c-0.1,0-0.2,0.1-0.2,0.2
								c-0.1,0.2-0.2,0.5-0.2,0.9c0,0.4,0.1,0.7,0.2,0.9c0.1,0.1,0.2,0.2,0.2,0.2c0.1,0,0.2-0.1,0.2-0.2c0.1-0.2,0.2-0.5,0.2-0.9
								C113.5,89.5,113.4,89.2,113.3,89z"/>
						</g>
					</g>
					<path class="st45" d="M120.6,107.6c0.6-0.2,1.8,1.1,1.9,2.1c0.1,0.8-2,1.2-1.4-0.1C121.6,108.6,120.5,107.7,120.6,107.6z"/>
					<g>
						<path class="st37" d="M119.7,103.9c-2.6,0.6-4.1-2.2-3.1-4.4c1.8-2.6,6-0.3,5.3,2.1C120.2,95.9,113.4,101.5,119.7,103.9z"/>
						<path class="st24" d="M119.7,100.3c0.2,0.7-2.1,2.2-2.2,0.3c0-0.1,0.4-0.9,1.1-0.9C118.9,99.6,119.7,99.9,119.7,100.3z"/>
					</g>
					<path class="st37" d="M123,110.6c0.1,0.1,0.1,0.5-0.1,0.7c-1.2,1.1-1.7-0.4-1.6-0.3C122.1,111.3,123,110.4,123,110.6z"/>
					<g>
						<path class="st35" d="M127.7,84.9c2.8,0,5,3.6,5,8c0,4.4-2.3,8-5,8c-2.8,0-5-3.6-5-8C122.6,88.5,124.9,84.9,127.7,84.9z"/>
						<path class="st42" d="M127.7,84.9c2.8,0,5,3.6,5,8c0,4.4-2.3,8-5,8c-0.2,0-0.3,0-0.5,0c0.6-0.4,1.2-1.1,1.7-2.3
							c1.9-4.7,1.8-9.6-1.6-13.4c0-0.1-0.2-0.2-0.3-0.3C127.2,85,127.4,84.9,127.7,84.9z"/>
						<g>
							<path class="st43" d="M129.1,86.8c0.7,0,1.3,0.4,1.8,1.1c0.3,0.6,0.6,1.3,0.6,2.1c0,0.8-0.2,1.6-0.6,2.1
								c-0.4,0.7-1,1.1-1.8,1.1c-0.7,0-1.3-0.4-1.8-1.1c-0.3-0.6-0.6-1.3-0.6-2.1c0-0.8,0.2-1.6,0.6-2.1
								C127.8,87.2,128.4,86.8,129.1,86.8L129.1,86.8z M129.5,88.7c-0.1-0.2-0.2-0.3-0.3-0.3c-0.1,0-0.2,0.1-0.3,0.3
								c-0.2,0.3-0.3,0.7-0.3,1.2c0,0.5,0.1,0.9,0.3,1.2c0.1,0.2,0.2,0.3,0.3,0.3c0.1,0,0.2-0.1,0.3-0.3c0.2-0.3,0.3-0.7,0.3-1.2
								C129.8,89.5,129.7,89,129.5,88.7z"/>
							<path class="st44" d="M129.1,87.6c0.5,0,1,0.3,1.3,0.8c0.3,0.4,0.4,0.9,0.4,1.5c0,0.6-0.2,1.1-0.4,1.5
								c-0.3,0.5-0.7,0.8-1.3,0.8s-1-0.3-1.3-0.8c-0.3-0.4-0.4-0.9-0.4-1.5c0-0.6,0.2-1.1,0.4-1.5C128.2,87.9,128.6,87.6,129.1,87.6
								L129.1,87.6z M129.4,89.1c-0.1-0.1-0.2-0.2-0.2-0.2c-0.1,0-0.2,0.1-0.2,0.2c-0.1,0.2-0.2,0.5-0.2,0.9c0,0.4,0.1,0.7,0.2,0.9
								c0.1,0.1,0.2,0.2,0.2,0.2c0.1,0,0.2-0.1,0.2-0.2c0.1-0.2,0.2-0.5,0.2-0.9C129.6,89.6,129.5,89.3,129.4,89.1z"/>
						</g>
						<path class="st35" d="M130.3,97.5c1.1,1.6,1.7-2,1.3-2.6c-0.2-0.2-0.4-0.2-0.6,0.2C130.6,95.9,130.2,97.4,130.3,97.5z"/>
					</g>
					<path class="st39" d="M134.1,84.7c-0.3-2.9-3.3-5.5-6-5.2c-0.7,0.1-2.3,1.2-0.7,1.3C130.4,81,132.8,82.3,134.1,84.7z"/>
					<path class="st39" d="M111.7,79.6c-2.1,0.1-4.7,2.2-5.8,5c1.3-1.7,5.2-4.1,7.7-3.4C114.7,81.6,113.7,79.5,111.7,79.6z"/>
				</g>
				<g>
					<path class="st23" d="M139.5,107.2V102c0.6-6.7,11.5-12,12.3-3.3C152.5,106.6,140.7,111.3,139.5,107.2z"/>
					<path class="st25" d="M139.5,102c0.4-4.2,4.8-7.9,8.2-7.9c-3.3,1.9-5.3,5.9-4.6,5.9c1.1-2,7.5-3.1,5.8,1.4
						c-2.1,5.7-7.3,6.5-9.4,4.6C138.4,105.2,139.6,102.3,139.5,102z"/>
					<path class="st37" d="M141,103.9c0.6-3.1,3.3-6.8,6.6-5.8c1.2,0.4,1.6,1.3,1.7,2.4l-0.6-0.6C146.1,97.1,142.5,101.9,141,103.9z
						"/>
				</g>
				<path class="st39" d="M158.2,67.7c-3.7-2.2-8.2-0.4-12.2,1c-0.2,0.1-0.5-0.3-0.4-0.6c0.7-3.7,1.2-6.4,0.9-10.2
					c1.4,1.9,1.6,4.7,1,7.2c0.5-0.7,1-1.5,2-2.4c1-1,4.1-3,5.4-1.2c-3.4-0.1-4.1,1.9-6.8,4.7l-1.5,1.5l1.1-0.8
					C150.2,65.5,156.4,64,158.2,67.7z"/>
				<g>
					<path class="st39" d="M145.7,68.5c-8.5,5.8-16,10.7-31,9c-15.6-1.7-17.2-11.1-15.6-18.3c0.8-3.4,4.4-9.6,4.2-8.8
						c-3.1,8.3,13.7,3.8,16.6,3.4C127.8,52.9,144.1,55.9,145.7,68.5z"/>
					<g>
						<path class="st40" d="M114.9,69.5c-11.7,2.2-17-8.9-12.2-17.6C101,65.7,106,67.9,114.9,69.5z"/>
						<path class="st40" d="M115.6,60.6c-6.6,1.8-15.7,0.4-12.9-8.4l0.1,1.6C103.4,60.7,110.1,60.3,115.6,60.6z"/>
					</g>
					<g>
						<path class="st40" d="M127.4,65.4c5.2-2.6,13.9-1.9,17.7,3.4c0.1,0.1,0.1,0.6,0.2,0.7h0C139.4,65.1,134.2,64.4,127.4,65.4z"/>
						<path class="st40" d="M134.2,59.6c5,0.1,10.3,2.2,11,7.9v1.9c-0.1-0.5-0.5-0.4-0.7-0.8C142.6,63,140.2,61.9,134.2,59.6z"/>
					</g>
					<path class="st46" d="M116.7,59.4c0,0,1.8,0.1,2.2,0.1c0.9-0.1,11-2.2,9.9-1.3c-1,0.9-12,5.1-3.4,3.8c2-0.3-2.5,1.8-1.1,1.8
						c3.5,0.1-1.3,2.8,0.9,4.7c1.7,1.5,6.9-1.9,9.1-1.9c1,0-3.7,2.6-4.1,2.7c-1,0.4-7.8,3.5-8.1,3.5c-0.5,0-0.8,0.9-0.6-0.1
						c0.5-3,3.9-5,0.4-3.2c-3.7,1.9-5.2,1.3-2.1-2.4c5-5.7,1.2-2-2.1-2.6c-1.1-0.2,3-2.4,2.7-2.4c-3.2,0,3-1.8,1.1-1.6
						C120.4,60.7,117.5,60.4,116.7,59.4z"/>
				</g>
			</g>
		</g>
	</g>
	<g>
		<path class="st6" d="M-149,100.5h-16.5c-1.4,0-2.5-1.1-2.5-2.5v-1.1c0-1.4,1.1-2.5,2.5-2.5h16.5c1.4,0,2.5,1.1,2.5,2.5V98
			C-146.4,99.4-147.6,100.5-149,100.5z"/>
		<path class="st6" d="M-139,96.5l-12-6.9c-0.7-0.4-1.6,0.1-1.6,0.9v13.9c0,0.8,0.9,1.3,1.6,0.9l12-6.9
			C-138.3,97.9-138.3,96.9-139,96.5z"/>
	</g>
	
		<text transform="matrix(1 0 0 1 -334.7861 -425.4717)" class="st1" style="font-family:'MyriadPro-Semibold'; font-size:11.8903px;">Calificación</text>
	
		<text transform="matrix(1 0 0 1 -402.4346 -426.0317)" class="st1" style="font-family:'MyriadPro-Semibold'; font-size:11.8903px;">Preguntas</text>
	<g>
		<g>
			<path class="st47" d="M-86-49.7c0,7.6-6.1,13.7-13.7,13.7c-7.6,0-13.7-6.1-13.7-13.7c0-7.6,6.1-13.7,13.7-13.7
				C-92.1-63.4-86-57.3-86-49.7z"/>
			<polygon class="st8" points="-93.1,-49.8 -103.6,-57.1 -100.1,-49.8 -103.6,-42.5 			"/>
		</g>
	</g>
	<g>
		<g>
			<path class="st48" d="M-229.7-21.7c0,12.3-9.9,22.2-22.2,22.2c-12.3,0-22.2-9.9-22.2-22.2s9.9-22.2,22.2-22.2
				C-239.6-43.9-229.7-33.9-229.7-21.7z"/>
			<linearGradient id="SVGID_5_" gradientUnits="userSpaceOnUse" x1="-268.9541" y1="-37.8601" x2="-239.7716" y2="-10.2298">
				<stop  offset="0" style="stop-color:#8BC53F"/>
				<stop  offset="0.2031" style="stop-color:#88C33A"/>
				<stop  offset="0.4307" style="stop-color:#7FBE2D"/>
				<stop  offset="0.6692" style="stop-color:#71B617"/>
				<stop  offset="0.8539" style="stop-color:#62AD00"/>
			</linearGradient>
			<path class="st49" d="M-229.9-21.9c0,12.3-9.9,22.2-22.2,22.2c-12.3,0-22.2-9.9-22.2-22.2s9.9-22.2,22.2-22.2
				C-239.8-44.1-229.9-34.1-229.9-21.9z"/>
			<path class="st8" d="M-237.5-23.9l-11.4-11.4c-1.1-1.1-3-1.1-4.1,0c-1.1,1.1-1.1,3,0,4.1l6.4,6.4h-18.2c-1.6,0-2.9,1.3-2.9,2.9
				c0,1.6,1.3,2.9,2.9,2.9h18.2l-6.4,6.4c-1.1,1.1-1.1,3,0,4.1c1.1,1.1,3,1.1,4.1,0l11.4-11.4c0.5-0.5,0.9-1.3,0.9-2.1
				C-236.6-22.7-236.9-23.4-237.5-23.9z"/>
		</g>
	</g>
</g>
<g id="Capa_2">
</g>
</svg>
